%TF.GenerationSoftware,KiCad,Pcbnew,(6.0.7-1)-1*%
%TF.CreationDate,2022-08-29T03:00:19-07:00*%
%TF.ProjectId,BB_Power_Supply,42425f50-6f77-4657-925f-537570706c79,1*%
%TF.SameCoordinates,Original*%
%TF.FileFunction,Copper,L2,Bot*%
%TF.FilePolarity,Positive*%
%FSLAX46Y46*%
G04 Gerber Fmt 4.6, Leading zero omitted, Abs format (unit mm)*
G04 Created by KiCad (PCBNEW (6.0.7-1)-1) date 2022-08-29 03:00:19*
%MOMM*%
%LPD*%
G01*
G04 APERTURE LIST*
G04 Aperture macros list*
%AMRoundRect*
0 Rectangle with rounded corners*
0 $1 Rounding radius*
0 $2 $3 $4 $5 $6 $7 $8 $9 X,Y pos of 4 corners*
0 Add a 4 corners polygon primitive as box body*
4,1,4,$2,$3,$4,$5,$6,$7,$8,$9,$2,$3,0*
0 Add four circle primitives for the rounded corners*
1,1,$1+$1,$2,$3*
1,1,$1+$1,$4,$5*
1,1,$1+$1,$6,$7*
1,1,$1+$1,$8,$9*
0 Add four rect primitives between the rounded corners*
20,1,$1+$1,$2,$3,$4,$5,0*
20,1,$1+$1,$4,$5,$6,$7,0*
20,1,$1+$1,$6,$7,$8,$9,0*
20,1,$1+$1,$8,$9,$2,$3,0*%
G04 Aperture macros list end*
%TA.AperFunction,ComponentPad*%
%ADD10R,3.500000X3.500000*%
%TD*%
%TA.AperFunction,ComponentPad*%
%ADD11RoundRect,0.750000X-0.750000X-1.000000X0.750000X-1.000000X0.750000X1.000000X-0.750000X1.000000X0*%
%TD*%
%TA.AperFunction,ComponentPad*%
%ADD12RoundRect,0.875000X-0.875000X-0.875000X0.875000X-0.875000X0.875000X0.875000X-0.875000X0.875000X0*%
%TD*%
%TA.AperFunction,ComponentPad*%
%ADD13C,1.600000*%
%TD*%
%TA.AperFunction,ComponentPad*%
%ADD14R,1.900000X1.900000*%
%TD*%
%TA.AperFunction,ComponentPad*%
%ADD15C,1.900000*%
%TD*%
%TA.AperFunction,ComponentPad*%
%ADD16C,1.400000*%
%TD*%
%TA.AperFunction,ComponentPad*%
%ADD17O,1.400000X1.400000*%
%TD*%
%TA.AperFunction,ComponentPad*%
%ADD18R,1.905000X2.000000*%
%TD*%
%TA.AperFunction,ComponentPad*%
%ADD19O,1.905000X2.000000*%
%TD*%
%TA.AperFunction,ComponentPad*%
%ADD20R,1.700000X1.700000*%
%TD*%
%TA.AperFunction,ComponentPad*%
%ADD21O,1.700000X1.700000*%
%TD*%
%TA.AperFunction,ComponentPad*%
%ADD22C,1.800000*%
%TD*%
%TA.AperFunction,ComponentPad*%
%ADD23R,1.800000X1.800000*%
%TD*%
%TA.AperFunction,ComponentPad*%
%ADD24C,3.000000*%
%TD*%
%TA.AperFunction,ComponentPad*%
%ADD25R,3.000000X3.000000*%
%TD*%
G04 APERTURE END LIST*
D10*
%TO.P,J1,1*%
%TO.N,/POWER_IN*%
X136098800Y-94444900D03*
D11*
%TO.P,J1,2*%
%TO.N,GND*%
X130098800Y-94444900D03*
D12*
%TO.P,J1,3*%
X133098800Y-99144900D03*
%TD*%
D13*
%TO.P,C1,1*%
%TO.N,/3.3V*%
X128086800Y-74066400D03*
%TO.P,C1,2*%
%TO.N,GND*%
X130586800Y-74066400D03*
%TD*%
D14*
%TO.P,S1,1*%
%TO.N,/12V*%
X153720800Y-86512400D03*
D15*
%TO.P,S1,2*%
%TO.N,/POWER_IN*%
X151220800Y-86512400D03*
%TO.P,S1,3*%
%TO.N,unconnected-(S1-Pad3)*%
X148720800Y-86512400D03*
%TD*%
D16*
%TO.P,R3,1*%
%TO.N,GND*%
X155498800Y-105308400D03*
D17*
%TO.P,R3,2*%
%TO.N,Net-(R2-Pad1)*%
X147878800Y-105308400D03*
%TD*%
D18*
%TO.P,U2,1,VI*%
%TO.N,/12V*%
X134670800Y-82702400D03*
D19*
%TO.P,U2,2,GND*%
%TO.N,GND*%
X132130800Y-82702400D03*
%TO.P,U2,3,VO*%
%TO.N,/5V*%
X129590800Y-82702400D03*
%TD*%
D16*
%TO.P,R1,1*%
%TO.N,Net-(D1-Pad2)*%
X155244800Y-80416400D03*
D17*
%TO.P,R1,2*%
%TO.N,/12V*%
X147624800Y-80416400D03*
%TD*%
D20*
%TO.P,J5,1,Pin_1*%
%TO.N,/3.3V*%
X138988800Y-67861400D03*
D21*
%TO.P,J5,2,Pin_2*%
%TO.N,/POWER_OUT_TOP*%
X141528800Y-67861400D03*
%TO.P,J5,3,Pin_3*%
%TO.N,/5V*%
X144068800Y-67861400D03*
%TD*%
D13*
%TO.P,C2,1*%
%TO.N,/12V*%
X137749600Y-78079600D03*
%TO.P,C2,2*%
%TO.N,GND*%
X135249600Y-78079600D03*
%TD*%
D19*
%TO.P,U1,3,VI*%
%TO.N,/12V*%
X129336800Y-104546400D03*
%TO.P,U1,2,VO*%
%TO.N,/3.3V*%
X131876800Y-104546400D03*
D18*
%TO.P,U1,1,ADJ*%
%TO.N,Net-(R2-Pad1)*%
X134416800Y-104546400D03*
%TD*%
D22*
%TO.P,D1,2,A*%
%TO.N,Net-(D1-Pad2)*%
X151434800Y-93121400D03*
D23*
%TO.P,D1,1,K*%
%TO.N,GND*%
X151434800Y-95661400D03*
%TD*%
D20*
%TO.P,J2,1,Pin_1*%
%TO.N,/3.3V*%
X138988800Y-116238000D03*
D21*
%TO.P,J2,2,Pin_2*%
%TO.N,/POWER_OUT_BOTTOM*%
X141528800Y-116238000D03*
%TO.P,J2,3,Pin_3*%
%TO.N,/5V*%
X144068800Y-116238000D03*
%TD*%
D16*
%TO.P,R2,1*%
%TO.N,Net-(R2-Pad1)*%
X147878800Y-100736400D03*
D17*
%TO.P,R2,2*%
%TO.N,/3.3V*%
X155498800Y-100736400D03*
%TD*%
D21*
%TO.P,J3,2,Pin_2*%
%TO.N,/POWER_OUT_BOTTOM*%
X159652800Y-116228000D03*
D20*
%TO.P,J3,1,Pin_1*%
%TO.N,GND*%
X159652800Y-113688000D03*
%TD*%
%TO.P,J6,1,Pin_1*%
%TO.N,GND*%
X159652800Y-67863800D03*
D21*
%TO.P,J6,2,Pin_2*%
%TO.N,/POWER_OUT_TOP*%
X159652800Y-70403800D03*
%TD*%
D24*
%TO.P,J7,2,Pin_2*%
%TO.N,/POWER_OUT_TOP*%
X154736800Y-70061400D03*
D25*
%TO.P,J7,1,Pin_1*%
%TO.N,GND*%
X149656800Y-70061400D03*
%TD*%
D24*
%TO.P,J4,2,Pin_2*%
%TO.N,/POWER_OUT_BOTTOM*%
X149656800Y-114038000D03*
D25*
%TO.P,J4,1,Pin_1*%
%TO.N,GND*%
X154736800Y-114038000D03*
%TD*%
D13*
%TO.P,C3,1*%
%TO.N,/5V*%
X130566800Y-78130400D03*
%TO.P,C3,2*%
%TO.N,GND*%
X128066800Y-78130400D03*
%TD*%
%TA.AperFunction,Conductor*%
%TO.N,GND*%
G36*
X161310818Y-65940400D02*
G01*
X161325652Y-65942710D01*
X161325655Y-65942710D01*
X161334524Y-65944091D01*
X161343426Y-65942927D01*
X161343550Y-65942911D01*
X161373992Y-65942640D01*
X161405812Y-65946225D01*
X161439625Y-65950035D01*
X161467127Y-65956312D01*
X161547598Y-65984470D01*
X161573014Y-65996710D01*
X161603399Y-66015802D01*
X161645204Y-66042070D01*
X161667262Y-66059662D01*
X161727538Y-66119938D01*
X161745130Y-66141996D01*
X161790490Y-66214185D01*
X161802730Y-66239602D01*
X161830888Y-66320073D01*
X161837165Y-66347576D01*
X161843818Y-66406626D01*
X161843723Y-66422268D01*
X161844600Y-66422279D01*
X161844490Y-66431251D01*
X161843109Y-66440124D01*
X161844273Y-66449026D01*
X161844273Y-66449028D01*
X161847236Y-66471683D01*
X161848300Y-66488021D01*
X161848300Y-71758000D01*
X161848002Y-71766655D01*
X161844458Y-71818129D01*
X161846381Y-71826903D01*
X161847040Y-71835851D01*
X161846978Y-71835856D01*
X161848876Y-71857243D01*
X161846638Y-71914995D01*
X161841559Y-71945851D01*
X161820179Y-72018126D01*
X161807657Y-72046776D01*
X161772011Y-72106716D01*
X161769133Y-72111556D01*
X161749931Y-72136247D01*
X161696647Y-72189531D01*
X161671959Y-72208731D01*
X161607176Y-72247257D01*
X161578526Y-72259779D01*
X161506250Y-72281159D01*
X161475394Y-72286239D01*
X161422243Y-72288298D01*
X161405047Y-72287788D01*
X161399751Y-72287268D01*
X161391034Y-72285133D01*
X161331691Y-72287764D01*
X161331416Y-72287776D01*
X161325836Y-72287900D01*
X158854050Y-72287900D01*
X158833145Y-72286154D01*
X158818144Y-72283630D01*
X158818141Y-72283630D01*
X158813352Y-72282824D01*
X158807113Y-72282748D01*
X158805660Y-72282730D01*
X158805657Y-72282730D01*
X158800800Y-72282671D01*
X158795982Y-72283361D01*
X158786603Y-72284704D01*
X158777730Y-72285656D01*
X158704705Y-72290879D01*
X158583287Y-72299563D01*
X158578883Y-72300521D01*
X158374609Y-72344958D01*
X158374605Y-72344959D01*
X158370202Y-72345917D01*
X158365985Y-72347490D01*
X158365981Y-72347491D01*
X158246916Y-72391900D01*
X158165882Y-72422124D01*
X157974488Y-72526633D01*
X157799915Y-72657317D01*
X157645717Y-72811515D01*
X157515033Y-72986088D01*
X157410524Y-73177482D01*
X157408953Y-73181694D01*
X157344255Y-73355158D01*
X157334317Y-73381802D01*
X157333359Y-73386205D01*
X157333358Y-73386209D01*
X157329185Y-73405394D01*
X157287963Y-73594887D01*
X157285978Y-73622639D01*
X157274711Y-73780164D01*
X157273533Y-73790553D01*
X157271109Y-73806124D01*
X157272273Y-73815026D01*
X157272273Y-73815028D01*
X157275236Y-73837683D01*
X157276300Y-73854021D01*
X157276300Y-110085033D01*
X157274800Y-110104418D01*
X157272490Y-110119251D01*
X157272490Y-110119255D01*
X157271109Y-110128124D01*
X157272273Y-110137026D01*
X157272273Y-110137029D01*
X157272501Y-110138769D01*
X157273244Y-110146117D01*
X157287963Y-110351913D01*
X157334317Y-110564998D01*
X157335890Y-110569215D01*
X157335891Y-110569219D01*
X157362245Y-110639877D01*
X157410524Y-110769318D01*
X157515033Y-110960712D01*
X157645717Y-111135285D01*
X157799915Y-111289483D01*
X157974488Y-111420167D01*
X158165882Y-111524676D01*
X158170094Y-111526247D01*
X158365981Y-111599309D01*
X158365985Y-111599310D01*
X158370202Y-111600883D01*
X158374605Y-111601841D01*
X158374609Y-111601842D01*
X158578883Y-111646279D01*
X158583287Y-111647237D01*
X158695069Y-111655232D01*
X158760759Y-111659930D01*
X158772657Y-111661353D01*
X158788248Y-111663976D01*
X158794791Y-111664056D01*
X158795940Y-111664070D01*
X158795943Y-111664070D01*
X158800800Y-111664129D01*
X158828424Y-111660173D01*
X158846286Y-111658900D01*
X161291433Y-111658900D01*
X161310818Y-111660400D01*
X161325652Y-111662710D01*
X161325655Y-111662710D01*
X161334524Y-111664091D01*
X161343426Y-111662927D01*
X161343550Y-111662911D01*
X161373992Y-111662640D01*
X161387208Y-111664129D01*
X161439625Y-111670035D01*
X161467127Y-111676312D01*
X161547598Y-111704470D01*
X161573015Y-111716710D01*
X161645204Y-111762070D01*
X161667262Y-111779662D01*
X161727538Y-111839938D01*
X161745130Y-111861996D01*
X161790490Y-111934185D01*
X161802730Y-111959602D01*
X161830888Y-112040073D01*
X161837165Y-112067576D01*
X161843818Y-112126626D01*
X161843723Y-112142268D01*
X161844600Y-112142279D01*
X161844491Y-112151249D01*
X161843109Y-112160124D01*
X161847371Y-112192714D01*
X161848433Y-112208633D01*
X161852353Y-113429525D01*
X161865818Y-117623222D01*
X161865522Y-117632277D01*
X161862050Y-117682735D01*
X161863971Y-117691499D01*
X161864631Y-117700457D01*
X161864390Y-117700475D01*
X161866199Y-117721839D01*
X161864381Y-117760648D01*
X161864131Y-117765977D01*
X161858186Y-117798756D01*
X161839549Y-117856541D01*
X161825225Y-117886612D01*
X161792097Y-117937494D01*
X161770392Y-117962762D01*
X161725085Y-118003186D01*
X161697519Y-118021880D01*
X161643198Y-118049021D01*
X161611700Y-118059837D01*
X161589376Y-118064321D01*
X161552172Y-118071793D01*
X161518933Y-118073978D01*
X161493706Y-118072286D01*
X161478353Y-118071257D01*
X161460302Y-118068725D01*
X161457188Y-118068056D01*
X161448768Y-118064944D01*
X161419488Y-118062906D01*
X161403421Y-118061787D01*
X161392627Y-118060566D01*
X161392548Y-118060554D01*
X161381083Y-118058753D01*
X161363712Y-118058730D01*
X161355144Y-118058426D01*
X161337225Y-118057179D01*
X161312419Y-118055452D01*
X161312416Y-118055452D01*
X161303462Y-118054829D01*
X161294690Y-118056745D01*
X161285741Y-118057397D01*
X161285725Y-118057179D01*
X161272385Y-118058610D01*
X122782412Y-118007965D01*
X122763194Y-118006464D01*
X122747953Y-118004090D01*
X122747944Y-118004090D01*
X122739076Y-118002709D01*
X122723819Y-118004704D01*
X122698498Y-118005447D01*
X122550171Y-117994838D01*
X122524974Y-117993036D01*
X122507180Y-117990478D01*
X122312380Y-117948102D01*
X122295139Y-117943040D01*
X122108345Y-117873368D01*
X122092010Y-117865907D01*
X121917042Y-117770367D01*
X121901918Y-117760648D01*
X121803841Y-117687228D01*
X121790255Y-117675455D01*
X121541745Y-117426945D01*
X121529972Y-117413359D01*
X121456552Y-117315282D01*
X121446833Y-117300158D01*
X121357269Y-117136134D01*
X137630300Y-117136134D01*
X137637055Y-117198316D01*
X137688185Y-117334705D01*
X137775539Y-117451261D01*
X137892095Y-117538615D01*
X138028484Y-117589745D01*
X138090666Y-117596500D01*
X139886934Y-117596500D01*
X139949116Y-117589745D01*
X140085505Y-117538615D01*
X140202061Y-117451261D01*
X140289415Y-117334705D01*
X140315348Y-117265529D01*
X140333398Y-117217382D01*
X140376040Y-117160618D01*
X140442602Y-117135918D01*
X140511950Y-117151126D01*
X140546617Y-117179114D01*
X140575050Y-117211938D01*
X140746926Y-117354632D01*
X140939800Y-117467338D01*
X141148492Y-117547030D01*
X141153560Y-117548061D01*
X141153563Y-117548062D01*
X141218965Y-117561368D01*
X141367397Y-117591567D01*
X141372572Y-117591757D01*
X141372574Y-117591757D01*
X141585473Y-117599564D01*
X141585477Y-117599564D01*
X141590637Y-117599753D01*
X141595757Y-117599097D01*
X141595759Y-117599097D01*
X141807088Y-117572025D01*
X141807089Y-117572025D01*
X141812216Y-117571368D01*
X141843358Y-117562025D01*
X142021229Y-117508661D01*
X142021234Y-117508659D01*
X142026184Y-117507174D01*
X142226794Y-117408896D01*
X142408660Y-117279173D01*
X142566896Y-117121489D01*
X142571461Y-117115137D01*
X142697253Y-116940077D01*
X142698576Y-116941028D01*
X142745445Y-116897857D01*
X142815380Y-116885625D01*
X142880826Y-116913144D01*
X142908675Y-116944994D01*
X142968787Y-117043088D01*
X143115050Y-117211938D01*
X143286926Y-117354632D01*
X143479800Y-117467338D01*
X143688492Y-117547030D01*
X143693560Y-117548061D01*
X143693563Y-117548062D01*
X143758965Y-117561368D01*
X143907397Y-117591567D01*
X143912572Y-117591757D01*
X143912574Y-117591757D01*
X144125473Y-117599564D01*
X144125477Y-117599564D01*
X144130637Y-117599753D01*
X144135757Y-117599097D01*
X144135759Y-117599097D01*
X144347088Y-117572025D01*
X144347089Y-117572025D01*
X144352216Y-117571368D01*
X144383358Y-117562025D01*
X144561229Y-117508661D01*
X144561234Y-117508659D01*
X144566184Y-117507174D01*
X144766794Y-117408896D01*
X144948660Y-117279173D01*
X145106896Y-117121489D01*
X145111461Y-117115137D01*
X145234235Y-116944277D01*
X145237253Y-116940077D01*
X145242196Y-116930077D01*
X145333936Y-116744453D01*
X145333937Y-116744451D01*
X145336230Y-116739811D01*
X145401170Y-116526069D01*
X145430329Y-116304590D01*
X145431956Y-116238000D01*
X145428396Y-116194695D01*
X158290051Y-116194695D01*
X158290348Y-116199848D01*
X158290348Y-116199851D01*
X158295811Y-116294590D01*
X158302910Y-116417715D01*
X158304047Y-116422761D01*
X158304048Y-116422767D01*
X158323919Y-116510939D01*
X158352022Y-116635639D01*
X158436066Y-116842616D01*
X158552787Y-117033088D01*
X158699050Y-117201938D01*
X158870926Y-117344632D01*
X159063800Y-117457338D01*
X159068625Y-117459180D01*
X159068626Y-117459181D01*
X159128593Y-117482080D01*
X159272492Y-117537030D01*
X159277560Y-117538061D01*
X159277563Y-117538062D01*
X159384817Y-117559883D01*
X159491397Y-117581567D01*
X159496572Y-117581757D01*
X159496574Y-117581757D01*
X159709473Y-117589564D01*
X159709477Y-117589564D01*
X159714637Y-117589753D01*
X159719757Y-117589097D01*
X159719759Y-117589097D01*
X159931088Y-117562025D01*
X159931089Y-117562025D01*
X159936216Y-117561368D01*
X159984007Y-117547030D01*
X160145229Y-117498661D01*
X160145234Y-117498659D01*
X160150184Y-117497174D01*
X160350794Y-117398896D01*
X160532660Y-117269173D01*
X160690896Y-117111489D01*
X160750394Y-117028689D01*
X160818235Y-116934277D01*
X160821253Y-116930077D01*
X160825211Y-116922070D01*
X160917936Y-116734453D01*
X160917937Y-116734451D01*
X160920230Y-116729811D01*
X160985170Y-116516069D01*
X161014329Y-116294590D01*
X161014411Y-116291240D01*
X161015874Y-116231365D01*
X161015874Y-116231361D01*
X161015956Y-116228000D01*
X160997652Y-116005361D01*
X160943231Y-115788702D01*
X160854154Y-115583840D01*
X160742091Y-115410617D01*
X160735622Y-115400617D01*
X160735620Y-115400614D01*
X160732814Y-115396277D01*
X160729340Y-115392459D01*
X160729333Y-115392450D01*
X160585235Y-115234088D01*
X160554183Y-115170242D01*
X160562579Y-115099744D01*
X160607756Y-115044976D01*
X160634200Y-115031307D01*
X160740852Y-114991325D01*
X160756449Y-114982786D01*
X160858524Y-114906285D01*
X160871085Y-114893724D01*
X160947586Y-114791649D01*
X160956124Y-114776054D01*
X161001278Y-114655606D01*
X161004905Y-114640351D01*
X161010431Y-114589486D01*
X161010800Y-114582672D01*
X161010800Y-113960115D01*
X161006325Y-113944876D01*
X161004935Y-113943671D01*
X160997252Y-113942000D01*
X158312916Y-113942000D01*
X158297677Y-113946475D01*
X158296472Y-113947865D01*
X158294801Y-113955548D01*
X158294801Y-114582669D01*
X158295171Y-114589490D01*
X158300695Y-114640352D01*
X158304321Y-114655604D01*
X158349476Y-114776054D01*
X158358014Y-114791649D01*
X158434515Y-114893724D01*
X158447076Y-114906285D01*
X158549151Y-114982786D01*
X158564746Y-114991324D01*
X158673627Y-115032142D01*
X158730391Y-115074784D01*
X158755091Y-115141345D01*
X158739883Y-115210694D01*
X158720491Y-115237175D01*
X158621743Y-115340509D01*
X158593429Y-115370138D01*
X158467543Y-115554680D01*
X158449366Y-115593840D01*
X158377155Y-115749406D01*
X158373488Y-115757305D01*
X158313789Y-115972570D01*
X158290051Y-116194695D01*
X145428396Y-116194695D01*
X145413652Y-116015361D01*
X145359231Y-115798702D01*
X145270154Y-115593840D01*
X145148814Y-115406277D01*
X144998470Y-115241051D01*
X144994419Y-115237852D01*
X144994415Y-115237848D01*
X144827214Y-115105800D01*
X144827210Y-115105798D01*
X144823159Y-115102598D01*
X144627589Y-114994638D01*
X144622720Y-114992914D01*
X144622716Y-114992912D01*
X144421887Y-114921795D01*
X144421883Y-114921794D01*
X144417012Y-114920069D01*
X144411919Y-114919162D01*
X144411916Y-114919161D01*
X144202173Y-114881800D01*
X144202167Y-114881799D01*
X144197084Y-114880894D01*
X144123252Y-114879992D01*
X143978881Y-114878228D01*
X143978879Y-114878228D01*
X143973711Y-114878165D01*
X143752891Y-114911955D01*
X143540556Y-114981357D01*
X143510243Y-114997137D01*
X143361085Y-115074784D01*
X143342407Y-115084507D01*
X143338274Y-115087610D01*
X143338271Y-115087612D01*
X143174341Y-115210694D01*
X143163765Y-115218635D01*
X143160193Y-115222373D01*
X143052529Y-115335037D01*
X143009429Y-115380138D01*
X142902001Y-115537621D01*
X142847093Y-115582621D01*
X142776568Y-115590792D01*
X142712821Y-115559538D01*
X142692124Y-115535054D01*
X142611622Y-115410617D01*
X142611620Y-115410614D01*
X142608814Y-115406277D01*
X142458470Y-115241051D01*
X142454419Y-115237852D01*
X142454415Y-115237848D01*
X142287214Y-115105800D01*
X142287210Y-115105798D01*
X142283159Y-115102598D01*
X142087589Y-114994638D01*
X142082720Y-114992914D01*
X142082716Y-114992912D01*
X141881887Y-114921795D01*
X141881883Y-114921794D01*
X141877012Y-114920069D01*
X141871919Y-114919162D01*
X141871916Y-114919161D01*
X141662173Y-114881800D01*
X141662167Y-114881799D01*
X141657084Y-114880894D01*
X141583252Y-114879992D01*
X141438881Y-114878228D01*
X141438879Y-114878228D01*
X141433711Y-114878165D01*
X141212891Y-114911955D01*
X141000556Y-114981357D01*
X140970243Y-114997137D01*
X140821085Y-115074784D01*
X140802407Y-115084507D01*
X140798274Y-115087610D01*
X140798271Y-115087612D01*
X140634341Y-115210694D01*
X140623765Y-115218635D01*
X140567337Y-115277684D01*
X140543083Y-115303064D01*
X140481559Y-115338494D01*
X140410646Y-115335037D01*
X140352860Y-115293791D01*
X140334007Y-115260243D01*
X140292567Y-115149703D01*
X140289415Y-115141295D01*
X140202061Y-115024739D01*
X140085505Y-114937385D01*
X139949116Y-114886255D01*
X139886934Y-114879500D01*
X138090666Y-114879500D01*
X138028484Y-114886255D01*
X137892095Y-114937385D01*
X137775539Y-115024739D01*
X137688185Y-115141295D01*
X137637055Y-115277684D01*
X137630300Y-115339866D01*
X137630300Y-117136134D01*
X121357269Y-117136134D01*
X121351293Y-117125190D01*
X121343832Y-117108855D01*
X121274160Y-116922061D01*
X121269098Y-116904820D01*
X121226722Y-116710020D01*
X121224164Y-116692226D01*
X121212519Y-116529412D01*
X121213606Y-116506645D01*
X121213134Y-116506603D01*
X121213570Y-116501745D01*
X121214376Y-116496952D01*
X121214529Y-116484400D01*
X121210573Y-116456776D01*
X121209300Y-116438914D01*
X121209300Y-115976900D01*
X122223300Y-115976900D01*
X122987300Y-115976900D01*
X124001300Y-115976900D01*
X125527300Y-115976900D01*
X126541300Y-115976900D01*
X128067300Y-115976900D01*
X129081300Y-115976900D01*
X130607300Y-115976900D01*
X131621300Y-115976900D01*
X133147300Y-115976900D01*
X134161300Y-115976900D01*
X135687300Y-115976900D01*
X135687300Y-114450900D01*
X134161300Y-114450900D01*
X134161300Y-115976900D01*
X133147300Y-115976900D01*
X133147300Y-114450900D01*
X131621300Y-114450900D01*
X131621300Y-115976900D01*
X130607300Y-115976900D01*
X130607300Y-114450900D01*
X129081300Y-114450900D01*
X129081300Y-115976900D01*
X128067300Y-115976900D01*
X128067300Y-114450900D01*
X126541300Y-114450900D01*
X126541300Y-115976900D01*
X125527300Y-115976900D01*
X125527300Y-114450900D01*
X124001300Y-114450900D01*
X124001300Y-115976900D01*
X122987300Y-115976900D01*
X122987300Y-114450900D01*
X122223300Y-114450900D01*
X122223300Y-115976900D01*
X121209300Y-115976900D01*
X121209300Y-114016918D01*
X147643717Y-114016918D01*
X147659482Y-114290320D01*
X147660307Y-114294525D01*
X147660308Y-114294533D01*
X147670927Y-114348657D01*
X147712205Y-114559053D01*
X147713592Y-114563103D01*
X147713593Y-114563108D01*
X147799523Y-114814088D01*
X147800912Y-114818144D01*
X147848094Y-114911955D01*
X147902112Y-115019358D01*
X147923960Y-115062799D01*
X147926386Y-115066328D01*
X147926389Y-115066334D01*
X148059660Y-115260243D01*
X148079074Y-115288490D01*
X148081961Y-115291663D01*
X148081962Y-115291664D01*
X148157256Y-115374411D01*
X148263382Y-115491043D01*
X148473475Y-115666707D01*
X148477116Y-115668991D01*
X148701824Y-115809951D01*
X148701828Y-115809953D01*
X148705464Y-115812234D01*
X148773344Y-115842883D01*
X148951145Y-115923164D01*
X148951149Y-115923166D01*
X148955057Y-115924930D01*
X148959177Y-115926150D01*
X148959176Y-115926150D01*
X149213523Y-116001491D01*
X149213527Y-116001492D01*
X149217636Y-116002709D01*
X149221870Y-116003357D01*
X149221875Y-116003358D01*
X149484098Y-116043483D01*
X149484100Y-116043483D01*
X149488340Y-116044132D01*
X149627712Y-116046322D01*
X149757871Y-116048367D01*
X149757877Y-116048367D01*
X149762162Y-116048434D01*
X150034035Y-116015534D01*
X150298927Y-115946041D01*
X150302887Y-115944401D01*
X150302892Y-115944399D01*
X150425432Y-115893641D01*
X150551936Y-115841241D01*
X150788382Y-115703073D01*
X150941939Y-115582669D01*
X152728801Y-115582669D01*
X152729171Y-115589490D01*
X152734695Y-115640352D01*
X152738321Y-115655604D01*
X152783476Y-115776054D01*
X152792014Y-115791649D01*
X152868515Y-115893724D01*
X152881076Y-115906285D01*
X152983151Y-115982786D01*
X152998746Y-115991324D01*
X153119194Y-116036478D01*
X153134449Y-116040105D01*
X153185314Y-116045631D01*
X153192128Y-116046000D01*
X154464685Y-116046000D01*
X154479924Y-116041525D01*
X154481129Y-116040135D01*
X154482800Y-116032452D01*
X154482800Y-116027884D01*
X154990800Y-116027884D01*
X154995275Y-116043123D01*
X154996665Y-116044328D01*
X155004348Y-116045999D01*
X156281469Y-116045999D01*
X156288290Y-116045629D01*
X156339152Y-116040105D01*
X156354404Y-116036479D01*
X156474854Y-115991324D01*
X156490449Y-115982786D01*
X156592524Y-115906285D01*
X156605085Y-115893724D01*
X156681586Y-115791649D01*
X156690124Y-115776054D01*
X156735278Y-115655606D01*
X156738905Y-115640351D01*
X156744431Y-115589486D01*
X156744800Y-115582672D01*
X156744800Y-114310115D01*
X156740325Y-114294876D01*
X156738935Y-114293671D01*
X156731252Y-114292000D01*
X155008915Y-114292000D01*
X154993676Y-114296475D01*
X154992471Y-114297865D01*
X154990800Y-114305548D01*
X154990800Y-116027884D01*
X154482800Y-116027884D01*
X154482800Y-114310115D01*
X154478325Y-114294876D01*
X154476935Y-114293671D01*
X154469252Y-114292000D01*
X152746916Y-114292000D01*
X152731677Y-114296475D01*
X152730472Y-114297865D01*
X152728801Y-114305548D01*
X152728801Y-115582669D01*
X150941939Y-115582669D01*
X151003889Y-115534094D01*
X151045609Y-115491043D01*
X151191486Y-115340509D01*
X151194469Y-115337431D01*
X151197002Y-115333983D01*
X151197006Y-115333978D01*
X151354057Y-115120178D01*
X151356595Y-115116723D01*
X151379366Y-115074784D01*
X151485218Y-114879830D01*
X151485219Y-114879828D01*
X151487268Y-114876054D01*
X151584069Y-114619877D01*
X151645207Y-114352933D01*
X151649029Y-114310115D01*
X151669331Y-114082627D01*
X151669331Y-114082625D01*
X151669551Y-114080161D01*
X151669993Y-114038000D01*
X151668265Y-114012648D01*
X151651659Y-113769055D01*
X151651658Y-113769049D01*
X151651442Y-113765885D01*
X152728800Y-113765885D01*
X152733275Y-113781124D01*
X152734665Y-113782329D01*
X152742348Y-113784000D01*
X154464685Y-113784000D01*
X154479924Y-113779525D01*
X154481129Y-113778135D01*
X154482800Y-113770452D01*
X154482800Y-113765885D01*
X154990800Y-113765885D01*
X154995275Y-113781124D01*
X154996665Y-113782329D01*
X155004348Y-113784000D01*
X156726684Y-113784000D01*
X156741923Y-113779525D01*
X156743128Y-113778135D01*
X156744799Y-113770452D01*
X156744799Y-113415885D01*
X158294800Y-113415885D01*
X158299275Y-113431124D01*
X158300665Y-113432329D01*
X158308348Y-113434000D01*
X159380685Y-113434000D01*
X159395924Y-113429525D01*
X159397129Y-113428135D01*
X159398800Y-113420452D01*
X159398800Y-113415885D01*
X159906800Y-113415885D01*
X159911275Y-113431124D01*
X159912665Y-113432329D01*
X159920348Y-113434000D01*
X160992684Y-113434000D01*
X161007923Y-113429525D01*
X161009128Y-113428135D01*
X161010799Y-113420452D01*
X161010799Y-112793331D01*
X161010429Y-112786510D01*
X161004905Y-112735648D01*
X161001279Y-112720396D01*
X160956124Y-112599946D01*
X160947586Y-112584351D01*
X160871085Y-112482276D01*
X160858524Y-112469715D01*
X160756449Y-112393214D01*
X160740854Y-112384676D01*
X160620406Y-112339522D01*
X160605151Y-112335895D01*
X160554286Y-112330369D01*
X160547472Y-112330000D01*
X159924915Y-112330000D01*
X159909676Y-112334475D01*
X159908471Y-112335865D01*
X159906800Y-112343548D01*
X159906800Y-113415885D01*
X159398800Y-113415885D01*
X159398800Y-112348116D01*
X159394325Y-112332877D01*
X159392935Y-112331672D01*
X159385252Y-112330001D01*
X158758131Y-112330001D01*
X158751310Y-112330371D01*
X158700448Y-112335895D01*
X158685196Y-112339521D01*
X158564746Y-112384676D01*
X158549151Y-112393214D01*
X158447076Y-112469715D01*
X158434515Y-112482276D01*
X158358014Y-112584351D01*
X158349476Y-112599946D01*
X158304322Y-112720394D01*
X158300695Y-112735649D01*
X158295169Y-112786514D01*
X158294800Y-112793328D01*
X158294800Y-113415885D01*
X156744799Y-113415885D01*
X156744799Y-112493331D01*
X156744429Y-112486510D01*
X156738905Y-112435648D01*
X156735279Y-112420396D01*
X156690124Y-112299946D01*
X156681586Y-112284351D01*
X156605085Y-112182276D01*
X156592524Y-112169715D01*
X156490449Y-112093214D01*
X156474854Y-112084676D01*
X156354406Y-112039522D01*
X156339151Y-112035895D01*
X156288286Y-112030369D01*
X156281472Y-112030000D01*
X155008915Y-112030000D01*
X154993676Y-112034475D01*
X154992471Y-112035865D01*
X154990800Y-112043548D01*
X154990800Y-113765885D01*
X154482800Y-113765885D01*
X154482800Y-112048116D01*
X154478325Y-112032877D01*
X154476935Y-112031672D01*
X154469252Y-112030001D01*
X153192131Y-112030001D01*
X153185310Y-112030371D01*
X153134448Y-112035895D01*
X153119196Y-112039521D01*
X152998746Y-112084676D01*
X152983151Y-112093214D01*
X152881076Y-112169715D01*
X152868515Y-112182276D01*
X152792014Y-112284351D01*
X152783476Y-112299946D01*
X152738322Y-112420394D01*
X152734695Y-112435649D01*
X152729169Y-112486514D01*
X152728800Y-112493328D01*
X152728800Y-113765885D01*
X151651442Y-113765885D01*
X151651367Y-113764778D01*
X151595832Y-113496612D01*
X151504417Y-113238465D01*
X151378813Y-112995112D01*
X151368840Y-112980921D01*
X151232208Y-112786514D01*
X151221345Y-112771057D01*
X151062339Y-112599946D01*
X151037846Y-112573588D01*
X151037843Y-112573585D01*
X151034925Y-112570445D01*
X151031610Y-112567731D01*
X151031606Y-112567728D01*
X150826323Y-112399706D01*
X150823005Y-112396990D01*
X150589504Y-112253901D01*
X150585568Y-112252173D01*
X150342673Y-112145549D01*
X150342669Y-112145548D01*
X150338745Y-112143825D01*
X150075366Y-112068800D01*
X150071124Y-112068196D01*
X150071118Y-112068195D01*
X149844166Y-112035895D01*
X149804243Y-112030213D01*
X149660389Y-112029460D01*
X149534677Y-112028802D01*
X149534671Y-112028802D01*
X149530391Y-112028780D01*
X149526147Y-112029339D01*
X149526143Y-112029339D01*
X149418216Y-112043548D01*
X149258878Y-112064525D01*
X149254738Y-112065658D01*
X149254736Y-112065658D01*
X149185218Y-112084676D01*
X148994728Y-112136788D01*
X148990780Y-112138472D01*
X148746782Y-112242546D01*
X148746778Y-112242548D01*
X148742830Y-112244232D01*
X148722925Y-112256145D01*
X148511525Y-112382664D01*
X148511521Y-112382667D01*
X148507843Y-112384868D01*
X148294118Y-112556094D01*
X148277517Y-112573588D01*
X148123727Y-112735649D01*
X148105608Y-112754742D01*
X147945802Y-112977136D01*
X147817657Y-113219161D01*
X147816185Y-113223184D01*
X147816183Y-113223188D01*
X147740674Y-113429525D01*
X147723543Y-113476337D01*
X147665204Y-113743907D01*
X147643717Y-114016918D01*
X121209300Y-114016918D01*
X121209300Y-113436900D01*
X122223300Y-113436900D01*
X122987300Y-113436900D01*
X124001300Y-113436900D01*
X125527300Y-113436900D01*
X126541300Y-113436900D01*
X128067300Y-113436900D01*
X129081300Y-113436900D01*
X130607300Y-113436900D01*
X131621300Y-113436900D01*
X133147300Y-113436900D01*
X134161300Y-113436900D01*
X135687300Y-113436900D01*
X136701300Y-113436900D01*
X138227300Y-113436900D01*
X139241300Y-113436900D01*
X140767300Y-113436900D01*
X141781300Y-113436900D01*
X143307300Y-113436900D01*
X144321300Y-113436900D01*
X145847300Y-113436900D01*
X145847300Y-111910900D01*
X144321300Y-111910900D01*
X144321300Y-113436900D01*
X143307300Y-113436900D01*
X143307300Y-111910900D01*
X141781300Y-111910900D01*
X141781300Y-113436900D01*
X140767300Y-113436900D01*
X140767300Y-111910900D01*
X139241300Y-111910900D01*
X139241300Y-113436900D01*
X138227300Y-113436900D01*
X138227300Y-111910900D01*
X136701300Y-111910900D01*
X136701300Y-113436900D01*
X135687300Y-113436900D01*
X135687300Y-111910900D01*
X134161300Y-111910900D01*
X134161300Y-113436900D01*
X133147300Y-113436900D01*
X133147300Y-111910900D01*
X131621300Y-111910900D01*
X131621300Y-113436900D01*
X130607300Y-113436900D01*
X130607300Y-111910900D01*
X129081300Y-111910900D01*
X129081300Y-113436900D01*
X128067300Y-113436900D01*
X128067300Y-111910900D01*
X126541300Y-111910900D01*
X126541300Y-113436900D01*
X125527300Y-113436900D01*
X125527300Y-111910900D01*
X124001300Y-111910900D01*
X124001300Y-113436900D01*
X122987300Y-113436900D01*
X122987300Y-111910900D01*
X122223300Y-111910900D01*
X122223300Y-113436900D01*
X121209300Y-113436900D01*
X121209300Y-110896900D01*
X122223300Y-110896900D01*
X122987300Y-110896900D01*
X124001300Y-110896900D01*
X125527300Y-110896900D01*
X126541300Y-110896900D01*
X128067300Y-110896900D01*
X129081300Y-110896900D01*
X130607300Y-110896900D01*
X131621300Y-110896900D01*
X133147300Y-110896900D01*
X134161300Y-110896900D01*
X135687300Y-110896900D01*
X136701300Y-110896900D01*
X138227300Y-110896900D01*
X139241300Y-110896900D01*
X140767300Y-110896900D01*
X141781300Y-110896900D01*
X143307300Y-110896900D01*
X144321300Y-110896900D01*
X145847300Y-110896900D01*
X146861300Y-110896900D01*
X148387300Y-110896900D01*
X149401300Y-110896900D01*
X150927300Y-110896900D01*
X151941300Y-110896900D01*
X153467300Y-110896900D01*
X154481300Y-110896900D01*
X156007300Y-110896900D01*
X156007300Y-109370900D01*
X154481300Y-109370900D01*
X154481300Y-110896900D01*
X153467300Y-110896900D01*
X153467300Y-109370900D01*
X151941300Y-109370900D01*
X151941300Y-110896900D01*
X150927300Y-110896900D01*
X150927300Y-109370900D01*
X149401300Y-109370900D01*
X149401300Y-110896900D01*
X148387300Y-110896900D01*
X148387300Y-109370900D01*
X146861300Y-109370900D01*
X146861300Y-110896900D01*
X145847300Y-110896900D01*
X145847300Y-109370900D01*
X144321300Y-109370900D01*
X144321300Y-110896900D01*
X143307300Y-110896900D01*
X143307300Y-109370900D01*
X141781300Y-109370900D01*
X141781300Y-110896900D01*
X140767300Y-110896900D01*
X140767300Y-109370900D01*
X139241300Y-109370900D01*
X139241300Y-110896900D01*
X138227300Y-110896900D01*
X138227300Y-109370900D01*
X136701300Y-109370900D01*
X136701300Y-110896900D01*
X135687300Y-110896900D01*
X135687300Y-109370900D01*
X134161300Y-109370900D01*
X134161300Y-110896900D01*
X133147300Y-110896900D01*
X133147300Y-109370900D01*
X131621300Y-109370900D01*
X131621300Y-110896900D01*
X130607300Y-110896900D01*
X130607300Y-109370900D01*
X129081300Y-109370900D01*
X129081300Y-110896900D01*
X128067300Y-110896900D01*
X128067300Y-109370900D01*
X126541300Y-109370900D01*
X126541300Y-110896900D01*
X125527300Y-110896900D01*
X125527300Y-109370900D01*
X124001300Y-109370900D01*
X124001300Y-110896900D01*
X122987300Y-110896900D01*
X122987300Y-109370900D01*
X122223300Y-109370900D01*
X122223300Y-110896900D01*
X121209300Y-110896900D01*
X121209300Y-108356900D01*
X122223300Y-108356900D01*
X122987300Y-108356900D01*
X124001300Y-108356900D01*
X125527300Y-108356900D01*
X126541300Y-108356900D01*
X128067300Y-108356900D01*
X129081300Y-108356900D01*
X130607300Y-108356900D01*
X131621300Y-108356900D01*
X133147300Y-108356900D01*
X134161300Y-108356900D01*
X135687300Y-108356900D01*
X136701300Y-108356900D01*
X138227300Y-108356900D01*
X139241300Y-108356900D01*
X140767300Y-108356900D01*
X141781300Y-108356900D01*
X143307300Y-108356900D01*
X144321300Y-108356900D01*
X145847300Y-108356900D01*
X145847300Y-107286189D01*
X146861300Y-107286189D01*
X146861300Y-108356900D01*
X148387300Y-108356900D01*
X149401300Y-108356900D01*
X150927300Y-108356900D01*
X151941300Y-108356900D01*
X153467300Y-108356900D01*
X153467300Y-107285637D01*
X154481300Y-107285637D01*
X154481300Y-108356900D01*
X156007300Y-108356900D01*
X156007300Y-107472533D01*
X155971815Y-107482041D01*
X155966473Y-107483348D01*
X155901566Y-107497737D01*
X155896175Y-107498809D01*
X155874544Y-107502623D01*
X155869111Y-107503459D01*
X155803207Y-107512135D01*
X155797742Y-107512734D01*
X155587174Y-107531156D01*
X155581690Y-107531515D01*
X155515278Y-107534415D01*
X155509781Y-107534535D01*
X155487819Y-107534535D01*
X155482322Y-107534415D01*
X155415910Y-107531515D01*
X155410426Y-107531156D01*
X155199858Y-107512734D01*
X155194393Y-107512135D01*
X155128489Y-107503459D01*
X155123056Y-107502623D01*
X155101425Y-107498809D01*
X155096034Y-107497737D01*
X155031127Y-107483348D01*
X155025785Y-107482041D01*
X154821615Y-107427333D01*
X154816335Y-107425793D01*
X154752916Y-107405795D01*
X154747710Y-107404028D01*
X154727073Y-107396516D01*
X154721952Y-107394525D01*
X154660562Y-107369096D01*
X154655532Y-107366882D01*
X154481300Y-107285637D01*
X153467300Y-107285637D01*
X153467300Y-106830900D01*
X151941300Y-106830900D01*
X151941300Y-108356900D01*
X150927300Y-108356900D01*
X150927300Y-106830900D01*
X149499387Y-106830900D01*
X149401300Y-106928987D01*
X149401300Y-108356900D01*
X148387300Y-108356900D01*
X148387300Y-107473049D01*
X148351897Y-107482535D01*
X148346558Y-107483841D01*
X148281665Y-107498228D01*
X148276274Y-107499301D01*
X148254645Y-107503115D01*
X148249211Y-107503951D01*
X148183297Y-107512629D01*
X148177832Y-107513228D01*
X147967177Y-107531658D01*
X147961692Y-107532017D01*
X147895279Y-107534917D01*
X147889782Y-107535037D01*
X147867818Y-107535037D01*
X147862321Y-107534917D01*
X147795908Y-107532017D01*
X147790423Y-107531658D01*
X147579768Y-107513228D01*
X147574303Y-107512629D01*
X147508389Y-107503951D01*
X147502955Y-107503115D01*
X147481326Y-107499301D01*
X147475935Y-107498228D01*
X147411042Y-107483841D01*
X147405703Y-107482535D01*
X147201448Y-107427805D01*
X147196172Y-107426267D01*
X147132772Y-107406278D01*
X147127564Y-107404510D01*
X147106925Y-107396998D01*
X147101800Y-107395005D01*
X147040385Y-107369565D01*
X147035355Y-107367352D01*
X146861300Y-107286189D01*
X145847300Y-107286189D01*
X145847300Y-106830900D01*
X144321300Y-106830900D01*
X144321300Y-108356900D01*
X143307300Y-108356900D01*
X143307300Y-106830900D01*
X141781300Y-106830900D01*
X141781300Y-108356900D01*
X140767300Y-108356900D01*
X140767300Y-106830900D01*
X139241300Y-106830900D01*
X139241300Y-108356900D01*
X138227300Y-108356900D01*
X138227300Y-106830900D01*
X136701300Y-106830900D01*
X136701300Y-108356900D01*
X135687300Y-108356900D01*
X135687300Y-107039530D01*
X135596936Y-107055117D01*
X135589126Y-107056214D01*
X135526944Y-107062969D01*
X135523552Y-107063291D01*
X135482467Y-107066633D01*
X135479065Y-107066864D01*
X135465457Y-107067601D01*
X135462051Y-107067739D01*
X135420842Y-107068854D01*
X135417434Y-107068900D01*
X134161300Y-107068900D01*
X134161300Y-108356900D01*
X133147300Y-108356900D01*
X133147300Y-107039702D01*
X133142691Y-107038907D01*
X133134963Y-107037324D01*
X133104341Y-107030043D01*
X133096726Y-107027978D01*
X133005510Y-107000155D01*
X132998041Y-106997619D01*
X132861652Y-106946489D01*
X132853380Y-106943047D01*
X132770854Y-106905219D01*
X132764802Y-106907476D01*
X132759925Y-106909182D01*
X132531568Y-106983820D01*
X132526624Y-106985325D01*
X132466476Y-107002288D01*
X132461474Y-107003588D01*
X132441388Y-107008373D01*
X132436337Y-107009467D01*
X132375013Y-107021442D01*
X132369924Y-107022328D01*
X132132443Y-107058668D01*
X132127322Y-107059345D01*
X132065238Y-107066255D01*
X132060093Y-107066721D01*
X132039495Y-107068162D01*
X132034332Y-107068417D01*
X131971845Y-107070218D01*
X131966676Y-107070261D01*
X131726450Y-107067326D01*
X131721282Y-107067156D01*
X131658852Y-107063828D01*
X131653697Y-107063447D01*
X131633140Y-107061503D01*
X131628009Y-107060912D01*
X131621300Y-107059999D01*
X131621300Y-108356900D01*
X130607300Y-108356900D01*
X130607300Y-106830900D01*
X130399789Y-106830900D01*
X130373116Y-106844785D01*
X130368486Y-106847076D01*
X130311919Y-106873635D01*
X130307196Y-106875736D01*
X130288160Y-106883738D01*
X130283356Y-106885642D01*
X130224803Y-106907476D01*
X130219925Y-106909182D01*
X129991568Y-106983820D01*
X129986624Y-106985325D01*
X129926476Y-107002288D01*
X129921474Y-107003588D01*
X129901388Y-107008373D01*
X129896337Y-107009467D01*
X129835013Y-107021442D01*
X129829924Y-107022328D01*
X129592443Y-107058668D01*
X129587322Y-107059345D01*
X129525238Y-107066255D01*
X129520093Y-107066721D01*
X129499495Y-107068162D01*
X129494332Y-107068417D01*
X129431845Y-107070218D01*
X129426676Y-107070261D01*
X129186450Y-107067326D01*
X129181282Y-107067156D01*
X129118852Y-107063828D01*
X129113697Y-107063447D01*
X129093140Y-107061503D01*
X129088009Y-107060912D01*
X129081300Y-107059999D01*
X129081300Y-108356900D01*
X128067300Y-108356900D01*
X128067300Y-106830900D01*
X126541300Y-106830900D01*
X126541300Y-108356900D01*
X125527300Y-108356900D01*
X125527300Y-106830900D01*
X124001300Y-106830900D01*
X124001300Y-108356900D01*
X122987300Y-108356900D01*
X122987300Y-106830900D01*
X122223300Y-106830900D01*
X122223300Y-108356900D01*
X121209300Y-108356900D01*
X121209300Y-105816900D01*
X122223300Y-105816900D01*
X122987300Y-105816900D01*
X124001300Y-105816900D01*
X125527300Y-105816900D01*
X126541300Y-105816900D01*
X127181181Y-105816900D01*
X127158954Y-105779241D01*
X127156420Y-105774739D01*
X127146662Y-105756541D01*
X127144313Y-105751937D01*
X127117061Y-105695690D01*
X127114903Y-105690993D01*
X127019106Y-105470674D01*
X127017144Y-105465894D01*
X126994597Y-105407614D01*
X126992831Y-105402757D01*
X126986177Y-105383211D01*
X126984613Y-105378287D01*
X126966918Y-105318358D01*
X126965556Y-105313373D01*
X126907028Y-105080366D01*
X126905872Y-105075326D01*
X126893143Y-105014123D01*
X126892194Y-105009043D01*
X126888822Y-104988671D01*
X126888084Y-104983559D01*
X126880417Y-104921561D01*
X126879888Y-104916421D01*
X126865210Y-104737886D01*
X126865024Y-104735309D01*
X126863104Y-104704141D01*
X126862972Y-104701564D01*
X126862548Y-104691240D01*
X126862469Y-104688657D01*
X126861827Y-104657389D01*
X126861800Y-104654802D01*
X127875800Y-104654802D01*
X127876012Y-104657375D01*
X127876012Y-104657386D01*
X127882419Y-104735309D01*
X127890478Y-104833337D01*
X127949006Y-105066344D01*
X127965079Y-105103309D01*
X128015829Y-105220026D01*
X128044803Y-105286663D01*
X128112491Y-105391292D01*
X128169555Y-105479499D01*
X128175298Y-105488377D01*
X128336986Y-105666070D01*
X128387387Y-105705874D01*
X128521470Y-105811767D01*
X128521475Y-105811770D01*
X128525524Y-105814968D01*
X128530040Y-105817461D01*
X128530043Y-105817463D01*
X128731326Y-105928577D01*
X128731330Y-105928579D01*
X128735850Y-105931074D01*
X128740719Y-105932798D01*
X128740723Y-105932800D01*
X128957440Y-106009544D01*
X128957444Y-106009545D01*
X128962315Y-106011270D01*
X128967408Y-106012177D01*
X128967411Y-106012178D01*
X129193748Y-106052495D01*
X129193754Y-106052496D01*
X129198837Y-106053401D01*
X129286200Y-106054468D01*
X129433893Y-106056273D01*
X129433895Y-106056273D01*
X129439063Y-106056336D01*
X129676544Y-106019996D01*
X129788797Y-105983306D01*
X129899983Y-105946966D01*
X129899989Y-105946963D01*
X129904901Y-105945358D01*
X129909487Y-105942971D01*
X129909491Y-105942969D01*
X130113407Y-105836816D01*
X130118000Y-105834425D01*
X130195604Y-105776158D01*
X130305985Y-105693282D01*
X130305988Y-105693280D01*
X130310120Y-105690177D01*
X130476101Y-105516488D01*
X130501335Y-105479497D01*
X130556244Y-105434496D01*
X130626768Y-105426325D01*
X130690516Y-105457579D01*
X130711211Y-105482060D01*
X130715298Y-105488377D01*
X130876986Y-105666070D01*
X130927387Y-105705874D01*
X131061470Y-105811767D01*
X131061475Y-105811770D01*
X131065524Y-105814968D01*
X131070040Y-105817461D01*
X131070043Y-105817463D01*
X131271326Y-105928577D01*
X131271330Y-105928579D01*
X131275850Y-105931074D01*
X131280719Y-105932798D01*
X131280723Y-105932800D01*
X131497440Y-106009544D01*
X131497444Y-106009545D01*
X131502315Y-106011270D01*
X131507408Y-106012177D01*
X131507411Y-106012178D01*
X131733748Y-106052495D01*
X131733754Y-106052496D01*
X131738837Y-106053401D01*
X131826200Y-106054468D01*
X131973893Y-106056273D01*
X131973895Y-106056273D01*
X131979063Y-106056336D01*
X132216544Y-106019996D01*
X132328797Y-105983306D01*
X132439983Y-105946966D01*
X132439989Y-105946963D01*
X132444901Y-105945358D01*
X132449487Y-105942971D01*
X132449491Y-105942969D01*
X132653407Y-105836816D01*
X132658000Y-105834425D01*
X132813083Y-105717985D01*
X132879565Y-105693080D01*
X132948961Y-105708072D01*
X132999235Y-105758202D01*
X133006715Y-105774515D01*
X133009333Y-105781497D01*
X133013685Y-105793105D01*
X133101039Y-105909661D01*
X133217595Y-105997015D01*
X133353984Y-106048145D01*
X133416166Y-106054900D01*
X135417434Y-106054900D01*
X135479616Y-106048145D01*
X135616005Y-105997015D01*
X135732561Y-105909661D01*
X135802082Y-105816900D01*
X136870623Y-105816900D01*
X138227300Y-105816900D01*
X139241300Y-105816900D01*
X140767300Y-105816900D01*
X141781300Y-105816900D01*
X143307300Y-105816900D01*
X144321300Y-105816900D01*
X145714151Y-105816900D01*
X145704665Y-105781497D01*
X145703359Y-105776158D01*
X145688972Y-105711265D01*
X145687899Y-105705874D01*
X145684085Y-105684245D01*
X145683249Y-105678811D01*
X145674571Y-105612897D01*
X145673972Y-105607432D01*
X145655542Y-105396777D01*
X145655183Y-105391292D01*
X145652283Y-105324879D01*
X145652163Y-105319382D01*
X145652163Y-105308400D01*
X146665684Y-105308400D01*
X146684114Y-105519055D01*
X146685538Y-105524368D01*
X146685538Y-105524370D01*
X146735617Y-105711265D01*
X146738844Y-105723310D01*
X146741166Y-105728291D01*
X146741167Y-105728292D01*
X146789208Y-105831315D01*
X146828211Y-105914958D01*
X146949499Y-106088176D01*
X147099024Y-106237701D01*
X147272242Y-106358989D01*
X147277220Y-106361310D01*
X147277223Y-106361312D01*
X147457892Y-106445559D01*
X147463890Y-106448356D01*
X147469198Y-106449778D01*
X147469200Y-106449779D01*
X147662830Y-106501662D01*
X147662832Y-106501662D01*
X147668145Y-106503086D01*
X147878800Y-106521516D01*
X148089455Y-106503086D01*
X148094768Y-106501662D01*
X148094770Y-106501662D01*
X148288400Y-106449779D01*
X148288402Y-106449778D01*
X148293710Y-106448356D01*
X148299708Y-106445559D01*
X148480377Y-106361312D01*
X148480380Y-106361310D01*
X148485358Y-106358989D01*
X148537240Y-106322661D01*
X154849094Y-106322661D01*
X154858390Y-106334676D01*
X154887989Y-106355401D01*
X154897477Y-106360879D01*
X155079077Y-106445559D01*
X155089371Y-106449307D01*
X155282922Y-106501169D01*
X155293709Y-106503071D01*
X155493325Y-106520535D01*
X155504275Y-106520535D01*
X155703891Y-106503071D01*
X155714678Y-106501169D01*
X155908229Y-106449307D01*
X155918523Y-106445559D01*
X156100123Y-106360879D01*
X156109611Y-106355401D01*
X156140048Y-106334089D01*
X156148423Y-106323612D01*
X156141354Y-106310164D01*
X155511612Y-105680422D01*
X155497668Y-105672808D01*
X155495835Y-105672939D01*
X155489220Y-105677190D01*
X154855524Y-106310886D01*
X154849094Y-106322661D01*
X148537240Y-106322661D01*
X148658576Y-106237701D01*
X148808101Y-106088176D01*
X148929389Y-105914958D01*
X148968393Y-105831315D01*
X149016433Y-105728292D01*
X149016434Y-105728291D01*
X149018756Y-105723310D01*
X149021984Y-105711265D01*
X149072062Y-105524370D01*
X149072062Y-105524368D01*
X149073486Y-105519055D01*
X149091916Y-105308400D01*
X149073486Y-105097745D01*
X149049830Y-105009458D01*
X149020179Y-104898800D01*
X149020178Y-104898798D01*
X149018756Y-104893490D01*
X148929389Y-104701842D01*
X148808101Y-104528624D01*
X148658576Y-104379099D01*
X148532614Y-104290900D01*
X149856589Y-104290900D01*
X149937752Y-104464955D01*
X149939965Y-104469985D01*
X149965405Y-104531400D01*
X149967398Y-104536525D01*
X149974910Y-104557164D01*
X149976678Y-104562372D01*
X149996667Y-104625772D01*
X149998205Y-104631048D01*
X150052935Y-104835303D01*
X150054241Y-104840642D01*
X150068628Y-104905535D01*
X150069701Y-104910926D01*
X150073515Y-104932555D01*
X150074351Y-104937989D01*
X150083029Y-105003903D01*
X150083628Y-105009368D01*
X150102058Y-105220023D01*
X150102417Y-105225508D01*
X150105317Y-105291921D01*
X150105437Y-105297418D01*
X150105437Y-105319382D01*
X150105317Y-105324879D01*
X150102417Y-105391292D01*
X150102058Y-105396777D01*
X150083628Y-105607432D01*
X150083029Y-105612897D01*
X150074351Y-105678811D01*
X150073515Y-105684245D01*
X150069701Y-105705874D01*
X150068628Y-105711265D01*
X150054241Y-105776158D01*
X150052935Y-105781497D01*
X150043449Y-105816900D01*
X150927300Y-105816900D01*
X151941300Y-105816900D01*
X153334667Y-105816900D01*
X153325159Y-105781415D01*
X153323852Y-105776073D01*
X153309463Y-105711166D01*
X153308391Y-105705775D01*
X153304577Y-105684144D01*
X153303741Y-105678711D01*
X153295065Y-105612807D01*
X153294466Y-105607342D01*
X153276044Y-105396774D01*
X153275685Y-105391290D01*
X153272785Y-105324878D01*
X153272665Y-105319381D01*
X153272665Y-105313875D01*
X154286665Y-105313875D01*
X154304129Y-105513491D01*
X154306031Y-105524278D01*
X154357893Y-105717829D01*
X154361641Y-105728123D01*
X154446321Y-105909723D01*
X154451799Y-105919211D01*
X154473111Y-105949648D01*
X154483588Y-105958023D01*
X154497036Y-105950954D01*
X155126778Y-105321212D01*
X155133156Y-105309532D01*
X155863208Y-105309532D01*
X155863339Y-105311365D01*
X155867590Y-105317980D01*
X156501286Y-105951676D01*
X156513061Y-105958106D01*
X156525076Y-105948810D01*
X156545801Y-105919211D01*
X156551279Y-105909723D01*
X156635959Y-105728123D01*
X156639707Y-105717829D01*
X156691569Y-105524278D01*
X156693471Y-105513491D01*
X156710935Y-105313875D01*
X156710935Y-105302925D01*
X156693471Y-105103309D01*
X156691569Y-105092522D01*
X156639707Y-104898971D01*
X156635959Y-104888677D01*
X156551279Y-104707077D01*
X156545801Y-104697589D01*
X156524489Y-104667152D01*
X156514012Y-104658777D01*
X156500564Y-104665846D01*
X155870822Y-105295588D01*
X155863208Y-105309532D01*
X155133156Y-105309532D01*
X155134392Y-105307268D01*
X155134261Y-105305435D01*
X155130010Y-105298820D01*
X154496314Y-104665124D01*
X154484539Y-104658694D01*
X154472524Y-104667990D01*
X154451799Y-104697589D01*
X154446321Y-104707077D01*
X154361641Y-104888677D01*
X154357893Y-104898971D01*
X154306031Y-105092522D01*
X154304129Y-105103309D01*
X154286665Y-105302925D01*
X154286665Y-105313875D01*
X153272665Y-105313875D01*
X153272665Y-105297419D01*
X153272785Y-105291922D01*
X153275685Y-105225510D01*
X153276044Y-105220026D01*
X153294466Y-105009458D01*
X153295065Y-105003993D01*
X153303741Y-104938089D01*
X153304577Y-104932656D01*
X153308391Y-104911025D01*
X153309463Y-104905634D01*
X153323852Y-104840727D01*
X153325159Y-104835385D01*
X153379867Y-104631215D01*
X153381407Y-104625935D01*
X153401405Y-104562516D01*
X153403172Y-104557310D01*
X153410684Y-104536673D01*
X153412675Y-104531552D01*
X153438104Y-104470162D01*
X153440318Y-104465132D01*
X153467300Y-104407268D01*
X153467300Y-104293188D01*
X154849177Y-104293188D01*
X154856246Y-104306636D01*
X155485988Y-104936378D01*
X155499932Y-104943992D01*
X155501765Y-104943861D01*
X155508380Y-104939610D01*
X156142076Y-104305914D01*
X156148506Y-104294139D01*
X156139210Y-104282124D01*
X156109611Y-104261399D01*
X156100123Y-104255921D01*
X155918523Y-104171241D01*
X155908229Y-104167493D01*
X155714678Y-104115631D01*
X155703891Y-104113729D01*
X155504275Y-104096265D01*
X155493325Y-104096265D01*
X155293709Y-104113729D01*
X155282922Y-104115631D01*
X155089371Y-104167493D01*
X155079077Y-104171241D01*
X154897477Y-104255921D01*
X154887989Y-104261399D01*
X154857552Y-104282711D01*
X154849177Y-104293188D01*
X153467300Y-104293188D01*
X153467300Y-104290900D01*
X151941300Y-104290900D01*
X151941300Y-105816900D01*
X150927300Y-105816900D01*
X150927300Y-104290900D01*
X149856589Y-104290900D01*
X148532614Y-104290900D01*
X148485358Y-104257811D01*
X148480380Y-104255490D01*
X148480377Y-104255488D01*
X148298692Y-104170767D01*
X148298691Y-104170766D01*
X148293710Y-104168444D01*
X148288402Y-104167022D01*
X148288400Y-104167021D01*
X148094770Y-104115138D01*
X148094768Y-104115138D01*
X148089455Y-104113714D01*
X147878800Y-104095284D01*
X147668145Y-104113714D01*
X147662832Y-104115138D01*
X147662830Y-104115138D01*
X147469200Y-104167021D01*
X147469198Y-104167022D01*
X147463890Y-104168444D01*
X147458909Y-104170766D01*
X147458908Y-104170767D01*
X147277223Y-104255488D01*
X147277220Y-104255490D01*
X147272242Y-104257811D01*
X147099024Y-104379099D01*
X146949499Y-104528624D01*
X146828211Y-104701842D01*
X146738844Y-104893490D01*
X146737422Y-104898798D01*
X146737421Y-104898800D01*
X146707770Y-105009458D01*
X146684114Y-105097745D01*
X146665684Y-105308400D01*
X145652163Y-105308400D01*
X145652163Y-105297418D01*
X145652283Y-105291921D01*
X145655183Y-105225508D01*
X145655542Y-105220023D01*
X145673972Y-105009368D01*
X145674571Y-105003903D01*
X145683249Y-104937989D01*
X145684085Y-104932555D01*
X145687899Y-104910926D01*
X145688972Y-104905535D01*
X145703359Y-104840642D01*
X145704665Y-104835303D01*
X145759395Y-104631048D01*
X145760933Y-104625772D01*
X145780922Y-104562372D01*
X145782690Y-104557164D01*
X145790202Y-104536525D01*
X145792195Y-104531400D01*
X145817635Y-104469985D01*
X145819848Y-104464955D01*
X145847300Y-104406084D01*
X145847300Y-104290900D01*
X144321300Y-104290900D01*
X144321300Y-105816900D01*
X143307300Y-105816900D01*
X143307300Y-104290900D01*
X141781300Y-104290900D01*
X141781300Y-105816900D01*
X140767300Y-105816900D01*
X140767300Y-104290900D01*
X139241300Y-104290900D01*
X139241300Y-105816900D01*
X138227300Y-105816900D01*
X138227300Y-104290900D01*
X136891800Y-104290900D01*
X136891800Y-105594534D01*
X136891754Y-105597942D01*
X136890639Y-105639151D01*
X136890501Y-105642557D01*
X136889764Y-105656165D01*
X136889533Y-105659567D01*
X136886191Y-105700652D01*
X136885869Y-105704044D01*
X136879114Y-105766226D01*
X136878017Y-105774036D01*
X136870623Y-105816900D01*
X135802082Y-105816900D01*
X135819915Y-105793105D01*
X135871045Y-105656716D01*
X135877800Y-105594534D01*
X135877800Y-103498266D01*
X135871045Y-103436084D01*
X135819915Y-103299695D01*
X135732561Y-103183139D01*
X135616005Y-103095785D01*
X135479616Y-103044655D01*
X135417434Y-103037900D01*
X133416166Y-103037900D01*
X133353984Y-103044655D01*
X133217595Y-103095785D01*
X133101039Y-103183139D01*
X133013685Y-103299695D01*
X133006227Y-103319589D01*
X132963587Y-103376353D01*
X132897026Y-103401054D01*
X132827677Y-103385847D01*
X132810153Y-103374242D01*
X132692130Y-103281033D01*
X132692125Y-103281030D01*
X132688076Y-103277832D01*
X132683560Y-103275339D01*
X132683557Y-103275337D01*
X132482274Y-103164223D01*
X132482270Y-103164221D01*
X132477750Y-103161726D01*
X132472881Y-103160002D01*
X132472877Y-103160000D01*
X132256160Y-103083256D01*
X132256156Y-103083255D01*
X132251285Y-103081530D01*
X132246192Y-103080623D01*
X132246189Y-103080622D01*
X132019852Y-103040305D01*
X132019846Y-103040304D01*
X132014763Y-103039399D01*
X131922274Y-103038269D01*
X131779707Y-103036527D01*
X131779705Y-103036527D01*
X131774537Y-103036464D01*
X131537056Y-103072804D01*
X131424803Y-103109494D01*
X131313617Y-103145834D01*
X131313611Y-103145837D01*
X131308699Y-103147442D01*
X131304113Y-103149829D01*
X131304109Y-103149831D01*
X131201282Y-103203360D01*
X131095600Y-103258375D01*
X130903480Y-103402623D01*
X130737499Y-103576312D01*
X130712265Y-103613303D01*
X130657356Y-103658304D01*
X130586832Y-103666475D01*
X130523084Y-103635221D01*
X130502389Y-103610740D01*
X130501111Y-103608765D01*
X130498302Y-103604423D01*
X130336614Y-103426730D01*
X130259783Y-103366053D01*
X130152130Y-103281033D01*
X130152125Y-103281030D01*
X130148076Y-103277832D01*
X130143560Y-103275339D01*
X130143557Y-103275337D01*
X129942274Y-103164223D01*
X129942270Y-103164221D01*
X129937750Y-103161726D01*
X129932881Y-103160002D01*
X129932877Y-103160000D01*
X129716160Y-103083256D01*
X129716156Y-103083255D01*
X129711285Y-103081530D01*
X129706192Y-103080623D01*
X129706189Y-103080622D01*
X129479852Y-103040305D01*
X129479846Y-103040304D01*
X129474763Y-103039399D01*
X129382274Y-103038269D01*
X129239707Y-103036527D01*
X129239705Y-103036527D01*
X129234537Y-103036464D01*
X128997056Y-103072804D01*
X128884803Y-103109494D01*
X128773617Y-103145834D01*
X128773611Y-103145837D01*
X128768699Y-103147442D01*
X128764113Y-103149829D01*
X128764109Y-103149831D01*
X128661282Y-103203360D01*
X128555600Y-103258375D01*
X128363480Y-103402623D01*
X128197499Y-103576312D01*
X128194585Y-103580584D01*
X128065397Y-103769966D01*
X128062114Y-103774778D01*
X127960963Y-103992690D01*
X127896760Y-104224198D01*
X127896211Y-104229335D01*
X127877196Y-104407268D01*
X127875800Y-104420328D01*
X127875800Y-104654802D01*
X126861800Y-104654802D01*
X126861800Y-104420328D01*
X126861845Y-104416977D01*
X126862923Y-104376456D01*
X126863056Y-104373107D01*
X126863769Y-104359718D01*
X126863992Y-104356370D01*
X126867228Y-104315919D01*
X126867540Y-104312578D01*
X126869857Y-104290900D01*
X126541300Y-104290900D01*
X126541300Y-105816900D01*
X125527300Y-105816900D01*
X125527300Y-104290900D01*
X124001300Y-104290900D01*
X124001300Y-105816900D01*
X122987300Y-105816900D01*
X122987300Y-104290900D01*
X122223300Y-104290900D01*
X122223300Y-105816900D01*
X121209300Y-105816900D01*
X121209300Y-103276900D01*
X122223300Y-103276900D01*
X122987300Y-103276900D01*
X124001300Y-103276900D01*
X125527300Y-103276900D01*
X126541300Y-103276900D01*
X127179241Y-103276900D01*
X127185917Y-103265148D01*
X127188561Y-103260707D01*
X127221628Y-103207687D01*
X127224452Y-103203360D01*
X127359837Y-103004894D01*
X127362835Y-103000687D01*
X127400139Y-102950548D01*
X127403309Y-102946465D01*
X127416303Y-102930419D01*
X127419637Y-102926471D01*
X127460918Y-102879565D01*
X127464410Y-102875757D01*
X127536127Y-102800710D01*
X136701300Y-102800710D01*
X136716797Y-102829015D01*
X136720817Y-102837023D01*
X136765947Y-102935480D01*
X136769389Y-102943752D01*
X136820519Y-103080141D01*
X136823055Y-103087610D01*
X136850878Y-103178826D01*
X136852943Y-103186441D01*
X136860224Y-103217063D01*
X136861807Y-103224791D01*
X136870796Y-103276900D01*
X138227300Y-103276900D01*
X139241300Y-103276900D01*
X140767300Y-103276900D01*
X141781300Y-103276900D01*
X143307300Y-103276900D01*
X144321300Y-103276900D01*
X145847300Y-103276900D01*
X149401300Y-103276900D01*
X150927300Y-103276900D01*
X151941300Y-103276900D01*
X153467300Y-103276900D01*
X153467300Y-101750900D01*
X151941300Y-101750900D01*
X151941300Y-103276900D01*
X150927300Y-103276900D01*
X150927300Y-101750900D01*
X149857988Y-101750900D01*
X149848385Y-101771493D01*
X149845953Y-101776425D01*
X149815246Y-101835411D01*
X149812600Y-101840232D01*
X149801618Y-101859252D01*
X149798768Y-101863950D01*
X149763064Y-101919993D01*
X149760010Y-101924562D01*
X149638722Y-102097780D01*
X149635471Y-102102215D01*
X149594999Y-102154958D01*
X149591558Y-102159245D01*
X149577440Y-102176070D01*
X149573816Y-102180203D01*
X149528908Y-102229211D01*
X149525106Y-102233181D01*
X149401300Y-102356987D01*
X149401300Y-103276900D01*
X145847300Y-103276900D01*
X145847300Y-101750900D01*
X144321300Y-101750900D01*
X144321300Y-103276900D01*
X143307300Y-103276900D01*
X143307300Y-101750900D01*
X141781300Y-101750900D01*
X141781300Y-103276900D01*
X140767300Y-103276900D01*
X140767300Y-101750900D01*
X139241300Y-101750900D01*
X139241300Y-103276900D01*
X138227300Y-103276900D01*
X138227300Y-101750900D01*
X136701300Y-101750900D01*
X136701300Y-102800710D01*
X127536127Y-102800710D01*
X127630391Y-102702068D01*
X127634039Y-102698404D01*
X127679032Y-102655032D01*
X127682824Y-102651524D01*
X127698265Y-102637815D01*
X127702198Y-102634465D01*
X127750585Y-102594931D01*
X127754653Y-102591744D01*
X127946773Y-102447496D01*
X127950967Y-102444479D01*
X128002428Y-102409044D01*
X128006743Y-102406201D01*
X128024215Y-102395198D01*
X128028645Y-102392534D01*
X128067300Y-102370351D01*
X128067300Y-102034113D01*
X129081300Y-102034113D01*
X129086278Y-102033455D01*
X129148362Y-102026545D01*
X129153507Y-102026079D01*
X129174105Y-102024638D01*
X129179268Y-102024383D01*
X129241755Y-102022582D01*
X129246924Y-102022539D01*
X129487150Y-102025474D01*
X129492318Y-102025644D01*
X129554748Y-102028972D01*
X129559903Y-102029353D01*
X129580460Y-102031297D01*
X129585591Y-102031888D01*
X129647481Y-102040312D01*
X129652584Y-102041114D01*
X129889106Y-102083245D01*
X129894171Y-102084254D01*
X129955167Y-102097719D01*
X129960188Y-102098936D01*
X129980152Y-102104210D01*
X129985123Y-102105633D01*
X130044860Y-102124067D01*
X130049767Y-102125692D01*
X130276232Y-102205888D01*
X130281065Y-102207712D01*
X130339054Y-102230964D01*
X130343810Y-102232985D01*
X130362644Y-102241449D01*
X130367313Y-102243664D01*
X130423223Y-102271600D01*
X130427799Y-102274004D01*
X130604864Y-102371749D01*
X130607300Y-102370351D01*
X130607300Y-101792268D01*
X130588517Y-101776423D01*
X130584515Y-101772899D01*
X130560571Y-101750900D01*
X129081300Y-101750900D01*
X129081300Y-102034113D01*
X128067300Y-102034113D01*
X128067300Y-101750900D01*
X126541300Y-101750900D01*
X126541300Y-103276900D01*
X125527300Y-103276900D01*
X125527300Y-101750900D01*
X124001300Y-101750900D01*
X124001300Y-103276900D01*
X122987300Y-103276900D01*
X122987300Y-101750900D01*
X122223300Y-101750900D01*
X122223300Y-103276900D01*
X121209300Y-103276900D01*
X121209300Y-100736900D01*
X122223300Y-100736900D01*
X122987300Y-100736900D01*
X124001300Y-100736900D01*
X125527300Y-100736900D01*
X126541300Y-100736900D01*
X128067300Y-100736900D01*
X129081300Y-100736900D01*
X129933103Y-100736900D01*
X129918622Y-100693176D01*
X129917053Y-100688081D01*
X129911216Y-100667591D01*
X129909864Y-100662432D01*
X129894836Y-100599717D01*
X129893703Y-100594506D01*
X129848718Y-100364154D01*
X129847955Y-100359853D01*
X129839631Y-100307672D01*
X129839018Y-100303345D01*
X129836866Y-100286009D01*
X129836402Y-100281661D01*
X129831713Y-100228997D01*
X129831401Y-100224637D01*
X129828283Y-100167062D01*
X129828203Y-100165354D01*
X129827366Y-100144717D01*
X129827308Y-100143012D01*
X129827124Y-100136198D01*
X129827090Y-100134500D01*
X129826812Y-100113931D01*
X129826800Y-100112228D01*
X129826800Y-100110531D01*
X130840800Y-100110531D01*
X130840891Y-100113916D01*
X130843682Y-100165445D01*
X130844755Y-100174089D01*
X130887880Y-100394918D01*
X130890794Y-100405146D01*
X130970164Y-100614640D01*
X130974762Y-100624238D01*
X131088293Y-100817360D01*
X131094446Y-100826049D01*
X131238901Y-100997292D01*
X131246408Y-101004799D01*
X131417651Y-101149254D01*
X131426340Y-101155407D01*
X131619462Y-101268938D01*
X131629060Y-101273536D01*
X131838554Y-101352906D01*
X131848782Y-101355820D01*
X132069611Y-101398945D01*
X132078255Y-101400018D01*
X132129784Y-101402809D01*
X132133169Y-101402900D01*
X132826685Y-101402900D01*
X132841924Y-101398425D01*
X132843129Y-101397035D01*
X132844800Y-101389352D01*
X132844800Y-101384785D01*
X133352800Y-101384785D01*
X133357275Y-101400024D01*
X133358665Y-101401229D01*
X133366348Y-101402900D01*
X134064431Y-101402900D01*
X134067816Y-101402809D01*
X134119345Y-101400018D01*
X134127989Y-101398945D01*
X134348818Y-101355820D01*
X134359046Y-101352906D01*
X134568540Y-101273536D01*
X134578138Y-101268938D01*
X134771260Y-101155407D01*
X134779949Y-101149254D01*
X134951192Y-101004799D01*
X134958699Y-100997292D01*
X135103154Y-100826049D01*
X135109307Y-100817360D01*
X135156607Y-100736900D01*
X136701300Y-100736900D01*
X138227300Y-100736900D01*
X139241300Y-100736900D01*
X140767300Y-100736900D01*
X141781300Y-100736900D01*
X143307300Y-100736900D01*
X144321300Y-100736900D01*
X145652163Y-100736900D01*
X145652163Y-100736400D01*
X146665684Y-100736400D01*
X146684114Y-100947055D01*
X146738844Y-101151310D01*
X146828211Y-101342958D01*
X146949499Y-101516176D01*
X147099024Y-101665701D01*
X147272242Y-101786989D01*
X147277220Y-101789310D01*
X147277223Y-101789312D01*
X147427210Y-101859252D01*
X147463890Y-101876356D01*
X147469198Y-101877778D01*
X147469200Y-101877779D01*
X147662830Y-101929662D01*
X147662832Y-101929662D01*
X147668145Y-101931086D01*
X147878800Y-101949516D01*
X148089455Y-101931086D01*
X148094768Y-101929662D01*
X148094770Y-101929662D01*
X148288400Y-101877779D01*
X148288402Y-101877778D01*
X148293710Y-101876356D01*
X148330390Y-101859252D01*
X148480377Y-101789312D01*
X148480380Y-101789310D01*
X148485358Y-101786989D01*
X148658576Y-101665701D01*
X148808101Y-101516176D01*
X148929389Y-101342958D01*
X149018756Y-101151310D01*
X149073486Y-100947055D01*
X149091916Y-100736400D01*
X149073486Y-100525745D01*
X149072062Y-100520430D01*
X149020179Y-100326800D01*
X149020178Y-100326798D01*
X149018756Y-100321490D01*
X149002211Y-100286009D01*
X148931712Y-100134823D01*
X148931710Y-100134820D01*
X148929389Y-100129842D01*
X148808101Y-99956624D01*
X148658576Y-99807099D01*
X148485358Y-99685811D01*
X148480380Y-99683490D01*
X148480377Y-99683488D01*
X148298692Y-99598767D01*
X148298691Y-99598766D01*
X148293710Y-99596444D01*
X148288402Y-99595022D01*
X148288400Y-99595021D01*
X148094770Y-99543138D01*
X148094768Y-99543138D01*
X148089455Y-99541714D01*
X147878800Y-99523284D01*
X147668145Y-99541714D01*
X147662832Y-99543138D01*
X147662830Y-99543138D01*
X147469200Y-99595021D01*
X147469198Y-99595022D01*
X147463890Y-99596444D01*
X147458909Y-99598766D01*
X147458908Y-99598767D01*
X147277223Y-99683488D01*
X147277220Y-99683490D01*
X147272242Y-99685811D01*
X147099024Y-99807099D01*
X146949499Y-99956624D01*
X146828211Y-100129842D01*
X146825890Y-100134820D01*
X146825888Y-100134823D01*
X146755389Y-100286009D01*
X146738844Y-100321490D01*
X146737422Y-100326798D01*
X146737421Y-100326800D01*
X146685538Y-100520430D01*
X146684114Y-100525745D01*
X146665684Y-100736400D01*
X145652163Y-100736400D01*
X145652163Y-100725418D01*
X145652283Y-100719921D01*
X145655183Y-100653508D01*
X145655542Y-100648023D01*
X145673972Y-100437368D01*
X145674571Y-100431903D01*
X145683249Y-100365989D01*
X145684085Y-100360555D01*
X145687899Y-100338926D01*
X145688972Y-100333535D01*
X145703359Y-100268642D01*
X145704665Y-100263303D01*
X145759395Y-100059048D01*
X145760933Y-100053772D01*
X145780922Y-99990372D01*
X145782690Y-99985164D01*
X145790202Y-99964525D01*
X145792195Y-99959400D01*
X145817635Y-99897985D01*
X145819848Y-99892955D01*
X145847300Y-99834084D01*
X145847300Y-99210900D01*
X149496387Y-99210900D01*
X149525106Y-99239619D01*
X149528908Y-99243589D01*
X149573816Y-99292597D01*
X149577440Y-99296730D01*
X149591558Y-99313555D01*
X149594999Y-99317842D01*
X149635471Y-99370585D01*
X149638722Y-99375020D01*
X149760010Y-99548238D01*
X149763064Y-99552807D01*
X149798768Y-99608850D01*
X149801618Y-99613548D01*
X149812600Y-99632568D01*
X149815246Y-99637389D01*
X149845953Y-99696375D01*
X149848385Y-99701307D01*
X149937752Y-99892955D01*
X149939965Y-99897985D01*
X149965405Y-99959400D01*
X149967398Y-99964525D01*
X149974910Y-99985164D01*
X149976678Y-99990372D01*
X149996667Y-100053772D01*
X149998205Y-100059048D01*
X150052935Y-100263303D01*
X150054241Y-100268642D01*
X150068628Y-100333535D01*
X150069701Y-100338926D01*
X150073515Y-100360555D01*
X150074351Y-100365989D01*
X150083029Y-100431903D01*
X150083628Y-100437368D01*
X150102058Y-100648023D01*
X150102417Y-100653508D01*
X150105317Y-100719921D01*
X150105437Y-100725418D01*
X150105437Y-100736900D01*
X150927300Y-100736900D01*
X151941300Y-100736900D01*
X153272163Y-100736900D01*
X153272163Y-100736400D01*
X154285684Y-100736400D01*
X154304114Y-100947055D01*
X154358844Y-101151310D01*
X154448211Y-101342958D01*
X154569499Y-101516176D01*
X154719024Y-101665701D01*
X154892242Y-101786989D01*
X154897220Y-101789310D01*
X154897223Y-101789312D01*
X155047210Y-101859252D01*
X155083890Y-101876356D01*
X155089198Y-101877778D01*
X155089200Y-101877779D01*
X155282830Y-101929662D01*
X155282832Y-101929662D01*
X155288145Y-101931086D01*
X155498800Y-101949516D01*
X155709455Y-101931086D01*
X155714768Y-101929662D01*
X155714770Y-101929662D01*
X155908400Y-101877779D01*
X155908402Y-101877778D01*
X155913710Y-101876356D01*
X155950390Y-101859252D01*
X156100377Y-101789312D01*
X156100380Y-101789310D01*
X156105358Y-101786989D01*
X156278576Y-101665701D01*
X156428101Y-101516176D01*
X156549389Y-101342958D01*
X156638756Y-101151310D01*
X156693486Y-100947055D01*
X156711916Y-100736400D01*
X156693486Y-100525745D01*
X156692062Y-100520430D01*
X156640179Y-100326800D01*
X156640178Y-100326798D01*
X156638756Y-100321490D01*
X156622211Y-100286009D01*
X156551712Y-100134823D01*
X156551710Y-100134820D01*
X156549389Y-100129842D01*
X156428101Y-99956624D01*
X156278576Y-99807099D01*
X156105358Y-99685811D01*
X156100380Y-99683490D01*
X156100377Y-99683488D01*
X155918692Y-99598767D01*
X155918691Y-99598766D01*
X155913710Y-99596444D01*
X155908402Y-99595022D01*
X155908400Y-99595021D01*
X155714770Y-99543138D01*
X155714768Y-99543138D01*
X155709455Y-99541714D01*
X155498800Y-99523284D01*
X155288145Y-99541714D01*
X155282832Y-99543138D01*
X155282830Y-99543138D01*
X155089200Y-99595021D01*
X155089198Y-99595022D01*
X155083890Y-99596444D01*
X155078909Y-99598766D01*
X155078908Y-99598767D01*
X154897223Y-99683488D01*
X154897220Y-99683490D01*
X154892242Y-99685811D01*
X154719024Y-99807099D01*
X154569499Y-99956624D01*
X154448211Y-100129842D01*
X154445890Y-100134820D01*
X154445888Y-100134823D01*
X154375389Y-100286009D01*
X154358844Y-100321490D01*
X154357422Y-100326798D01*
X154357421Y-100326800D01*
X154305538Y-100520430D01*
X154304114Y-100525745D01*
X154285684Y-100736400D01*
X153272163Y-100736400D01*
X153272163Y-100725418D01*
X153272283Y-100719921D01*
X153275183Y-100653508D01*
X153275542Y-100648023D01*
X153293972Y-100437368D01*
X153294571Y-100431903D01*
X153303249Y-100365989D01*
X153304085Y-100360555D01*
X153307899Y-100338926D01*
X153308972Y-100333535D01*
X153323359Y-100268642D01*
X153324665Y-100263303D01*
X153379395Y-100059048D01*
X153380933Y-100053772D01*
X153400922Y-99990372D01*
X153402690Y-99985164D01*
X153410202Y-99964525D01*
X153412195Y-99959400D01*
X153437635Y-99897985D01*
X153439848Y-99892955D01*
X153467300Y-99834084D01*
X153467300Y-99210900D01*
X151941300Y-99210900D01*
X151941300Y-100736900D01*
X150927300Y-100736900D01*
X150927300Y-99210900D01*
X149496387Y-99210900D01*
X145847300Y-99210900D01*
X144321300Y-99210900D01*
X144321300Y-100736900D01*
X143307300Y-100736900D01*
X143307300Y-99210900D01*
X141781300Y-99210900D01*
X141781300Y-100736900D01*
X140767300Y-100736900D01*
X140767300Y-99210900D01*
X139241300Y-99210900D01*
X139241300Y-100736900D01*
X138227300Y-100736900D01*
X138227300Y-99210900D01*
X136701300Y-99210900D01*
X136701300Y-100736900D01*
X135156607Y-100736900D01*
X135222838Y-100624238D01*
X135227436Y-100614640D01*
X135306806Y-100405146D01*
X135309720Y-100394918D01*
X135352845Y-100174089D01*
X135353918Y-100165445D01*
X135356709Y-100113916D01*
X135356800Y-100110531D01*
X135356800Y-99417015D01*
X135352325Y-99401776D01*
X135350935Y-99400571D01*
X135343252Y-99398900D01*
X133370915Y-99398900D01*
X133355676Y-99403375D01*
X133354471Y-99404765D01*
X133352800Y-99412448D01*
X133352800Y-101384785D01*
X132844800Y-101384785D01*
X132844800Y-99417015D01*
X132840325Y-99401776D01*
X132838935Y-99400571D01*
X132831252Y-99398900D01*
X130858915Y-99398900D01*
X130843676Y-99403375D01*
X130842471Y-99404765D01*
X130840800Y-99412448D01*
X130840800Y-100110531D01*
X129826800Y-100110531D01*
X129826800Y-99398900D01*
X129827522Y-99385432D01*
X129844935Y-99223461D01*
X129846970Y-99210900D01*
X129081300Y-99210900D01*
X129081300Y-100736900D01*
X128067300Y-100736900D01*
X128067300Y-99210900D01*
X126541300Y-99210900D01*
X126541300Y-100736900D01*
X125527300Y-100736900D01*
X125527300Y-99210900D01*
X124001300Y-99210900D01*
X124001300Y-100736900D01*
X122987300Y-100736900D01*
X122987300Y-99210900D01*
X122223300Y-99210900D01*
X122223300Y-100736900D01*
X121209300Y-100736900D01*
X121209300Y-98872785D01*
X130840800Y-98872785D01*
X130845275Y-98888024D01*
X130846665Y-98889229D01*
X130854348Y-98890900D01*
X132826685Y-98890900D01*
X132841924Y-98886425D01*
X132843129Y-98885035D01*
X132844800Y-98877352D01*
X132844800Y-98872785D01*
X133352800Y-98872785D01*
X133357275Y-98888024D01*
X133358665Y-98889229D01*
X133366348Y-98890900D01*
X135338685Y-98890900D01*
X135353924Y-98886425D01*
X135355129Y-98885035D01*
X135356800Y-98877352D01*
X135356800Y-98196900D01*
X136701300Y-98196900D01*
X138227300Y-98196900D01*
X139241300Y-98196900D01*
X140767300Y-98196900D01*
X141781300Y-98196900D01*
X143307300Y-98196900D01*
X144321300Y-98196900D01*
X145847300Y-98196900D01*
X146861300Y-98196900D01*
X148387300Y-98196900D01*
X154481300Y-98196900D01*
X156007300Y-98196900D01*
X156007300Y-96670900D01*
X154481300Y-96670900D01*
X154481300Y-98196900D01*
X148387300Y-98196900D01*
X148387300Y-96670900D01*
X146861300Y-96670900D01*
X146861300Y-98196900D01*
X145847300Y-98196900D01*
X145847300Y-96670900D01*
X144321300Y-96670900D01*
X144321300Y-98196900D01*
X143307300Y-98196900D01*
X143307300Y-96670900D01*
X141781300Y-96670900D01*
X141781300Y-98196900D01*
X140767300Y-98196900D01*
X140767300Y-96670900D01*
X139296367Y-96670900D01*
X139248889Y-96797548D01*
X139245448Y-96805820D01*
X139241300Y-96814869D01*
X139241300Y-98196900D01*
X138227300Y-98196900D01*
X138227300Y-97673145D01*
X138216374Y-97676478D01*
X138208759Y-97678543D01*
X138178137Y-97685824D01*
X138170409Y-97687407D01*
X138076436Y-97703617D01*
X138068626Y-97704714D01*
X138006444Y-97711469D01*
X138003052Y-97711791D01*
X137961967Y-97715133D01*
X137958565Y-97715364D01*
X137944957Y-97716101D01*
X137941551Y-97716239D01*
X137900342Y-97717354D01*
X137896934Y-97717400D01*
X136701300Y-97717400D01*
X136701300Y-98196900D01*
X135356800Y-98196900D01*
X135356800Y-98179270D01*
X135356709Y-98175884D01*
X135353918Y-98124355D01*
X135352845Y-98115711D01*
X135309720Y-97894882D01*
X135306806Y-97884654D01*
X135227436Y-97675160D01*
X135222838Y-97665562D01*
X135109307Y-97472440D01*
X135103154Y-97463751D01*
X134958699Y-97292508D01*
X134951192Y-97285001D01*
X134779949Y-97140546D01*
X134771260Y-97134393D01*
X134578138Y-97020862D01*
X134568540Y-97016264D01*
X134386320Y-96947227D01*
X134329704Y-96904388D01*
X134305236Y-96837741D01*
X134320685Y-96768445D01*
X134371145Y-96718503D01*
X134430960Y-96703400D01*
X137896934Y-96703400D01*
X137959116Y-96696645D01*
X138095505Y-96645515D01*
X138148138Y-96606069D01*
X150026801Y-96606069D01*
X150027171Y-96612890D01*
X150032695Y-96663752D01*
X150036321Y-96679004D01*
X150081476Y-96799454D01*
X150090014Y-96815049D01*
X150166515Y-96917124D01*
X150179076Y-96929685D01*
X150281151Y-97006186D01*
X150296746Y-97014724D01*
X150417194Y-97059878D01*
X150432449Y-97063505D01*
X150483314Y-97069031D01*
X150490128Y-97069400D01*
X151162685Y-97069400D01*
X151177924Y-97064925D01*
X151179129Y-97063535D01*
X151180800Y-97055852D01*
X151180800Y-97051284D01*
X151688800Y-97051284D01*
X151693275Y-97066523D01*
X151694665Y-97067728D01*
X151702348Y-97069399D01*
X152379469Y-97069399D01*
X152386290Y-97069029D01*
X152437152Y-97063505D01*
X152452404Y-97059879D01*
X152572854Y-97014724D01*
X152588449Y-97006186D01*
X152690524Y-96929685D01*
X152703085Y-96917124D01*
X152779586Y-96815049D01*
X152788124Y-96799454D01*
X152833278Y-96679006D01*
X152836905Y-96663751D01*
X152842431Y-96612886D01*
X152842800Y-96606072D01*
X152842800Y-95933515D01*
X152838325Y-95918276D01*
X152836935Y-95917071D01*
X152829252Y-95915400D01*
X151706915Y-95915400D01*
X151691676Y-95919875D01*
X151690471Y-95921265D01*
X151688800Y-95928948D01*
X151688800Y-97051284D01*
X151180800Y-97051284D01*
X151180800Y-95933515D01*
X151176325Y-95918276D01*
X151174935Y-95917071D01*
X151167252Y-95915400D01*
X150044916Y-95915400D01*
X150029677Y-95919875D01*
X150028472Y-95921265D01*
X150026801Y-95928948D01*
X150026801Y-96606069D01*
X138148138Y-96606069D01*
X138212061Y-96558161D01*
X138299415Y-96441605D01*
X138350545Y-96305216D01*
X138357300Y-96243034D01*
X138357300Y-95656900D01*
X139371300Y-95656900D01*
X140767300Y-95656900D01*
X141781300Y-95656900D01*
X143307300Y-95656900D01*
X144321300Y-95656900D01*
X145847300Y-95656900D01*
X146861300Y-95656900D01*
X148387300Y-95656900D01*
X154481300Y-95656900D01*
X156007300Y-95656900D01*
X156007300Y-94130900D01*
X154481300Y-94130900D01*
X154481300Y-95656900D01*
X148387300Y-95656900D01*
X148387300Y-94130900D01*
X146861300Y-94130900D01*
X146861300Y-95656900D01*
X145847300Y-95656900D01*
X145847300Y-94130900D01*
X144321300Y-94130900D01*
X144321300Y-95656900D01*
X143307300Y-95656900D01*
X143307300Y-94130900D01*
X141781300Y-94130900D01*
X141781300Y-95656900D01*
X140767300Y-95656900D01*
X140767300Y-94130900D01*
X139371300Y-94130900D01*
X139371300Y-95656900D01*
X138357300Y-95656900D01*
X138357300Y-92646766D01*
X138350545Y-92584584D01*
X138299415Y-92448195D01*
X138212061Y-92331639D01*
X138095505Y-92244285D01*
X137959116Y-92193155D01*
X137896934Y-92186400D01*
X134300666Y-92186400D01*
X134238484Y-92193155D01*
X134102095Y-92244285D01*
X133985539Y-92331639D01*
X133898185Y-92448195D01*
X133847055Y-92584584D01*
X133840300Y-92646766D01*
X133840300Y-96243034D01*
X133847055Y-96305216D01*
X133898185Y-96441605D01*
X133985539Y-96558161D01*
X134102095Y-96645515D01*
X134110500Y-96648666D01*
X134113631Y-96650380D01*
X134163777Y-96700638D01*
X134178791Y-96770029D01*
X134153906Y-96836522D01*
X134097022Y-96879005D01*
X134053122Y-96886900D01*
X133370915Y-96886900D01*
X133355676Y-96891375D01*
X133354471Y-96892765D01*
X133352800Y-96900448D01*
X133352800Y-98872785D01*
X132844800Y-98872785D01*
X132844800Y-96905015D01*
X132840325Y-96889776D01*
X132838935Y-96888571D01*
X132831252Y-96886900D01*
X132133170Y-96886900D01*
X132129784Y-96886991D01*
X132078255Y-96889782D01*
X132069611Y-96890855D01*
X131848782Y-96933980D01*
X131838554Y-96936894D01*
X131629060Y-97016264D01*
X131619462Y-97020862D01*
X131426340Y-97134393D01*
X131417651Y-97140546D01*
X131246408Y-97285001D01*
X131238901Y-97292508D01*
X131094446Y-97463751D01*
X131088293Y-97472440D01*
X130974762Y-97665562D01*
X130970164Y-97675160D01*
X130890794Y-97884654D01*
X130887880Y-97894882D01*
X130844755Y-98115711D01*
X130843682Y-98124355D01*
X130840891Y-98175884D01*
X130840800Y-98179270D01*
X130840800Y-98872785D01*
X121209300Y-98872785D01*
X121209300Y-98196900D01*
X122223300Y-98196900D01*
X122987300Y-98196900D01*
X124001300Y-98196900D01*
X125527300Y-98196900D01*
X126541300Y-98196900D01*
X128067300Y-98196900D01*
X128067300Y-97321192D01*
X127959893Y-97246542D01*
X127955359Y-97243238D01*
X127901434Y-97202082D01*
X127897052Y-97198581D01*
X127879867Y-97184211D01*
X127875647Y-97180520D01*
X127825639Y-97134774D01*
X127821590Y-97130900D01*
X127662800Y-96972110D01*
X127658926Y-96968061D01*
X127613180Y-96918053D01*
X127609489Y-96913833D01*
X127595119Y-96896648D01*
X127591618Y-96892266D01*
X127550462Y-96838341D01*
X127547158Y-96833807D01*
X127433935Y-96670900D01*
X126541300Y-96670900D01*
X126541300Y-98196900D01*
X125527300Y-98196900D01*
X125527300Y-96670900D01*
X124001300Y-96670900D01*
X124001300Y-98196900D01*
X122987300Y-98196900D01*
X122987300Y-96670900D01*
X122223300Y-96670900D01*
X122223300Y-98196900D01*
X121209300Y-98196900D01*
X121209300Y-95656900D01*
X122223300Y-95656900D01*
X122987300Y-95656900D01*
X124001300Y-95656900D01*
X125527300Y-95656900D01*
X126541300Y-95656900D01*
X127085611Y-95656900D01*
X127080139Y-95589611D01*
X127079958Y-95587067D01*
X127078078Y-95556238D01*
X127077948Y-95553685D01*
X127077533Y-95543472D01*
X127077455Y-95540913D01*
X127076827Y-95509975D01*
X127076801Y-95507418D01*
X127076801Y-95504861D01*
X128090801Y-95504861D01*
X128091009Y-95509971D01*
X128101882Y-95643667D01*
X128103652Y-95654220D01*
X128156767Y-95861085D01*
X128160501Y-95871631D01*
X128249310Y-96065605D01*
X128254846Y-96075312D01*
X128376603Y-96250497D01*
X128383776Y-96259076D01*
X128534624Y-96409924D01*
X128543203Y-96417097D01*
X128718388Y-96538854D01*
X128728095Y-96544390D01*
X128922069Y-96633199D01*
X128932615Y-96636933D01*
X129139479Y-96690047D01*
X129150034Y-96691818D01*
X129283730Y-96702693D01*
X129288836Y-96702900D01*
X129826685Y-96702900D01*
X129841924Y-96698425D01*
X129843129Y-96697035D01*
X129844800Y-96689352D01*
X129844800Y-96684784D01*
X130352800Y-96684784D01*
X130357275Y-96700023D01*
X130358665Y-96701228D01*
X130366348Y-96702899D01*
X130908761Y-96702899D01*
X130913871Y-96702691D01*
X131047567Y-96691818D01*
X131058120Y-96690048D01*
X131264985Y-96636933D01*
X131275531Y-96633199D01*
X131469505Y-96544390D01*
X131479212Y-96538854D01*
X131654397Y-96417097D01*
X131662976Y-96409924D01*
X131813824Y-96259076D01*
X131820997Y-96250497D01*
X131942754Y-96075312D01*
X131948290Y-96065605D01*
X132037099Y-95871631D01*
X132040833Y-95861085D01*
X132093947Y-95654221D01*
X132095718Y-95643666D01*
X132106593Y-95509970D01*
X132106800Y-95504864D01*
X132106800Y-94717015D01*
X132102325Y-94701776D01*
X132100935Y-94700571D01*
X132093252Y-94698900D01*
X130370915Y-94698900D01*
X130355676Y-94703375D01*
X130354471Y-94704765D01*
X130352800Y-94712448D01*
X130352800Y-96684784D01*
X129844800Y-96684784D01*
X129844800Y-94717015D01*
X129840325Y-94701776D01*
X129838935Y-94700571D01*
X129831252Y-94698900D01*
X128108916Y-94698900D01*
X128093677Y-94703375D01*
X128092472Y-94704765D01*
X128090801Y-94712448D01*
X128090801Y-95504861D01*
X127076801Y-95504861D01*
X127076801Y-94698900D01*
X127077523Y-94685432D01*
X127094936Y-94523461D01*
X127097093Y-94510146D01*
X127108479Y-94457804D01*
X127110089Y-94451253D01*
X127112827Y-94441273D01*
X127112769Y-94441076D01*
X127108948Y-94423511D01*
X127078082Y-94208832D01*
X127076800Y-94190900D01*
X127076800Y-94172785D01*
X128090800Y-94172785D01*
X128095275Y-94188024D01*
X128096665Y-94189229D01*
X128104348Y-94190900D01*
X129826685Y-94190900D01*
X129841924Y-94186425D01*
X129843129Y-94185035D01*
X129844800Y-94177352D01*
X129844800Y-94172785D01*
X130352800Y-94172785D01*
X130357275Y-94188024D01*
X130358665Y-94189229D01*
X130366348Y-94190900D01*
X132088684Y-94190900D01*
X132103923Y-94186425D01*
X132105128Y-94185035D01*
X132106799Y-94177352D01*
X132106799Y-93384939D01*
X132106591Y-93379829D01*
X132095718Y-93246133D01*
X132093948Y-93235580D01*
X132040833Y-93028715D01*
X132037099Y-93018169D01*
X131948290Y-92824195D01*
X131942754Y-92814488D01*
X131820997Y-92639303D01*
X131813824Y-92630724D01*
X131662976Y-92479876D01*
X131654397Y-92472703D01*
X131479212Y-92350946D01*
X131469505Y-92345410D01*
X131275531Y-92256601D01*
X131264985Y-92252867D01*
X131058121Y-92199753D01*
X131047566Y-92197982D01*
X130913870Y-92187107D01*
X130908764Y-92186900D01*
X130370915Y-92186900D01*
X130355676Y-92191375D01*
X130354471Y-92192765D01*
X130352800Y-92200448D01*
X130352800Y-94172785D01*
X129844800Y-94172785D01*
X129844800Y-92205016D01*
X129840325Y-92189777D01*
X129838935Y-92188572D01*
X129831252Y-92186901D01*
X129288839Y-92186901D01*
X129283729Y-92187109D01*
X129150033Y-92197982D01*
X129139480Y-92199752D01*
X128932615Y-92252867D01*
X128922069Y-92256601D01*
X128728095Y-92345410D01*
X128718388Y-92350946D01*
X128543203Y-92472703D01*
X128534624Y-92479876D01*
X128383776Y-92630724D01*
X128376603Y-92639303D01*
X128254846Y-92814488D01*
X128249310Y-92824195D01*
X128160501Y-93018169D01*
X128156767Y-93028715D01*
X128103653Y-93235579D01*
X128101882Y-93246134D01*
X128091007Y-93379830D01*
X128090800Y-93384936D01*
X128090800Y-94172785D01*
X127076800Y-94172785D01*
X127076800Y-94130900D01*
X126541300Y-94130900D01*
X126541300Y-95656900D01*
X125527300Y-95656900D01*
X125527300Y-94130900D01*
X124001300Y-94130900D01*
X124001300Y-95656900D01*
X122987300Y-95656900D01*
X122987300Y-94130900D01*
X122223300Y-94130900D01*
X122223300Y-95656900D01*
X121209300Y-95656900D01*
X121209300Y-93116900D01*
X122223300Y-93116900D01*
X122987300Y-93116900D01*
X124001300Y-93116900D01*
X125527300Y-93116900D01*
X126541300Y-93116900D01*
X127096722Y-93116900D01*
X127100201Y-93088923D01*
X127100975Y-93083619D01*
X127104519Y-93062498D01*
X127105518Y-93057233D01*
X127118952Y-92993826D01*
X127120175Y-92988607D01*
X127176022Y-92771100D01*
X127177536Y-92765703D01*
X127197297Y-92700863D01*
X127199050Y-92695538D01*
X127206527Y-92674422D01*
X127208517Y-92669178D01*
X127233978Y-92606316D01*
X127236198Y-92601166D01*
X127329679Y-92396986D01*
X127332126Y-92391940D01*
X127363064Y-92331612D01*
X127365733Y-92326682D01*
X127376832Y-92307223D01*
X127379718Y-92302416D01*
X127415901Y-92245068D01*
X127418998Y-92240392D01*
X127533996Y-92074931D01*
X139241300Y-92074931D01*
X139245448Y-92083980D01*
X139248889Y-92092252D01*
X139300019Y-92228641D01*
X139302555Y-92236110D01*
X139330378Y-92327326D01*
X139332443Y-92334941D01*
X139339724Y-92365563D01*
X139341307Y-92373291D01*
X139357517Y-92467264D01*
X139358614Y-92475074D01*
X139365369Y-92537256D01*
X139365691Y-92540648D01*
X139369033Y-92581733D01*
X139369264Y-92585135D01*
X139370001Y-92598743D01*
X139370139Y-92602149D01*
X139371254Y-92643358D01*
X139371300Y-92646766D01*
X139371300Y-93116900D01*
X140767300Y-93116900D01*
X141781300Y-93116900D01*
X143307300Y-93116900D01*
X144321300Y-93116900D01*
X145847300Y-93116900D01*
X146861300Y-93116900D01*
X148387300Y-93116900D01*
X148387300Y-93086869D01*
X150021895Y-93086869D01*
X150022192Y-93092022D01*
X150022192Y-93092025D01*
X150027867Y-93190441D01*
X150035227Y-93318097D01*
X150036364Y-93323143D01*
X150036365Y-93323149D01*
X150068541Y-93465923D01*
X150086146Y-93544042D01*
X150088088Y-93548824D01*
X150088089Y-93548828D01*
X150171340Y-93753850D01*
X150173284Y-93758637D01*
X150294301Y-93956119D01*
X150297682Y-93960022D01*
X150406453Y-94085591D01*
X150435935Y-94150176D01*
X150425820Y-94220449D01*
X150379319Y-94274097D01*
X150355446Y-94286070D01*
X150296744Y-94308077D01*
X150281151Y-94316614D01*
X150179076Y-94393115D01*
X150166515Y-94405676D01*
X150090014Y-94507751D01*
X150081476Y-94523346D01*
X150036322Y-94643794D01*
X150032695Y-94659049D01*
X150027169Y-94709914D01*
X150026800Y-94716728D01*
X150026800Y-95389285D01*
X150031275Y-95404524D01*
X150032665Y-95405729D01*
X150040348Y-95407400D01*
X152824684Y-95407400D01*
X152839923Y-95402925D01*
X152841128Y-95401535D01*
X152842799Y-95393852D01*
X152842799Y-94716731D01*
X152842429Y-94709910D01*
X152836905Y-94659048D01*
X152833279Y-94643796D01*
X152788124Y-94523346D01*
X152779586Y-94507751D01*
X152703085Y-94405676D01*
X152690524Y-94393115D01*
X152588449Y-94316614D01*
X152572852Y-94308075D01*
X152514215Y-94286093D01*
X152457450Y-94243452D01*
X152432750Y-94176890D01*
X152447957Y-94107541D01*
X152469503Y-94078861D01*
X152507441Y-94041054D01*
X152511103Y-94037405D01*
X152646258Y-93849317D01*
X152693441Y-93753850D01*
X152746584Y-93646322D01*
X152746585Y-93646320D01*
X152748878Y-93641680D01*
X152816208Y-93420071D01*
X152846440Y-93190441D01*
X152848127Y-93121400D01*
X152847757Y-93116900D01*
X154481300Y-93116900D01*
X156007300Y-93116900D01*
X156007300Y-91590900D01*
X154481300Y-91590900D01*
X154481300Y-93116900D01*
X152847757Y-93116900D01*
X152839640Y-93018169D01*
X152829573Y-92895718D01*
X152829572Y-92895712D01*
X152829149Y-92890567D01*
X152780161Y-92695538D01*
X152773984Y-92670944D01*
X152773983Y-92670940D01*
X152772725Y-92665933D01*
X152761146Y-92639303D01*
X152682430Y-92458268D01*
X152682428Y-92458265D01*
X152680370Y-92453531D01*
X152554564Y-92259065D01*
X152548925Y-92252867D01*
X152402776Y-92092252D01*
X152398687Y-92087758D01*
X152394636Y-92084559D01*
X152394632Y-92084555D01*
X152220977Y-91947411D01*
X152220972Y-91947408D01*
X152216923Y-91944210D01*
X152212407Y-91941717D01*
X152212404Y-91941715D01*
X152018679Y-91834773D01*
X152018675Y-91834771D01*
X152014155Y-91832276D01*
X152009286Y-91830552D01*
X152009282Y-91830550D01*
X151800703Y-91756688D01*
X151800699Y-91756687D01*
X151795828Y-91754962D01*
X151790735Y-91754055D01*
X151790732Y-91754054D01*
X151572895Y-91715251D01*
X151572889Y-91715250D01*
X151567806Y-91714345D01*
X151494896Y-91713454D01*
X151341381Y-91711579D01*
X151341379Y-91711579D01*
X151336211Y-91711516D01*
X151107264Y-91746550D01*
X150887114Y-91818506D01*
X150882526Y-91820894D01*
X150882522Y-91820896D01*
X150686261Y-91923063D01*
X150681672Y-91925452D01*
X150677539Y-91928555D01*
X150677536Y-91928557D01*
X150500590Y-92061412D01*
X150496455Y-92064517D01*
X150492883Y-92068255D01*
X150367221Y-92199753D01*
X150336439Y-92231964D01*
X150333525Y-92236236D01*
X150333524Y-92236237D01*
X150319633Y-92256601D01*
X150205919Y-92423299D01*
X150108402Y-92633381D01*
X150046507Y-92856569D01*
X150021895Y-93086869D01*
X148387300Y-93086869D01*
X148387300Y-91590900D01*
X146861300Y-91590900D01*
X146861300Y-93116900D01*
X145847300Y-93116900D01*
X145847300Y-91590900D01*
X144321300Y-91590900D01*
X144321300Y-93116900D01*
X143307300Y-93116900D01*
X143307300Y-91590900D01*
X141781300Y-91590900D01*
X141781300Y-93116900D01*
X140767300Y-93116900D01*
X140767300Y-91590900D01*
X139241300Y-91590900D01*
X139241300Y-92074931D01*
X127533996Y-92074931D01*
X127547158Y-92055993D01*
X127550462Y-92051459D01*
X127591618Y-91997534D01*
X127595119Y-91993152D01*
X127609489Y-91975967D01*
X127613180Y-91971747D01*
X127658926Y-91921739D01*
X127662800Y-91917690D01*
X127821590Y-91758900D01*
X127825639Y-91755026D01*
X127875647Y-91709280D01*
X127879867Y-91705589D01*
X127897052Y-91691219D01*
X127901434Y-91687718D01*
X127955359Y-91646562D01*
X127959893Y-91643258D01*
X128035227Y-91590900D01*
X126541300Y-91590900D01*
X126541300Y-93116900D01*
X125527300Y-93116900D01*
X125527300Y-91590900D01*
X124001300Y-91590900D01*
X124001300Y-93116900D01*
X122987300Y-93116900D01*
X122987300Y-91590900D01*
X122223300Y-91590900D01*
X122223300Y-93116900D01*
X121209300Y-93116900D01*
X121209300Y-90576900D01*
X122223300Y-90576900D01*
X122987300Y-90576900D01*
X124001300Y-90576900D01*
X125527300Y-90576900D01*
X126541300Y-90576900D01*
X128067300Y-90576900D01*
X129081300Y-90576900D01*
X130607300Y-90576900D01*
X131621300Y-90576900D01*
X133147300Y-90576900D01*
X134161300Y-90576900D01*
X135687300Y-90576900D01*
X136701300Y-90576900D01*
X138227300Y-90576900D01*
X139241300Y-90576900D01*
X140767300Y-90576900D01*
X141781300Y-90576900D01*
X143307300Y-90576900D01*
X144321300Y-90576900D01*
X145847300Y-90576900D01*
X146861300Y-90576900D01*
X148387300Y-90576900D01*
X149401300Y-90576900D01*
X150927300Y-90576900D01*
X151941300Y-90576900D01*
X153467300Y-90576900D01*
X154481300Y-90576900D01*
X156007300Y-90576900D01*
X156007300Y-89050900D01*
X154481300Y-89050900D01*
X154481300Y-90576900D01*
X153467300Y-90576900D01*
X153467300Y-89050900D01*
X151941300Y-89050900D01*
X151941300Y-90576900D01*
X150927300Y-90576900D01*
X150927300Y-89050900D01*
X149401300Y-89050900D01*
X149401300Y-90576900D01*
X148387300Y-90576900D01*
X148387300Y-89050900D01*
X146861300Y-89050900D01*
X146861300Y-90576900D01*
X145847300Y-90576900D01*
X145847300Y-89050900D01*
X144321300Y-89050900D01*
X144321300Y-90576900D01*
X143307300Y-90576900D01*
X143307300Y-89050900D01*
X141781300Y-89050900D01*
X141781300Y-90576900D01*
X140767300Y-90576900D01*
X140767300Y-89050900D01*
X139241300Y-89050900D01*
X139241300Y-90576900D01*
X138227300Y-90576900D01*
X138227300Y-89050900D01*
X136701300Y-89050900D01*
X136701300Y-90576900D01*
X135687300Y-90576900D01*
X135687300Y-89050900D01*
X134161300Y-89050900D01*
X134161300Y-90576900D01*
X133147300Y-90576900D01*
X133147300Y-89050900D01*
X131621300Y-89050900D01*
X131621300Y-90576900D01*
X130607300Y-90576900D01*
X130607300Y-89050900D01*
X129081300Y-89050900D01*
X129081300Y-90576900D01*
X128067300Y-90576900D01*
X128067300Y-89050900D01*
X126541300Y-89050900D01*
X126541300Y-90576900D01*
X125527300Y-90576900D01*
X125527300Y-89050900D01*
X124001300Y-89050900D01*
X124001300Y-90576900D01*
X122987300Y-90576900D01*
X122987300Y-89050900D01*
X122223300Y-89050900D01*
X122223300Y-90576900D01*
X121209300Y-90576900D01*
X121209300Y-88036900D01*
X122223300Y-88036900D01*
X122987300Y-88036900D01*
X124001300Y-88036900D01*
X125527300Y-88036900D01*
X126541300Y-88036900D01*
X128067300Y-88036900D01*
X129081300Y-88036900D01*
X130607300Y-88036900D01*
X131621300Y-88036900D01*
X133147300Y-88036900D01*
X134161300Y-88036900D01*
X135687300Y-88036900D01*
X136701300Y-88036900D01*
X138227300Y-88036900D01*
X139241300Y-88036900D01*
X140767300Y-88036900D01*
X141781300Y-88036900D01*
X143307300Y-88036900D01*
X144321300Y-88036900D01*
X145847300Y-88036900D01*
X145847300Y-86510900D01*
X144321300Y-86510900D01*
X144321300Y-88036900D01*
X143307300Y-88036900D01*
X143307300Y-86510900D01*
X141781300Y-86510900D01*
X141781300Y-88036900D01*
X140767300Y-88036900D01*
X140767300Y-86510900D01*
X139241300Y-86510900D01*
X139241300Y-88036900D01*
X138227300Y-88036900D01*
X138227300Y-86510900D01*
X136701300Y-86510900D01*
X136701300Y-88036900D01*
X135687300Y-88036900D01*
X135687300Y-86510900D01*
X134161300Y-86510900D01*
X134161300Y-88036900D01*
X133147300Y-88036900D01*
X133147300Y-86510900D01*
X131621300Y-86510900D01*
X131621300Y-88036900D01*
X130607300Y-88036900D01*
X130607300Y-86510900D01*
X129081300Y-86510900D01*
X129081300Y-88036900D01*
X128067300Y-88036900D01*
X128067300Y-86510900D01*
X126541300Y-86510900D01*
X126541300Y-88036900D01*
X125527300Y-88036900D01*
X125527300Y-86510900D01*
X124001300Y-86510900D01*
X124001300Y-88036900D01*
X122987300Y-88036900D01*
X122987300Y-86510900D01*
X122223300Y-86510900D01*
X122223300Y-88036900D01*
X121209300Y-88036900D01*
X121209300Y-86476644D01*
X147257738Y-86476644D01*
X147271544Y-86716080D01*
X147324270Y-86950046D01*
X147414502Y-87172259D01*
X147539814Y-87376751D01*
X147696843Y-87558030D01*
X147881371Y-87711228D01*
X148088443Y-87832231D01*
X148312497Y-87917789D01*
X148317563Y-87918820D01*
X148317564Y-87918820D01*
X148373839Y-87930269D01*
X148547516Y-87965604D01*
X148681889Y-87970531D01*
X148782025Y-87974203D01*
X148782029Y-87974203D01*
X148787189Y-87974392D01*
X148792309Y-87973736D01*
X148792311Y-87973736D01*
X149019951Y-87944575D01*
X149019952Y-87944575D01*
X149025079Y-87943918D01*
X149108735Y-87918820D01*
X149249842Y-87876486D01*
X149249847Y-87876484D01*
X149254797Y-87874999D01*
X149470174Y-87769487D01*
X149474379Y-87766487D01*
X149474385Y-87766484D01*
X149640406Y-87648062D01*
X149665427Y-87630215D01*
X149835311Y-87460923D01*
X149867995Y-87415438D01*
X149923990Y-87371790D01*
X149994693Y-87365344D01*
X150057657Y-87398146D01*
X150065543Y-87406453D01*
X150196843Y-87558030D01*
X150381371Y-87711228D01*
X150588443Y-87832231D01*
X150812497Y-87917789D01*
X150817563Y-87918820D01*
X150817564Y-87918820D01*
X150873839Y-87930269D01*
X151047516Y-87965604D01*
X151181889Y-87970531D01*
X151282025Y-87974203D01*
X151282029Y-87974203D01*
X151287189Y-87974392D01*
X151292309Y-87973736D01*
X151292311Y-87973736D01*
X151519951Y-87944575D01*
X151519952Y-87944575D01*
X151525079Y-87943918D01*
X151608735Y-87918820D01*
X151749842Y-87876486D01*
X151749847Y-87876484D01*
X151754797Y-87874999D01*
X151970174Y-87769487D01*
X152048191Y-87713838D01*
X152131168Y-87654652D01*
X152198241Y-87631378D01*
X152267250Y-87648062D01*
X152314855Y-87696721D01*
X152317035Y-87700703D01*
X152320185Y-87709105D01*
X152407539Y-87825661D01*
X152524095Y-87913015D01*
X152660484Y-87964145D01*
X152722666Y-87970900D01*
X154718934Y-87970900D01*
X154781116Y-87964145D01*
X154917505Y-87913015D01*
X155034061Y-87825661D01*
X155121415Y-87709105D01*
X155172545Y-87572716D01*
X155179300Y-87510534D01*
X155179300Y-85514266D01*
X155177414Y-85496900D01*
X155173398Y-85459940D01*
X155172545Y-85452084D01*
X155121415Y-85315695D01*
X155034061Y-85199139D01*
X154917505Y-85111785D01*
X154781116Y-85060655D01*
X154718934Y-85053900D01*
X152722666Y-85053900D01*
X152660484Y-85060655D01*
X152524095Y-85111785D01*
X152407539Y-85199139D01*
X152389865Y-85222721D01*
X152325571Y-85308509D01*
X152320185Y-85315695D01*
X152317035Y-85324099D01*
X152313924Y-85329780D01*
X152263665Y-85379925D01*
X152194274Y-85394938D01*
X152125313Y-85368151D01*
X152034746Y-85296626D01*
X152030688Y-85293421D01*
X151820722Y-85177513D01*
X151698258Y-85134146D01*
X151599520Y-85099181D01*
X151599516Y-85099180D01*
X151594645Y-85097455D01*
X151589552Y-85096548D01*
X151589549Y-85096547D01*
X151363616Y-85056302D01*
X151363610Y-85056301D01*
X151358527Y-85055396D01*
X151266284Y-85054269D01*
X151123881Y-85052529D01*
X151123879Y-85052529D01*
X151118711Y-85052466D01*
X150881637Y-85088743D01*
X150653671Y-85163254D01*
X150592745Y-85194970D01*
X150538601Y-85223156D01*
X150440936Y-85273997D01*
X150436803Y-85277100D01*
X150436800Y-85277102D01*
X150299853Y-85379925D01*
X150249145Y-85417998D01*
X150083448Y-85591390D01*
X150075377Y-85603222D01*
X150020466Y-85648223D01*
X149949941Y-85656394D01*
X149886194Y-85625139D01*
X149878113Y-85617033D01*
X149718904Y-85442065D01*
X149714853Y-85438866D01*
X149714849Y-85438862D01*
X149534746Y-85296626D01*
X149530688Y-85293421D01*
X149320722Y-85177513D01*
X149198258Y-85134146D01*
X149099520Y-85099181D01*
X149099516Y-85099180D01*
X149094645Y-85097455D01*
X149089552Y-85096548D01*
X149089549Y-85096547D01*
X148863616Y-85056302D01*
X148863610Y-85056301D01*
X148858527Y-85055396D01*
X148766284Y-85054269D01*
X148623881Y-85052529D01*
X148623879Y-85052529D01*
X148618711Y-85052466D01*
X148381637Y-85088743D01*
X148153671Y-85163254D01*
X148092745Y-85194970D01*
X148038601Y-85223156D01*
X147940936Y-85273997D01*
X147936803Y-85277100D01*
X147936800Y-85277102D01*
X147799853Y-85379925D01*
X147749145Y-85417998D01*
X147583448Y-85591390D01*
X147448295Y-85789517D01*
X147347316Y-86007056D01*
X147283224Y-86238168D01*
X147257738Y-86476644D01*
X121209300Y-86476644D01*
X121209300Y-85496900D01*
X122223300Y-85496900D01*
X122987300Y-85496900D01*
X124001300Y-85496900D01*
X125527300Y-85496900D01*
X126541300Y-85496900D01*
X128067300Y-85496900D01*
X129081300Y-85496900D01*
X130607300Y-85496900D01*
X131621300Y-85496900D01*
X133147300Y-85496900D01*
X136701300Y-85496900D01*
X138227300Y-85496900D01*
X139241300Y-85496900D01*
X140767300Y-85496900D01*
X141781300Y-85496900D01*
X143307300Y-85496900D01*
X144321300Y-85496900D01*
X145847300Y-85496900D01*
X145847300Y-84879387D01*
X146861300Y-84879387D01*
X147016056Y-84717444D01*
X147019703Y-84713781D01*
X147064696Y-84670408D01*
X147068489Y-84666899D01*
X147083930Y-84653190D01*
X147087863Y-84649840D01*
X147136250Y-84610306D01*
X147140318Y-84607119D01*
X147332109Y-84463118D01*
X147336304Y-84460100D01*
X147387782Y-84424654D01*
X147392099Y-84421811D01*
X147409572Y-84410808D01*
X147414000Y-84408145D01*
X147468190Y-84377048D01*
X147472723Y-84374569D01*
X147685458Y-84263826D01*
X147690089Y-84261534D01*
X147746642Y-84234982D01*
X147751362Y-84232883D01*
X147770397Y-84224881D01*
X147775201Y-84222977D01*
X147833765Y-84201138D01*
X147838645Y-84199431D01*
X148066611Y-84124920D01*
X148071555Y-84123416D01*
X148131705Y-84106452D01*
X148136707Y-84105151D01*
X148156793Y-84100366D01*
X148161843Y-84099272D01*
X148223170Y-84087296D01*
X148228260Y-84086410D01*
X148387300Y-84062074D01*
X148387300Y-84039900D01*
X154481300Y-84039900D01*
X154718934Y-84039900D01*
X154722342Y-84039946D01*
X154763551Y-84041061D01*
X154766957Y-84041199D01*
X154780565Y-84041936D01*
X154783967Y-84042167D01*
X154825052Y-84045509D01*
X154828444Y-84045831D01*
X154890626Y-84052586D01*
X154898436Y-84053683D01*
X154992409Y-84069893D01*
X155000137Y-84071476D01*
X155030759Y-84078757D01*
X155038374Y-84080822D01*
X155129590Y-84108645D01*
X155137059Y-84111181D01*
X155273448Y-84162311D01*
X155281720Y-84165753D01*
X155380177Y-84210883D01*
X155388185Y-84214903D01*
X155419520Y-84232059D01*
X155427220Y-84236638D01*
X155518269Y-84295260D01*
X155525624Y-84300375D01*
X155642180Y-84387729D01*
X155649154Y-84393354D01*
X155730980Y-84464297D01*
X155737536Y-84470403D01*
X155762797Y-84495664D01*
X155768903Y-84502220D01*
X155839846Y-84584046D01*
X155845471Y-84591020D01*
X155932825Y-84707576D01*
X155937940Y-84714931D01*
X155996562Y-84805980D01*
X156001141Y-84813680D01*
X156007300Y-84824929D01*
X156007300Y-83970900D01*
X154481300Y-83970900D01*
X154481300Y-84039900D01*
X148387300Y-84039900D01*
X148387300Y-83970900D01*
X146861300Y-83970900D01*
X146861300Y-84879387D01*
X145847300Y-84879387D01*
X145847300Y-83970900D01*
X144321300Y-83970900D01*
X144321300Y-85496900D01*
X143307300Y-85496900D01*
X143307300Y-83970900D01*
X141781300Y-83970900D01*
X141781300Y-85496900D01*
X140767300Y-85496900D01*
X140767300Y-83970900D01*
X139241300Y-83970900D01*
X139241300Y-85496900D01*
X138227300Y-85496900D01*
X138227300Y-83970900D01*
X137124968Y-83970900D01*
X137115807Y-84024009D01*
X137114224Y-84031737D01*
X137106943Y-84062359D01*
X137104878Y-84069974D01*
X137077055Y-84161190D01*
X137074519Y-84168659D01*
X137023389Y-84305048D01*
X137019947Y-84313320D01*
X136974817Y-84411777D01*
X136970797Y-84419785D01*
X136953641Y-84451120D01*
X136949062Y-84458820D01*
X136890440Y-84549869D01*
X136885325Y-84557224D01*
X136797971Y-84673780D01*
X136792346Y-84680754D01*
X136721403Y-84762580D01*
X136715297Y-84769136D01*
X136701300Y-84783133D01*
X136701300Y-85496900D01*
X133147300Y-85496900D01*
X133147300Y-85114353D01*
X133115652Y-85102489D01*
X133107380Y-85099047D01*
X133024210Y-85060924D01*
X133018613Y-85063011D01*
X133013732Y-85064718D01*
X132785454Y-85139331D01*
X132780510Y-85140835D01*
X132720360Y-85157799D01*
X132715358Y-85159100D01*
X132695272Y-85163885D01*
X132690221Y-85164979D01*
X132628896Y-85176954D01*
X132623807Y-85177840D01*
X132538179Y-85190943D01*
X132519975Y-85192390D01*
X132299688Y-85193885D01*
X132281466Y-85192685D01*
X132210065Y-85182749D01*
X132198734Y-85180640D01*
X132113930Y-85160803D01*
X132046332Y-85182135D01*
X132022161Y-85187224D01*
X131951589Y-85194970D01*
X131933624Y-85195651D01*
X131716856Y-85188391D01*
X131698978Y-85186509D01*
X131621300Y-85172672D01*
X131621300Y-85496900D01*
X130607300Y-85496900D01*
X130607300Y-85010206D01*
X130565919Y-85029635D01*
X130561196Y-85031736D01*
X130542160Y-85039738D01*
X130537356Y-85041642D01*
X130478803Y-85063476D01*
X130473925Y-85065182D01*
X130245568Y-85139820D01*
X130240624Y-85141325D01*
X130180476Y-85158288D01*
X130175474Y-85159588D01*
X130155388Y-85164373D01*
X130150337Y-85165467D01*
X130089013Y-85177442D01*
X130083924Y-85178328D01*
X129846443Y-85214668D01*
X129841322Y-85215345D01*
X129779238Y-85222255D01*
X129774093Y-85222721D01*
X129753495Y-85224162D01*
X129748332Y-85224417D01*
X129685845Y-85226218D01*
X129680676Y-85226261D01*
X129440450Y-85223326D01*
X129435282Y-85223156D01*
X129372852Y-85219828D01*
X129367697Y-85219447D01*
X129347140Y-85217503D01*
X129342009Y-85216912D01*
X129280119Y-85208488D01*
X129275016Y-85207686D01*
X129081300Y-85173180D01*
X129081300Y-85496900D01*
X128067300Y-85496900D01*
X128067300Y-84700576D01*
X127962531Y-84617834D01*
X127958543Y-84614550D01*
X127911148Y-84573857D01*
X127907299Y-84570412D01*
X127892197Y-84556330D01*
X127888489Y-84552728D01*
X127844556Y-84508256D01*
X127840999Y-84504505D01*
X127679311Y-84326812D01*
X127675912Y-84322918D01*
X127635770Y-84274993D01*
X127632532Y-84270962D01*
X127619934Y-84254602D01*
X127616867Y-84250446D01*
X127580818Y-84199436D01*
X127577924Y-84195157D01*
X127447429Y-83993443D01*
X127444712Y-83989048D01*
X127434001Y-83970900D01*
X126541300Y-83970900D01*
X126541300Y-85496900D01*
X125527300Y-85496900D01*
X125527300Y-83970900D01*
X124001300Y-83970900D01*
X124001300Y-85496900D01*
X122987300Y-85496900D01*
X122987300Y-83970900D01*
X122223300Y-83970900D01*
X122223300Y-85496900D01*
X121209300Y-85496900D01*
X121209300Y-82956900D01*
X122223300Y-82956900D01*
X122987300Y-82956900D01*
X124001300Y-82956900D01*
X125527300Y-82956900D01*
X126541300Y-82956900D01*
X127124391Y-82956900D01*
X127119210Y-82893886D01*
X127119024Y-82891309D01*
X127117104Y-82860141D01*
X127116972Y-82857564D01*
X127116548Y-82847240D01*
X127116469Y-82844657D01*
X127115827Y-82813389D01*
X127115800Y-82810802D01*
X128129800Y-82810802D01*
X128130012Y-82813375D01*
X128130012Y-82813386D01*
X128133644Y-82857564D01*
X128144478Y-82989337D01*
X128203006Y-83222344D01*
X128298803Y-83442663D01*
X128429298Y-83644377D01*
X128590986Y-83822070D01*
X128656105Y-83873498D01*
X128775470Y-83967767D01*
X128775475Y-83967770D01*
X128779524Y-83970968D01*
X128784040Y-83973461D01*
X128784043Y-83973463D01*
X128985326Y-84084577D01*
X128985330Y-84084579D01*
X128989850Y-84087074D01*
X128994719Y-84088798D01*
X128994723Y-84088800D01*
X129211440Y-84165544D01*
X129211444Y-84165545D01*
X129216315Y-84167270D01*
X129221408Y-84168177D01*
X129221411Y-84168178D01*
X129447748Y-84208495D01*
X129447754Y-84208496D01*
X129452837Y-84209401D01*
X129540200Y-84210468D01*
X129687893Y-84212273D01*
X129687895Y-84212273D01*
X129693063Y-84212336D01*
X129930544Y-84175996D01*
X130042797Y-84139306D01*
X130153983Y-84102966D01*
X130153989Y-84102963D01*
X130158901Y-84101358D01*
X130163487Y-84098971D01*
X130163491Y-84098969D01*
X130367407Y-83992816D01*
X130372000Y-83990425D01*
X130527732Y-83873498D01*
X130559985Y-83849282D01*
X130559988Y-83849280D01*
X130564120Y-83846177D01*
X130730101Y-83672488D01*
X130755640Y-83635049D01*
X130810551Y-83590048D01*
X130881075Y-83581877D01*
X130944822Y-83613131D01*
X130965516Y-83637610D01*
X130966885Y-83639726D01*
X130973178Y-83647898D01*
X131127850Y-83817880D01*
X131135383Y-83824906D01*
X131315744Y-83967345D01*
X131324331Y-83973050D01*
X131525522Y-84084114D01*
X131534934Y-84088344D01*
X131751568Y-84165059D01*
X131761539Y-84167693D01*
X131858963Y-84185047D01*
X131872260Y-84183587D01*
X131876343Y-84170496D01*
X132384800Y-84170496D01*
X132388718Y-84183840D01*
X132402994Y-84185827D01*
X132465315Y-84176290D01*
X132475343Y-84173901D01*
X132693788Y-84102502D01*
X132703297Y-84098505D01*
X132907144Y-83992389D01*
X132915861Y-83986900D01*
X133066899Y-83873498D01*
X133133384Y-83848593D01*
X133202780Y-83863586D01*
X133253053Y-83913716D01*
X133260532Y-83930025D01*
X133267685Y-83949105D01*
X133355039Y-84065661D01*
X133471595Y-84153015D01*
X133607984Y-84204145D01*
X133670166Y-84210900D01*
X135671434Y-84210900D01*
X135733616Y-84204145D01*
X135870005Y-84153015D01*
X135986561Y-84065661D01*
X136073915Y-83949105D01*
X136125045Y-83812716D01*
X136131800Y-83750534D01*
X136131800Y-81654266D01*
X136125045Y-81592084D01*
X136073915Y-81455695D01*
X136055332Y-81430900D01*
X137124451Y-81430900D01*
X137132017Y-81474764D01*
X137133114Y-81482574D01*
X137139869Y-81544756D01*
X137140191Y-81548148D01*
X137143533Y-81589233D01*
X137143764Y-81592635D01*
X137144501Y-81606243D01*
X137144639Y-81609649D01*
X137145754Y-81650858D01*
X137145800Y-81654266D01*
X137145800Y-82956900D01*
X138227300Y-82956900D01*
X139241300Y-82956900D01*
X140767300Y-82956900D01*
X141781300Y-82956900D01*
X143307300Y-82956900D01*
X144321300Y-82956900D01*
X145847300Y-82956900D01*
X145847300Y-82508046D01*
X146861300Y-82508046D01*
X146861300Y-82956900D01*
X148387300Y-82956900D01*
X149401300Y-82956900D01*
X150927300Y-82956900D01*
X151941300Y-82956900D01*
X153467300Y-82956900D01*
X153467300Y-82508046D01*
X154481300Y-82508046D01*
X154481300Y-82956900D01*
X156007300Y-82956900D01*
X156007300Y-82508410D01*
X155996036Y-82512510D01*
X155990828Y-82514278D01*
X155927428Y-82534267D01*
X155922152Y-82535805D01*
X155717897Y-82590535D01*
X155712558Y-82591841D01*
X155647665Y-82606228D01*
X155642274Y-82607301D01*
X155620645Y-82611115D01*
X155615211Y-82611951D01*
X155549297Y-82620629D01*
X155543832Y-82621228D01*
X155333177Y-82639658D01*
X155327692Y-82640017D01*
X155261279Y-82642917D01*
X155255782Y-82643037D01*
X155233818Y-82643037D01*
X155228321Y-82642917D01*
X155161908Y-82640017D01*
X155156423Y-82639658D01*
X154945768Y-82621228D01*
X154940303Y-82620629D01*
X154874389Y-82611951D01*
X154868955Y-82611115D01*
X154847326Y-82607301D01*
X154841935Y-82606228D01*
X154777042Y-82591841D01*
X154771703Y-82590535D01*
X154567448Y-82535805D01*
X154562172Y-82534267D01*
X154498772Y-82514278D01*
X154493564Y-82512510D01*
X154481300Y-82508046D01*
X153467300Y-82508046D01*
X153467300Y-81752676D01*
X153363590Y-81604562D01*
X153360536Y-81599993D01*
X153324832Y-81543950D01*
X153321982Y-81539252D01*
X153311000Y-81520232D01*
X153308354Y-81515411D01*
X153277647Y-81456425D01*
X153275215Y-81451493D01*
X153265612Y-81430900D01*
X151941300Y-81430900D01*
X151941300Y-82956900D01*
X150927300Y-82956900D01*
X150927300Y-81430900D01*
X149603988Y-81430900D01*
X149594385Y-81451493D01*
X149591953Y-81456425D01*
X149561246Y-81515411D01*
X149558600Y-81520232D01*
X149547618Y-81539252D01*
X149544768Y-81543950D01*
X149509064Y-81599993D01*
X149506010Y-81604562D01*
X149401300Y-81754104D01*
X149401300Y-82956900D01*
X148387300Y-82956900D01*
X148387300Y-82508410D01*
X148376036Y-82512510D01*
X148370828Y-82514278D01*
X148307428Y-82534267D01*
X148302152Y-82535805D01*
X148097897Y-82590535D01*
X148092558Y-82591841D01*
X148027665Y-82606228D01*
X148022274Y-82607301D01*
X148000645Y-82611115D01*
X147995211Y-82611951D01*
X147929297Y-82620629D01*
X147923832Y-82621228D01*
X147713177Y-82639658D01*
X147707692Y-82640017D01*
X147641279Y-82642917D01*
X147635782Y-82643037D01*
X147613818Y-82643037D01*
X147608321Y-82642917D01*
X147541908Y-82640017D01*
X147536423Y-82639658D01*
X147325768Y-82621228D01*
X147320303Y-82620629D01*
X147254389Y-82611951D01*
X147248955Y-82611115D01*
X147227326Y-82607301D01*
X147221935Y-82606228D01*
X147157042Y-82591841D01*
X147151703Y-82590535D01*
X146947448Y-82535805D01*
X146942172Y-82534267D01*
X146878772Y-82514278D01*
X146873564Y-82512510D01*
X146861300Y-82508046D01*
X145847300Y-82508046D01*
X145847300Y-81752676D01*
X145743590Y-81604562D01*
X145740536Y-81599993D01*
X145704832Y-81543950D01*
X145701982Y-81539252D01*
X145691000Y-81520232D01*
X145688354Y-81515411D01*
X145657647Y-81456425D01*
X145655215Y-81451493D01*
X145645612Y-81430900D01*
X144321300Y-81430900D01*
X144321300Y-82956900D01*
X143307300Y-82956900D01*
X143307300Y-81430900D01*
X141781300Y-81430900D01*
X141781300Y-82956900D01*
X140767300Y-82956900D01*
X140767300Y-81430900D01*
X139241300Y-81430900D01*
X139241300Y-82956900D01*
X138227300Y-82956900D01*
X138227300Y-81430900D01*
X137124451Y-81430900D01*
X136055332Y-81430900D01*
X135986561Y-81339139D01*
X135870005Y-81251785D01*
X135733616Y-81200655D01*
X135671434Y-81193900D01*
X133670166Y-81193900D01*
X133607984Y-81200655D01*
X133471595Y-81251785D01*
X133355039Y-81339139D01*
X133267685Y-81455695D01*
X133264534Y-81464101D01*
X133260042Y-81476083D01*
X133217399Y-81532847D01*
X133150838Y-81557546D01*
X133081489Y-81542338D01*
X133063968Y-81530734D01*
X132945856Y-81437455D01*
X132937269Y-81431750D01*
X132736078Y-81320686D01*
X132726666Y-81316456D01*
X132510032Y-81239741D01*
X132500061Y-81237107D01*
X132402637Y-81219753D01*
X132389340Y-81221213D01*
X132384800Y-81235770D01*
X132384800Y-84170496D01*
X131876343Y-84170496D01*
X131876800Y-84169030D01*
X131876800Y-81234304D01*
X131872882Y-81220960D01*
X131858606Y-81218973D01*
X131796285Y-81228510D01*
X131786257Y-81230899D01*
X131567812Y-81302298D01*
X131558303Y-81306295D01*
X131354456Y-81412411D01*
X131345731Y-81417905D01*
X131161948Y-81555893D01*
X131154241Y-81562736D01*
X130995461Y-81728891D01*
X130988977Y-81736898D01*
X130966563Y-81769756D01*
X130911652Y-81814759D01*
X130841128Y-81822932D01*
X130777380Y-81791678D01*
X130756684Y-81767196D01*
X130755111Y-81764765D01*
X130752302Y-81760423D01*
X130590614Y-81582730D01*
X130505373Y-81515411D01*
X130406130Y-81437033D01*
X130406125Y-81437030D01*
X130402076Y-81433832D01*
X130397560Y-81431339D01*
X130397557Y-81431337D01*
X130196274Y-81320223D01*
X130196270Y-81320221D01*
X130191750Y-81317726D01*
X130186881Y-81316002D01*
X130186877Y-81316000D01*
X129970160Y-81239256D01*
X129970156Y-81239255D01*
X129965285Y-81237530D01*
X129960192Y-81236623D01*
X129960189Y-81236622D01*
X129733852Y-81196305D01*
X129733846Y-81196304D01*
X129728763Y-81195399D01*
X129636274Y-81194269D01*
X129493707Y-81192527D01*
X129493705Y-81192527D01*
X129488537Y-81192464D01*
X129251056Y-81228804D01*
X129138803Y-81265494D01*
X129027617Y-81301834D01*
X129027611Y-81301837D01*
X129022699Y-81303442D01*
X129018113Y-81305829D01*
X129018109Y-81305831D01*
X128935452Y-81348860D01*
X128809600Y-81414375D01*
X128787591Y-81430900D01*
X128637023Y-81543950D01*
X128617480Y-81558623D01*
X128451499Y-81732312D01*
X128316114Y-81930778D01*
X128313940Y-81935461D01*
X128313938Y-81935465D01*
X128233285Y-82109218D01*
X128214963Y-82148690D01*
X128150760Y-82380198D01*
X128150211Y-82385335D01*
X128134131Y-82535805D01*
X128129800Y-82576328D01*
X128129800Y-82810802D01*
X127115800Y-82810802D01*
X127115800Y-82576328D01*
X127115845Y-82572977D01*
X127116923Y-82532456D01*
X127117056Y-82529107D01*
X127117769Y-82515718D01*
X127117992Y-82512370D01*
X127121228Y-82471919D01*
X127121540Y-82468578D01*
X127142500Y-82272448D01*
X127143155Y-82267318D01*
X127152344Y-82205477D01*
X127153209Y-82200381D01*
X127157079Y-82180098D01*
X127158150Y-82175046D01*
X127172361Y-82114223D01*
X127173640Y-82109218D01*
X127237843Y-81877710D01*
X127239325Y-81872762D01*
X127258471Y-81813304D01*
X127260154Y-81808420D01*
X127267283Y-81789042D01*
X127269167Y-81784228D01*
X127293139Y-81726494D01*
X127295219Y-81721762D01*
X127396370Y-81503850D01*
X127398642Y-81499208D01*
X127427257Y-81443648D01*
X127429717Y-81439103D01*
X127434377Y-81430900D01*
X126541300Y-81430900D01*
X126541300Y-82956900D01*
X125527300Y-82956900D01*
X125527300Y-81430900D01*
X124001300Y-81430900D01*
X124001300Y-82956900D01*
X122987300Y-82956900D01*
X122987300Y-81430900D01*
X122223300Y-81430900D01*
X122223300Y-82956900D01*
X121209300Y-82956900D01*
X121209300Y-80416900D01*
X122223300Y-80416900D01*
X122987300Y-80416900D01*
X124001300Y-80416900D01*
X125527300Y-80416900D01*
X139241300Y-80416900D01*
X140767300Y-80416900D01*
X141781300Y-80416900D01*
X143307300Y-80416900D01*
X144321300Y-80416900D01*
X145398163Y-80416900D01*
X145398163Y-80416400D01*
X146411684Y-80416400D01*
X146430114Y-80627055D01*
X146484844Y-80831310D01*
X146574211Y-81022958D01*
X146695499Y-81196176D01*
X146845024Y-81345701D01*
X147018242Y-81466989D01*
X147023220Y-81469310D01*
X147023223Y-81469312D01*
X147192288Y-81548148D01*
X147209890Y-81556356D01*
X147215198Y-81557778D01*
X147215200Y-81557779D01*
X147408830Y-81609662D01*
X147408832Y-81609662D01*
X147414145Y-81611086D01*
X147624800Y-81629516D01*
X147835455Y-81611086D01*
X147840768Y-81609662D01*
X147840770Y-81609662D01*
X148034400Y-81557779D01*
X148034402Y-81557778D01*
X148039710Y-81556356D01*
X148057312Y-81548148D01*
X148226377Y-81469312D01*
X148226380Y-81469310D01*
X148231358Y-81466989D01*
X148404576Y-81345701D01*
X148554101Y-81196176D01*
X148675389Y-81022958D01*
X148764756Y-80831310D01*
X148819486Y-80627055D01*
X148837916Y-80416400D01*
X148819486Y-80205745D01*
X148814442Y-80186920D01*
X148766179Y-80006800D01*
X148766178Y-80006798D01*
X148764756Y-80001490D01*
X148726775Y-79920039D01*
X148677712Y-79814823D01*
X148677710Y-79814820D01*
X148675389Y-79809842D01*
X148554101Y-79636624D01*
X148404576Y-79487099D01*
X148231358Y-79365811D01*
X148226380Y-79363490D01*
X148226377Y-79363488D01*
X148044692Y-79278767D01*
X148044691Y-79278766D01*
X148039710Y-79276444D01*
X148034402Y-79275022D01*
X148034400Y-79275021D01*
X147840770Y-79223138D01*
X147840768Y-79223138D01*
X147835455Y-79221714D01*
X147624800Y-79203284D01*
X147414145Y-79221714D01*
X147408832Y-79223138D01*
X147408830Y-79223138D01*
X147215200Y-79275021D01*
X147215198Y-79275022D01*
X147209890Y-79276444D01*
X147204909Y-79278766D01*
X147204908Y-79278767D01*
X147023223Y-79363488D01*
X147023220Y-79363490D01*
X147018242Y-79365811D01*
X146845024Y-79487099D01*
X146695499Y-79636624D01*
X146574211Y-79809842D01*
X146571890Y-79814820D01*
X146571888Y-79814823D01*
X146522825Y-79920039D01*
X146484844Y-80001490D01*
X146483422Y-80006798D01*
X146483421Y-80006800D01*
X146435158Y-80186920D01*
X146430114Y-80205745D01*
X146411684Y-80416400D01*
X145398163Y-80416400D01*
X145398163Y-80405418D01*
X145398283Y-80399921D01*
X145401183Y-80333508D01*
X145401542Y-80328023D01*
X145419972Y-80117368D01*
X145420571Y-80111903D01*
X145429249Y-80045989D01*
X145430085Y-80040555D01*
X145433899Y-80018926D01*
X145434972Y-80013535D01*
X145449359Y-79948642D01*
X145450665Y-79943303D01*
X145505395Y-79739048D01*
X145506933Y-79733772D01*
X145526922Y-79670372D01*
X145528690Y-79665164D01*
X145536202Y-79644525D01*
X145538195Y-79639400D01*
X145563635Y-79577985D01*
X145565848Y-79572955D01*
X145655215Y-79381307D01*
X145657647Y-79376375D01*
X145688354Y-79317389D01*
X145691000Y-79312568D01*
X145701982Y-79293548D01*
X145704832Y-79288850D01*
X145740536Y-79232807D01*
X145743590Y-79228238D01*
X145847300Y-79080124D01*
X145847300Y-79078696D01*
X149401300Y-79078696D01*
X149506010Y-79228238D01*
X149509064Y-79232807D01*
X149544768Y-79288850D01*
X149547618Y-79293548D01*
X149558600Y-79312568D01*
X149561246Y-79317389D01*
X149591953Y-79376375D01*
X149594385Y-79381307D01*
X149683752Y-79572955D01*
X149685965Y-79577985D01*
X149711405Y-79639400D01*
X149713398Y-79644525D01*
X149720910Y-79665164D01*
X149722678Y-79670372D01*
X149742667Y-79733772D01*
X149744205Y-79739048D01*
X149798935Y-79943303D01*
X149800241Y-79948642D01*
X149814628Y-80013535D01*
X149815701Y-80018926D01*
X149819515Y-80040555D01*
X149820351Y-80045989D01*
X149829029Y-80111903D01*
X149829628Y-80117368D01*
X149848058Y-80328023D01*
X149848417Y-80333508D01*
X149851317Y-80399921D01*
X149851437Y-80405418D01*
X149851437Y-80416900D01*
X150927300Y-80416900D01*
X151941300Y-80416900D01*
X153018163Y-80416900D01*
X153018163Y-80416400D01*
X154031684Y-80416400D01*
X154050114Y-80627055D01*
X154104844Y-80831310D01*
X154194211Y-81022958D01*
X154315499Y-81196176D01*
X154465024Y-81345701D01*
X154638242Y-81466989D01*
X154643220Y-81469310D01*
X154643223Y-81469312D01*
X154812288Y-81548148D01*
X154829890Y-81556356D01*
X154835198Y-81557778D01*
X154835200Y-81557779D01*
X155028830Y-81609662D01*
X155028832Y-81609662D01*
X155034145Y-81611086D01*
X155244800Y-81629516D01*
X155455455Y-81611086D01*
X155460768Y-81609662D01*
X155460770Y-81609662D01*
X155654400Y-81557779D01*
X155654402Y-81557778D01*
X155659710Y-81556356D01*
X155677312Y-81548148D01*
X155846377Y-81469312D01*
X155846380Y-81469310D01*
X155851358Y-81466989D01*
X156024576Y-81345701D01*
X156174101Y-81196176D01*
X156295389Y-81022958D01*
X156384756Y-80831310D01*
X156439486Y-80627055D01*
X156457916Y-80416400D01*
X156439486Y-80205745D01*
X156434442Y-80186920D01*
X156386179Y-80006800D01*
X156386178Y-80006798D01*
X156384756Y-80001490D01*
X156346775Y-79920039D01*
X156297712Y-79814823D01*
X156297710Y-79814820D01*
X156295389Y-79809842D01*
X156174101Y-79636624D01*
X156024576Y-79487099D01*
X155851358Y-79365811D01*
X155846380Y-79363490D01*
X155846377Y-79363488D01*
X155664692Y-79278767D01*
X155664691Y-79278766D01*
X155659710Y-79276444D01*
X155654402Y-79275022D01*
X155654400Y-79275021D01*
X155460770Y-79223138D01*
X155460768Y-79223138D01*
X155455455Y-79221714D01*
X155244800Y-79203284D01*
X155034145Y-79221714D01*
X155028832Y-79223138D01*
X155028830Y-79223138D01*
X154835200Y-79275021D01*
X154835198Y-79275022D01*
X154829890Y-79276444D01*
X154824909Y-79278766D01*
X154824908Y-79278767D01*
X154643223Y-79363488D01*
X154643220Y-79363490D01*
X154638242Y-79365811D01*
X154465024Y-79487099D01*
X154315499Y-79636624D01*
X154194211Y-79809842D01*
X154191890Y-79814820D01*
X154191888Y-79814823D01*
X154142825Y-79920039D01*
X154104844Y-80001490D01*
X154103422Y-80006798D01*
X154103421Y-80006800D01*
X154055158Y-80186920D01*
X154050114Y-80205745D01*
X154031684Y-80416400D01*
X153018163Y-80416400D01*
X153018163Y-80405418D01*
X153018283Y-80399921D01*
X153021183Y-80333508D01*
X153021542Y-80328023D01*
X153039972Y-80117368D01*
X153040571Y-80111903D01*
X153049249Y-80045989D01*
X153050085Y-80040555D01*
X153053899Y-80018926D01*
X153054972Y-80013535D01*
X153069359Y-79948642D01*
X153070665Y-79943303D01*
X153125395Y-79739048D01*
X153126933Y-79733772D01*
X153146922Y-79670372D01*
X153148690Y-79665164D01*
X153156202Y-79644525D01*
X153158195Y-79639400D01*
X153183635Y-79577985D01*
X153185848Y-79572955D01*
X153275215Y-79381307D01*
X153277647Y-79376375D01*
X153308354Y-79317389D01*
X153311000Y-79312568D01*
X153321982Y-79293548D01*
X153324832Y-79288850D01*
X153360536Y-79232807D01*
X153363590Y-79228238D01*
X153467300Y-79080124D01*
X153467300Y-78890900D01*
X151941300Y-78890900D01*
X151941300Y-80416900D01*
X150927300Y-80416900D01*
X150927300Y-78890900D01*
X149401300Y-78890900D01*
X149401300Y-79078696D01*
X145847300Y-79078696D01*
X145847300Y-78890900D01*
X144321300Y-78890900D01*
X144321300Y-80416900D01*
X143307300Y-80416900D01*
X143307300Y-78890900D01*
X141781300Y-78890900D01*
X141781300Y-80416900D01*
X140767300Y-80416900D01*
X140767300Y-78890900D01*
X139930546Y-78890900D01*
X139930533Y-78890933D01*
X139905094Y-78952346D01*
X139902881Y-78957376D01*
X139806120Y-79164882D01*
X139803689Y-79169812D01*
X139772990Y-79228785D01*
X139770345Y-79233606D01*
X139759363Y-79252627D01*
X139756511Y-79257327D01*
X139720796Y-79313387D01*
X139717742Y-79317957D01*
X139586417Y-79505508D01*
X139583165Y-79509943D01*
X139542681Y-79562701D01*
X139539239Y-79566990D01*
X139525121Y-79583814D01*
X139521497Y-79587945D01*
X139476603Y-79636936D01*
X139472803Y-79640905D01*
X139310905Y-79802803D01*
X139306936Y-79806603D01*
X139257945Y-79851497D01*
X139253814Y-79855121D01*
X139241300Y-79865622D01*
X139241300Y-80416900D01*
X125527300Y-80416900D01*
X125527300Y-80230073D01*
X131621300Y-80230073D01*
X131632704Y-80227846D01*
X131637793Y-80226960D01*
X131723421Y-80213857D01*
X131741625Y-80212410D01*
X131961912Y-80210915D01*
X131980134Y-80212115D01*
X132051535Y-80222051D01*
X132062866Y-80224160D01*
X132147670Y-80243997D01*
X132215268Y-80222665D01*
X132239439Y-80217576D01*
X132310011Y-80209830D01*
X132327976Y-80209149D01*
X132544744Y-80216409D01*
X132562622Y-80218291D01*
X132682979Y-80239730D01*
X132688044Y-80240739D01*
X132749039Y-80254204D01*
X132754060Y-80255421D01*
X132774024Y-80260695D01*
X132778994Y-80262118D01*
X132838730Y-80280551D01*
X132843638Y-80282176D01*
X133021448Y-80345142D01*
X133107380Y-80305753D01*
X133115652Y-80302311D01*
X133147300Y-80290447D01*
X133147300Y-79165662D01*
X134528093Y-79165662D01*
X134537389Y-79177677D01*
X134588594Y-79213531D01*
X134598089Y-79219014D01*
X134795547Y-79311090D01*
X134805839Y-79314836D01*
X135016288Y-79371225D01*
X135027081Y-79373128D01*
X135244125Y-79392117D01*
X135255075Y-79392117D01*
X135472119Y-79373128D01*
X135482912Y-79371225D01*
X135693361Y-79314836D01*
X135703653Y-79311090D01*
X135901111Y-79219014D01*
X135910606Y-79213531D01*
X135962648Y-79177091D01*
X135971024Y-79166612D01*
X135963956Y-79153166D01*
X135262412Y-78451622D01*
X135248468Y-78444008D01*
X135246635Y-78444139D01*
X135240020Y-78448390D01*
X134534523Y-79153887D01*
X134528093Y-79165662D01*
X133147300Y-79165662D01*
X133147300Y-79065524D01*
X133096791Y-78957207D01*
X133094578Y-78952176D01*
X133069196Y-78890900D01*
X132765268Y-78890900D01*
X132759006Y-78910762D01*
X132757238Y-78915969D01*
X132749726Y-78936608D01*
X132747733Y-78941733D01*
X132722294Y-79003146D01*
X132720081Y-79008176D01*
X132623320Y-79215682D01*
X132620889Y-79220612D01*
X132590190Y-79279585D01*
X132587545Y-79284406D01*
X132576563Y-79303427D01*
X132573711Y-79308127D01*
X132537996Y-79364187D01*
X132534942Y-79368757D01*
X132403617Y-79556308D01*
X132400365Y-79560743D01*
X132359881Y-79613501D01*
X132356439Y-79617790D01*
X132342321Y-79634614D01*
X132338697Y-79638745D01*
X132293803Y-79687736D01*
X132290003Y-79691705D01*
X132128105Y-79853603D01*
X132124136Y-79857403D01*
X132075145Y-79902297D01*
X132071014Y-79905921D01*
X132054190Y-79920039D01*
X132049901Y-79923481D01*
X131997143Y-79963965D01*
X131992708Y-79967217D01*
X131805157Y-80098542D01*
X131800587Y-80101596D01*
X131744527Y-80137311D01*
X131739827Y-80140163D01*
X131720806Y-80151145D01*
X131715985Y-80153790D01*
X131657012Y-80184489D01*
X131652081Y-80186920D01*
X131621300Y-80201273D01*
X131621300Y-80230073D01*
X125527300Y-80230073D01*
X125527300Y-79216462D01*
X127345293Y-79216462D01*
X127354589Y-79228477D01*
X127405794Y-79264331D01*
X127415289Y-79269814D01*
X127612747Y-79361890D01*
X127623039Y-79365636D01*
X127833488Y-79422025D01*
X127844281Y-79423928D01*
X128061325Y-79442917D01*
X128072275Y-79442917D01*
X128289319Y-79423928D01*
X128300112Y-79422025D01*
X128510561Y-79365636D01*
X128520853Y-79361890D01*
X128718311Y-79269814D01*
X128727806Y-79264331D01*
X128779848Y-79227891D01*
X128788224Y-79217412D01*
X128781156Y-79203966D01*
X128079612Y-78502422D01*
X128065668Y-78494808D01*
X128063835Y-78494939D01*
X128057220Y-78499190D01*
X127351723Y-79204687D01*
X127345293Y-79216462D01*
X125527300Y-79216462D01*
X125527300Y-78890900D01*
X124001300Y-78890900D01*
X124001300Y-80416900D01*
X122987300Y-80416900D01*
X122987300Y-78890900D01*
X122223300Y-78890900D01*
X122223300Y-80416900D01*
X121209300Y-80416900D01*
X121209300Y-78135875D01*
X126754283Y-78135875D01*
X126773272Y-78352919D01*
X126775175Y-78363712D01*
X126831564Y-78574161D01*
X126835310Y-78584453D01*
X126927386Y-78781911D01*
X126932869Y-78791406D01*
X126969309Y-78843448D01*
X126979788Y-78851824D01*
X126993234Y-78844756D01*
X127694778Y-78143212D01*
X127701156Y-78131532D01*
X128431208Y-78131532D01*
X128431339Y-78133365D01*
X128435590Y-78139980D01*
X129141087Y-78845477D01*
X129152862Y-78851907D01*
X129164877Y-78842611D01*
X129200734Y-78791402D01*
X129207391Y-78779872D01*
X129258773Y-78730879D01*
X129328487Y-78717442D01*
X129394398Y-78743829D01*
X129425629Y-78779872D01*
X129426953Y-78782165D01*
X129429277Y-78787149D01*
X129439051Y-78801107D01*
X129548472Y-78957376D01*
X129560602Y-78974700D01*
X129722500Y-79136598D01*
X129727008Y-79139755D01*
X129727011Y-79139757D01*
X129765364Y-79166612D01*
X129910051Y-79267923D01*
X129915033Y-79270246D01*
X129915038Y-79270249D01*
X130111565Y-79361890D01*
X130117557Y-79364684D01*
X130122865Y-79366106D01*
X130122867Y-79366107D01*
X130333398Y-79422519D01*
X130333400Y-79422519D01*
X130338713Y-79423943D01*
X130566800Y-79443898D01*
X130794887Y-79423943D01*
X130800200Y-79422519D01*
X130800202Y-79422519D01*
X131010733Y-79366107D01*
X131010735Y-79366106D01*
X131016043Y-79364684D01*
X131022035Y-79361890D01*
X131218562Y-79270249D01*
X131218567Y-79270246D01*
X131223549Y-79267923D01*
X131368236Y-79166612D01*
X131406589Y-79139757D01*
X131406592Y-79139755D01*
X131411100Y-79136598D01*
X131572998Y-78974700D01*
X131585129Y-78957376D01*
X131694549Y-78801107D01*
X131704323Y-78787149D01*
X131706646Y-78782167D01*
X131706649Y-78782162D01*
X131798761Y-78584625D01*
X131798761Y-78584624D01*
X131801084Y-78579643D01*
X131821776Y-78502422D01*
X131858919Y-78363802D01*
X131858919Y-78363800D01*
X131860343Y-78358487D01*
X131880298Y-78130400D01*
X131876333Y-78085075D01*
X133937083Y-78085075D01*
X133956072Y-78302119D01*
X133957975Y-78312912D01*
X134014364Y-78523361D01*
X134018110Y-78533653D01*
X134110186Y-78731111D01*
X134115669Y-78740606D01*
X134152109Y-78792648D01*
X134162588Y-78801024D01*
X134176034Y-78793956D01*
X134877578Y-78092412D01*
X134883956Y-78080732D01*
X135614008Y-78080732D01*
X135614139Y-78082565D01*
X135618390Y-78089180D01*
X136323887Y-78794677D01*
X136335662Y-78801107D01*
X136347677Y-78791811D01*
X136383534Y-78740602D01*
X136390191Y-78729072D01*
X136441573Y-78680079D01*
X136511287Y-78666642D01*
X136577198Y-78693029D01*
X136608429Y-78729072D01*
X136609753Y-78731365D01*
X136612077Y-78736349D01*
X136650801Y-78791653D01*
X136737849Y-78915969D01*
X136743402Y-78923900D01*
X136905300Y-79085798D01*
X136909808Y-79088955D01*
X136909811Y-79088957D01*
X136972284Y-79132701D01*
X137092851Y-79217123D01*
X137097833Y-79219446D01*
X137097838Y-79219449D01*
X137288011Y-79308127D01*
X137300357Y-79313884D01*
X137305665Y-79315306D01*
X137305667Y-79315307D01*
X137516198Y-79371719D01*
X137516200Y-79371719D01*
X137521513Y-79373143D01*
X137749600Y-79393098D01*
X137977687Y-79373143D01*
X137983000Y-79371719D01*
X137983002Y-79371719D01*
X138193533Y-79315307D01*
X138193535Y-79315306D01*
X138198843Y-79313884D01*
X138211189Y-79308127D01*
X138401362Y-79219449D01*
X138401367Y-79219446D01*
X138406349Y-79217123D01*
X138526916Y-79132701D01*
X138589389Y-79088957D01*
X138589392Y-79088955D01*
X138593900Y-79085798D01*
X138755798Y-78923900D01*
X138761352Y-78915969D01*
X138848396Y-78791657D01*
X138887123Y-78736349D01*
X138889446Y-78731367D01*
X138889449Y-78731362D01*
X138981561Y-78533825D01*
X138981561Y-78533824D01*
X138983884Y-78528843D01*
X139004576Y-78451622D01*
X139041719Y-78313002D01*
X139041719Y-78313000D01*
X139043143Y-78307687D01*
X139063098Y-78079600D01*
X139043143Y-77851513D01*
X139041719Y-77846198D01*
X138985307Y-77635667D01*
X138985306Y-77635665D01*
X138983884Y-77630357D01*
X138943316Y-77543357D01*
X138889449Y-77427838D01*
X138889446Y-77427833D01*
X138887123Y-77422851D01*
X138800568Y-77299238D01*
X138758957Y-77239811D01*
X138758955Y-77239808D01*
X138755798Y-77235300D01*
X138593900Y-77073402D01*
X138589392Y-77070245D01*
X138589389Y-77070243D01*
X138496659Y-77005313D01*
X138406349Y-76942077D01*
X138401367Y-76939754D01*
X138401362Y-76939751D01*
X138203825Y-76847639D01*
X138203824Y-76847639D01*
X138198843Y-76845316D01*
X138193535Y-76843894D01*
X138193533Y-76843893D01*
X137983002Y-76787481D01*
X137983000Y-76787481D01*
X137977687Y-76786057D01*
X137749600Y-76766102D01*
X137521513Y-76786057D01*
X137516200Y-76787481D01*
X137516198Y-76787481D01*
X137305667Y-76843893D01*
X137305665Y-76843894D01*
X137300357Y-76845316D01*
X137295376Y-76847639D01*
X137295375Y-76847639D01*
X137097838Y-76939751D01*
X137097833Y-76939754D01*
X137092851Y-76942077D01*
X137002541Y-77005313D01*
X136909811Y-77070243D01*
X136909808Y-77070245D01*
X136905300Y-77073402D01*
X136743402Y-77235300D01*
X136740245Y-77239808D01*
X136740243Y-77239811D01*
X136681159Y-77324192D01*
X136612077Y-77422851D01*
X136609753Y-77427835D01*
X136608429Y-77430128D01*
X136557047Y-77479121D01*
X136487333Y-77492557D01*
X136421422Y-77466171D01*
X136390191Y-77430128D01*
X136383534Y-77418598D01*
X136347091Y-77366552D01*
X136336612Y-77358176D01*
X136323166Y-77365244D01*
X135621622Y-78066788D01*
X135614008Y-78080732D01*
X134883956Y-78080732D01*
X134885192Y-78078468D01*
X134885061Y-78076635D01*
X134880810Y-78070020D01*
X134175313Y-77364523D01*
X134163538Y-77358093D01*
X134151523Y-77367389D01*
X134115669Y-77418594D01*
X134110186Y-77428089D01*
X134018110Y-77625547D01*
X134014364Y-77635839D01*
X133957975Y-77846288D01*
X133956072Y-77857081D01*
X133937083Y-78074125D01*
X133937083Y-78085075D01*
X131876333Y-78085075D01*
X131860343Y-77902313D01*
X131848223Y-77857081D01*
X131802507Y-77686467D01*
X131802506Y-77686465D01*
X131801084Y-77681157D01*
X131790938Y-77659398D01*
X131706649Y-77478638D01*
X131706646Y-77478633D01*
X131704323Y-77473651D01*
X131614122Y-77344831D01*
X131576157Y-77290611D01*
X131576155Y-77290608D01*
X131572998Y-77286100D01*
X131411100Y-77124202D01*
X131406592Y-77121045D01*
X131406589Y-77121043D01*
X131313859Y-77056113D01*
X131223549Y-76992877D01*
X131218567Y-76990554D01*
X131218562Y-76990551D01*
X131021025Y-76898439D01*
X131021024Y-76898439D01*
X131016043Y-76896116D01*
X131010735Y-76894694D01*
X131010733Y-76894693D01*
X130800202Y-76838281D01*
X130800200Y-76838281D01*
X130794887Y-76836857D01*
X130566800Y-76816902D01*
X130338713Y-76836857D01*
X130333400Y-76838281D01*
X130333398Y-76838281D01*
X130122867Y-76894693D01*
X130122865Y-76894694D01*
X130117557Y-76896116D01*
X130112576Y-76898439D01*
X130112575Y-76898439D01*
X129915038Y-76990551D01*
X129915033Y-76990554D01*
X129910051Y-76992877D01*
X129819741Y-77056113D01*
X129727011Y-77121043D01*
X129727008Y-77121045D01*
X129722500Y-77124202D01*
X129560602Y-77286100D01*
X129557445Y-77290608D01*
X129557443Y-77290611D01*
X129519478Y-77344831D01*
X129429277Y-77473651D01*
X129426953Y-77478635D01*
X129425629Y-77480928D01*
X129374247Y-77529921D01*
X129304533Y-77543357D01*
X129238622Y-77516971D01*
X129207391Y-77480928D01*
X129200734Y-77469398D01*
X129164291Y-77417352D01*
X129153812Y-77408976D01*
X129140366Y-77416044D01*
X128438822Y-78117588D01*
X128431208Y-78131532D01*
X127701156Y-78131532D01*
X127702392Y-78129268D01*
X127702261Y-78127435D01*
X127698010Y-78120820D01*
X126992513Y-77415323D01*
X126980738Y-77408893D01*
X126968723Y-77418189D01*
X126932869Y-77469394D01*
X126927386Y-77478889D01*
X126835310Y-77676347D01*
X126831564Y-77686639D01*
X126775175Y-77897088D01*
X126773272Y-77907881D01*
X126754283Y-78124925D01*
X126754283Y-78135875D01*
X121209300Y-78135875D01*
X121209300Y-77876900D01*
X122223300Y-77876900D01*
X122987300Y-77876900D01*
X124001300Y-77876900D01*
X125527300Y-77876900D01*
X125527300Y-77043388D01*
X127345376Y-77043388D01*
X127352444Y-77056834D01*
X128053988Y-77758378D01*
X128067932Y-77765992D01*
X128069765Y-77765861D01*
X128076380Y-77761610D01*
X128781877Y-77056113D01*
X128788307Y-77044338D01*
X128779011Y-77032323D01*
X128727806Y-76996469D01*
X128718311Y-76990986D01*
X128520853Y-76898910D01*
X128510561Y-76895164D01*
X128300112Y-76838775D01*
X128289319Y-76836872D01*
X128072275Y-76817883D01*
X128061325Y-76817883D01*
X127844281Y-76836872D01*
X127833488Y-76838775D01*
X127623039Y-76895164D01*
X127612747Y-76898910D01*
X127415289Y-76990986D01*
X127405794Y-76996469D01*
X127353752Y-77032909D01*
X127345376Y-77043388D01*
X125527300Y-77043388D01*
X125527300Y-76350900D01*
X132066272Y-76350900D01*
X132071014Y-76354879D01*
X132075145Y-76358503D01*
X132124136Y-76403397D01*
X132128105Y-76407197D01*
X132290003Y-76569095D01*
X132293803Y-76573064D01*
X132338697Y-76622055D01*
X132342321Y-76626186D01*
X132356439Y-76643010D01*
X132359881Y-76647299D01*
X132400365Y-76700057D01*
X132403617Y-76704492D01*
X132534942Y-76892043D01*
X132537996Y-76896613D01*
X132573711Y-76952673D01*
X132576563Y-76957373D01*
X132587545Y-76976394D01*
X132590190Y-76981215D01*
X132620889Y-77040188D01*
X132623320Y-77045118D01*
X132720081Y-77252624D01*
X132722294Y-77257654D01*
X132747733Y-77319067D01*
X132749726Y-77324192D01*
X132757238Y-77344831D01*
X132759006Y-77350038D01*
X132778995Y-77413437D01*
X132780533Y-77418714D01*
X132839792Y-77639870D01*
X132841098Y-77645209D01*
X132855485Y-77710103D01*
X132856558Y-77715494D01*
X132860372Y-77737123D01*
X132861208Y-77742557D01*
X132869886Y-77808471D01*
X132870485Y-77813937D01*
X132875993Y-77876900D01*
X132936464Y-77876900D01*
X132946409Y-77763227D01*
X132947008Y-77757762D01*
X132955685Y-77691852D01*
X132956521Y-77686418D01*
X132960335Y-77664788D01*
X132961407Y-77659398D01*
X132975794Y-77594500D01*
X132977101Y-77589159D01*
X133036337Y-77368087D01*
X133037876Y-77362809D01*
X133057866Y-77299409D01*
X133059633Y-77294203D01*
X133067145Y-77273564D01*
X133069138Y-77268440D01*
X133094578Y-77207024D01*
X133096791Y-77201993D01*
X133147300Y-77093676D01*
X133147300Y-76992588D01*
X134528176Y-76992588D01*
X134535244Y-77006034D01*
X135236788Y-77707578D01*
X135250732Y-77715192D01*
X135252565Y-77715061D01*
X135259180Y-77710810D01*
X135964677Y-77005313D01*
X135971107Y-76993538D01*
X135961811Y-76981523D01*
X135910606Y-76945669D01*
X135901111Y-76940186D01*
X135703653Y-76848110D01*
X135693361Y-76844364D01*
X135482912Y-76787975D01*
X135472119Y-76786072D01*
X135255075Y-76767083D01*
X135244125Y-76767083D01*
X135027081Y-76786072D01*
X135016288Y-76787975D01*
X134805839Y-76844364D01*
X134795547Y-76848110D01*
X134598089Y-76940186D01*
X134588594Y-76945669D01*
X134536552Y-76982109D01*
X134528176Y-76992588D01*
X133147300Y-76992588D01*
X133147300Y-76350900D01*
X139305084Y-76350900D01*
X139306936Y-76352597D01*
X139310905Y-76356397D01*
X139472803Y-76518295D01*
X139476603Y-76522264D01*
X139521497Y-76571255D01*
X139525121Y-76575386D01*
X139539239Y-76592210D01*
X139542681Y-76596499D01*
X139583165Y-76649257D01*
X139586417Y-76653692D01*
X139717742Y-76841243D01*
X139720796Y-76845813D01*
X139756511Y-76901873D01*
X139759363Y-76906573D01*
X139770345Y-76925594D01*
X139772990Y-76930415D01*
X139803689Y-76989388D01*
X139806120Y-76994318D01*
X139902881Y-77201824D01*
X139905094Y-77206854D01*
X139930533Y-77268267D01*
X139932526Y-77273392D01*
X139940038Y-77294031D01*
X139941806Y-77299238D01*
X139961795Y-77362637D01*
X139963333Y-77367914D01*
X140022592Y-77589070D01*
X140023898Y-77594409D01*
X140038285Y-77659303D01*
X140039358Y-77664694D01*
X140043172Y-77686323D01*
X140044008Y-77691757D01*
X140052686Y-77757671D01*
X140053285Y-77763136D01*
X140063238Y-77876900D01*
X140767300Y-77876900D01*
X141781300Y-77876900D01*
X143307300Y-77876900D01*
X144321300Y-77876900D01*
X145847300Y-77876900D01*
X146861300Y-77876900D01*
X148387300Y-77876900D01*
X149401300Y-77876900D01*
X150927300Y-77876900D01*
X151941300Y-77876900D01*
X153467300Y-77876900D01*
X154481300Y-77876900D01*
X156007300Y-77876900D01*
X156007300Y-76350900D01*
X154481300Y-76350900D01*
X154481300Y-77876900D01*
X153467300Y-77876900D01*
X153467300Y-76350900D01*
X151941300Y-76350900D01*
X151941300Y-77876900D01*
X150927300Y-77876900D01*
X150927300Y-76350900D01*
X149401300Y-76350900D01*
X149401300Y-77876900D01*
X148387300Y-77876900D01*
X148387300Y-76350900D01*
X146861300Y-76350900D01*
X146861300Y-77876900D01*
X145847300Y-77876900D01*
X145847300Y-76350900D01*
X144321300Y-76350900D01*
X144321300Y-77876900D01*
X143307300Y-77876900D01*
X143307300Y-76350900D01*
X141781300Y-76350900D01*
X141781300Y-77876900D01*
X140767300Y-77876900D01*
X140767300Y-76350900D01*
X139305084Y-76350900D01*
X133147300Y-76350900D01*
X132066272Y-76350900D01*
X125527300Y-76350900D01*
X124001300Y-76350900D01*
X124001300Y-77876900D01*
X122987300Y-77876900D01*
X122987300Y-76350900D01*
X122223300Y-76350900D01*
X122223300Y-77876900D01*
X121209300Y-77876900D01*
X121209300Y-75336900D01*
X122223300Y-75336900D01*
X122987300Y-75336900D01*
X124001300Y-75336900D01*
X125527300Y-75336900D01*
X125527300Y-74066400D01*
X126773302Y-74066400D01*
X126793257Y-74294487D01*
X126794681Y-74299800D01*
X126794681Y-74299802D01*
X126831825Y-74438422D01*
X126852516Y-74515643D01*
X126854839Y-74520624D01*
X126854839Y-74520625D01*
X126946951Y-74718162D01*
X126946954Y-74718167D01*
X126949277Y-74723149D01*
X126988112Y-74778611D01*
X127039358Y-74851797D01*
X127080602Y-74910700D01*
X127242500Y-75072598D01*
X127247008Y-75075755D01*
X127247011Y-75075757D01*
X127325189Y-75130498D01*
X127430051Y-75203923D01*
X127435033Y-75206246D01*
X127435038Y-75206249D01*
X127631565Y-75297890D01*
X127637557Y-75300684D01*
X127642865Y-75302106D01*
X127642867Y-75302107D01*
X127853398Y-75358519D01*
X127853400Y-75358519D01*
X127858713Y-75359943D01*
X128086800Y-75379898D01*
X128314887Y-75359943D01*
X128320200Y-75358519D01*
X128320202Y-75358519D01*
X128530733Y-75302107D01*
X128530735Y-75302106D01*
X128536043Y-75300684D01*
X128542035Y-75297890D01*
X128738562Y-75206249D01*
X128738567Y-75206246D01*
X128743549Y-75203923D01*
X128817043Y-75152462D01*
X129865293Y-75152462D01*
X129874589Y-75164477D01*
X129925794Y-75200331D01*
X129935289Y-75205814D01*
X130132747Y-75297890D01*
X130143039Y-75301636D01*
X130353488Y-75358025D01*
X130364281Y-75359928D01*
X130581325Y-75378917D01*
X130592275Y-75378917D01*
X130809319Y-75359928D01*
X130820112Y-75358025D01*
X130898952Y-75336900D01*
X132531825Y-75336900D01*
X133147300Y-75336900D01*
X134161300Y-75336900D01*
X135687300Y-75336900D01*
X136701300Y-75336900D01*
X138227300Y-75336900D01*
X139241300Y-75336900D01*
X140767300Y-75336900D01*
X141781300Y-75336900D01*
X143307300Y-75336900D01*
X144321300Y-75336900D01*
X145847300Y-75336900D01*
X146861300Y-75336900D01*
X148387300Y-75336900D01*
X149401300Y-75336900D01*
X150927300Y-75336900D01*
X151941300Y-75336900D01*
X153467300Y-75336900D01*
X154481300Y-75336900D01*
X156007300Y-75336900D01*
X156007300Y-73810900D01*
X154481300Y-73810900D01*
X154481300Y-75336900D01*
X153467300Y-75336900D01*
X153467300Y-73810900D01*
X151941300Y-73810900D01*
X151941300Y-75336900D01*
X150927300Y-75336900D01*
X150927300Y-73810900D01*
X149401300Y-73810900D01*
X149401300Y-75336900D01*
X148387300Y-75336900D01*
X148387300Y-73810900D01*
X146861300Y-73810900D01*
X146861300Y-75336900D01*
X145847300Y-75336900D01*
X145847300Y-73810900D01*
X144321300Y-73810900D01*
X144321300Y-75336900D01*
X143307300Y-75336900D01*
X143307300Y-73810900D01*
X141781300Y-73810900D01*
X141781300Y-75336900D01*
X140767300Y-75336900D01*
X140767300Y-73810900D01*
X139241300Y-73810900D01*
X139241300Y-75336900D01*
X138227300Y-75336900D01*
X138227300Y-73810900D01*
X136701300Y-73810900D01*
X136701300Y-75336900D01*
X135687300Y-75336900D01*
X135687300Y-73810900D01*
X134161300Y-73810900D01*
X134161300Y-75336900D01*
X133147300Y-75336900D01*
X133147300Y-73810900D01*
X132895317Y-73810900D01*
X132909938Y-73978026D01*
X132910297Y-73983510D01*
X132913197Y-74049922D01*
X132913317Y-74055419D01*
X132913317Y-74077381D01*
X132913197Y-74082878D01*
X132910297Y-74149290D01*
X132909938Y-74154774D01*
X132889991Y-74382773D01*
X132889392Y-74388238D01*
X132880715Y-74454148D01*
X132879879Y-74459582D01*
X132876065Y-74481212D01*
X132874993Y-74486602D01*
X132860606Y-74551500D01*
X132859299Y-74556841D01*
X132800063Y-74777913D01*
X132798524Y-74783191D01*
X132778534Y-74846591D01*
X132776767Y-74851797D01*
X132769255Y-74872436D01*
X132767262Y-74877560D01*
X132741822Y-74938976D01*
X132739609Y-74944007D01*
X132642884Y-75151434D01*
X132640452Y-75156365D01*
X132609754Y-75215335D01*
X132607110Y-75220155D01*
X132596128Y-75239176D01*
X132593276Y-75243876D01*
X132557560Y-75299938D01*
X132554506Y-75304508D01*
X132531825Y-75336900D01*
X130898952Y-75336900D01*
X131030561Y-75301636D01*
X131040853Y-75297890D01*
X131238311Y-75205814D01*
X131247806Y-75200331D01*
X131299848Y-75163891D01*
X131308224Y-75153412D01*
X131301156Y-75139966D01*
X130599612Y-74438422D01*
X130585668Y-74430808D01*
X130583835Y-74430939D01*
X130577220Y-74435190D01*
X129871723Y-75140687D01*
X129865293Y-75152462D01*
X128817043Y-75152462D01*
X128848411Y-75130498D01*
X128926589Y-75075757D01*
X128926592Y-75075755D01*
X128931100Y-75072598D01*
X129092998Y-74910700D01*
X129134243Y-74851797D01*
X129221169Y-74727653D01*
X129224323Y-74723149D01*
X129226647Y-74718165D01*
X129227971Y-74715872D01*
X129279353Y-74666879D01*
X129349067Y-74653443D01*
X129414978Y-74679829D01*
X129446209Y-74715872D01*
X129452866Y-74727402D01*
X129489309Y-74779448D01*
X129499788Y-74787824D01*
X129513234Y-74780756D01*
X130214778Y-74079212D01*
X130221156Y-74067532D01*
X130951208Y-74067532D01*
X130951339Y-74069365D01*
X130955590Y-74075980D01*
X131661087Y-74781477D01*
X131672862Y-74787907D01*
X131684877Y-74778611D01*
X131720731Y-74727406D01*
X131726214Y-74717911D01*
X131818290Y-74520453D01*
X131822036Y-74510161D01*
X131878425Y-74299712D01*
X131880328Y-74288919D01*
X131899317Y-74071875D01*
X131899317Y-74060925D01*
X131880328Y-73843881D01*
X131878425Y-73833088D01*
X131822036Y-73622639D01*
X131818290Y-73612347D01*
X131726214Y-73414889D01*
X131720731Y-73405394D01*
X131684291Y-73353352D01*
X131673812Y-73344976D01*
X131660366Y-73352044D01*
X130958822Y-74053588D01*
X130951208Y-74067532D01*
X130221156Y-74067532D01*
X130222392Y-74065268D01*
X130222261Y-74063435D01*
X130218010Y-74056820D01*
X129512513Y-73351323D01*
X129500738Y-73344893D01*
X129488723Y-73354189D01*
X129452866Y-73405398D01*
X129446209Y-73416928D01*
X129394827Y-73465921D01*
X129325113Y-73479358D01*
X129259202Y-73452971D01*
X129227971Y-73416928D01*
X129226647Y-73414635D01*
X129224323Y-73409651D01*
X129092998Y-73222100D01*
X128931100Y-73060202D01*
X128926592Y-73057045D01*
X128926589Y-73057043D01*
X128830901Y-72990042D01*
X128815686Y-72979388D01*
X129865376Y-72979388D01*
X129872444Y-72992834D01*
X130573988Y-73694378D01*
X130587932Y-73701992D01*
X130589765Y-73701861D01*
X130596380Y-73697610D01*
X131301877Y-72992113D01*
X131308307Y-72980338D01*
X131299011Y-72968323D01*
X131247806Y-72932469D01*
X131238311Y-72926986D01*
X131040853Y-72834910D01*
X131030561Y-72831164D01*
X130820112Y-72774775D01*
X130809319Y-72772872D01*
X130592275Y-72753883D01*
X130581325Y-72753883D01*
X130364281Y-72772872D01*
X130353488Y-72774775D01*
X130143039Y-72831164D01*
X130132747Y-72834910D01*
X129935289Y-72926986D01*
X129925794Y-72932469D01*
X129873752Y-72968909D01*
X129865376Y-72979388D01*
X128815686Y-72979388D01*
X128743549Y-72928877D01*
X128738567Y-72926554D01*
X128738562Y-72926551D01*
X128541025Y-72834439D01*
X128541024Y-72834439D01*
X128536043Y-72832116D01*
X128530735Y-72830694D01*
X128530733Y-72830693D01*
X128320202Y-72774281D01*
X128320200Y-72774281D01*
X128314887Y-72772857D01*
X128086800Y-72752902D01*
X127858713Y-72772857D01*
X127853400Y-72774281D01*
X127853398Y-72774281D01*
X127642867Y-72830693D01*
X127642865Y-72830694D01*
X127637557Y-72832116D01*
X127632576Y-72834439D01*
X127632575Y-72834439D01*
X127435038Y-72926551D01*
X127435033Y-72926554D01*
X127430051Y-72928877D01*
X127342699Y-72990042D01*
X127247011Y-73057043D01*
X127247008Y-73057045D01*
X127242500Y-73060202D01*
X127080602Y-73222100D01*
X126949277Y-73409651D01*
X126946954Y-73414633D01*
X126946951Y-73414638D01*
X126860806Y-73599379D01*
X126852516Y-73617157D01*
X126851094Y-73622465D01*
X126851093Y-73622467D01*
X126805676Y-73791965D01*
X126793257Y-73838313D01*
X126773302Y-74066400D01*
X125527300Y-74066400D01*
X125527300Y-73810900D01*
X124001300Y-73810900D01*
X124001300Y-75336900D01*
X122987300Y-75336900D01*
X122987300Y-73810900D01*
X122223300Y-73810900D01*
X122223300Y-75336900D01*
X121209300Y-75336900D01*
X121209300Y-72796900D01*
X122223300Y-72796900D01*
X122987300Y-72796900D01*
X124001300Y-72796900D01*
X125527300Y-72796900D01*
X125527300Y-72328551D01*
X126541300Y-72328551D01*
X126578455Y-72294503D01*
X126582586Y-72290879D01*
X126599410Y-72276761D01*
X126603699Y-72273319D01*
X126656457Y-72232835D01*
X126660892Y-72229583D01*
X126848443Y-72098258D01*
X126853013Y-72095204D01*
X126909073Y-72059489D01*
X126913773Y-72056637D01*
X126932794Y-72045655D01*
X126937615Y-72043010D01*
X126996588Y-72012311D01*
X127001518Y-72009880D01*
X127092300Y-71967548D01*
X129081300Y-71967548D01*
X129172082Y-72009880D01*
X129177012Y-72012311D01*
X129235985Y-72043010D01*
X129240806Y-72045655D01*
X129259827Y-72056637D01*
X129264527Y-72059489D01*
X129320587Y-72095204D01*
X129325157Y-72098258D01*
X129337236Y-72106716D01*
X129348692Y-72098694D01*
X129353262Y-72095640D01*
X129409324Y-72059924D01*
X129414024Y-72057072D01*
X129433045Y-72046090D01*
X129437865Y-72043446D01*
X129496835Y-72012748D01*
X129501766Y-72010316D01*
X129552299Y-71986752D01*
X131621300Y-71986752D01*
X131671834Y-72010316D01*
X131676765Y-72012748D01*
X131735735Y-72043446D01*
X131740555Y-72046090D01*
X131759576Y-72057072D01*
X131764276Y-72059924D01*
X131820338Y-72095640D01*
X131824908Y-72098694D01*
X131896299Y-72148683D01*
X131910978Y-72160706D01*
X132076602Y-72318629D01*
X132089310Y-72332719D01*
X132135095Y-72391900D01*
X132142105Y-72401934D01*
X132192641Y-72482311D01*
X132255377Y-72514810D01*
X132276090Y-72528266D01*
X132331548Y-72572594D01*
X132344755Y-72584792D01*
X132493181Y-72742947D01*
X132504517Y-72756901D01*
X132532525Y-72796900D01*
X133147300Y-72796900D01*
X134161300Y-72796900D01*
X135687300Y-72796900D01*
X136701300Y-72796900D01*
X138227300Y-72796900D01*
X139241300Y-72796900D01*
X140767300Y-72796900D01*
X141781300Y-72796900D01*
X143307300Y-72796900D01*
X144321300Y-72796900D01*
X145847300Y-72796900D01*
X145847300Y-71606069D01*
X147648801Y-71606069D01*
X147649171Y-71612890D01*
X147654695Y-71663752D01*
X147658321Y-71679004D01*
X147703476Y-71799454D01*
X147712014Y-71815049D01*
X147788515Y-71917124D01*
X147801076Y-71929685D01*
X147903151Y-72006186D01*
X147918746Y-72014724D01*
X148039194Y-72059878D01*
X148054449Y-72063505D01*
X148105314Y-72069031D01*
X148112128Y-72069400D01*
X149384685Y-72069400D01*
X149399924Y-72064925D01*
X149401129Y-72063535D01*
X149402800Y-72055852D01*
X149402800Y-72051284D01*
X149910800Y-72051284D01*
X149915275Y-72066523D01*
X149916665Y-72067728D01*
X149924348Y-72069399D01*
X151201469Y-72069399D01*
X151208290Y-72069029D01*
X151259152Y-72063505D01*
X151274404Y-72059879D01*
X151394854Y-72014724D01*
X151410449Y-72006186D01*
X151512524Y-71929685D01*
X151525085Y-71917124D01*
X151601586Y-71815049D01*
X151610124Y-71799454D01*
X151655278Y-71679006D01*
X151658905Y-71663751D01*
X151664431Y-71612886D01*
X151664800Y-71606072D01*
X151664800Y-70333515D01*
X151660325Y-70318276D01*
X151658935Y-70317071D01*
X151651252Y-70315400D01*
X149928915Y-70315400D01*
X149913676Y-70319875D01*
X149912471Y-70321265D01*
X149910800Y-70328948D01*
X149910800Y-72051284D01*
X149402800Y-72051284D01*
X149402800Y-70333515D01*
X149398325Y-70318276D01*
X149396935Y-70317071D01*
X149389252Y-70315400D01*
X147666916Y-70315400D01*
X147651677Y-70319875D01*
X147650472Y-70321265D01*
X147648801Y-70328948D01*
X147648801Y-71606069D01*
X145847300Y-71606069D01*
X145847300Y-71270900D01*
X144321300Y-71270900D01*
X144321300Y-72796900D01*
X143307300Y-72796900D01*
X143307300Y-71270900D01*
X141781300Y-71270900D01*
X141781300Y-72796900D01*
X140767300Y-72796900D01*
X140767300Y-71270900D01*
X139241300Y-71270900D01*
X139241300Y-72796900D01*
X138227300Y-72796900D01*
X138227300Y-71270900D01*
X136701300Y-71270900D01*
X136701300Y-72796900D01*
X135687300Y-72796900D01*
X135687300Y-71270900D01*
X134161300Y-71270900D01*
X134161300Y-72796900D01*
X133147300Y-72796900D01*
X133147300Y-71270900D01*
X131621300Y-71270900D01*
X131621300Y-71986752D01*
X129552299Y-71986752D01*
X129709193Y-71913591D01*
X129714224Y-71911378D01*
X129775640Y-71885938D01*
X129780764Y-71883945D01*
X129801403Y-71876433D01*
X129806609Y-71874666D01*
X129870009Y-71854676D01*
X129875287Y-71853137D01*
X130096359Y-71793901D01*
X130101700Y-71792594D01*
X130166598Y-71778207D01*
X130171988Y-71777135D01*
X130193618Y-71773321D01*
X130199052Y-71772485D01*
X130264962Y-71763808D01*
X130270427Y-71763209D01*
X130498426Y-71743262D01*
X130503910Y-71742903D01*
X130570322Y-71740003D01*
X130575819Y-71739883D01*
X130597781Y-71739883D01*
X130603278Y-71740003D01*
X130607300Y-71740179D01*
X130607300Y-71270900D01*
X129081300Y-71270900D01*
X129081300Y-71967548D01*
X127092300Y-71967548D01*
X127209024Y-71913119D01*
X127214054Y-71910906D01*
X127275467Y-71885467D01*
X127280592Y-71883474D01*
X127301231Y-71875962D01*
X127306438Y-71874194D01*
X127369837Y-71854205D01*
X127375114Y-71852667D01*
X127596270Y-71793408D01*
X127601609Y-71792102D01*
X127666503Y-71777715D01*
X127671894Y-71776642D01*
X127693523Y-71772828D01*
X127698957Y-71771992D01*
X127764871Y-71763314D01*
X127770336Y-71762715D01*
X127998423Y-71742760D01*
X128003908Y-71742401D01*
X128067300Y-71739633D01*
X128067300Y-71270900D01*
X126541300Y-71270900D01*
X126541300Y-72328551D01*
X125527300Y-72328551D01*
X125527300Y-71270900D01*
X124001300Y-71270900D01*
X124001300Y-72796900D01*
X122987300Y-72796900D01*
X122987300Y-71270900D01*
X122223300Y-71270900D01*
X122223300Y-72796900D01*
X121209300Y-72796900D01*
X121209300Y-70256900D01*
X122223300Y-70256900D01*
X122987300Y-70256900D01*
X124001300Y-70256900D01*
X125527300Y-70256900D01*
X126541300Y-70256900D01*
X128067300Y-70256900D01*
X129081300Y-70256900D01*
X130607300Y-70256900D01*
X131621300Y-70256900D01*
X133147300Y-70256900D01*
X134161300Y-70256900D01*
X135687300Y-70256900D01*
X135687300Y-69214254D01*
X136701300Y-69214254D01*
X136701300Y-70256900D01*
X138227300Y-70256900D01*
X144321300Y-70256900D01*
X145847300Y-70256900D01*
X145847300Y-70040318D01*
X152723717Y-70040318D01*
X152739482Y-70313720D01*
X152740307Y-70317925D01*
X152740308Y-70317933D01*
X152750927Y-70372057D01*
X152792205Y-70582453D01*
X152793592Y-70586503D01*
X152793593Y-70586508D01*
X152872243Y-70816225D01*
X152880912Y-70841544D01*
X153003960Y-71086199D01*
X153006386Y-71089728D01*
X153006389Y-71089734D01*
X153142166Y-71287289D01*
X153159074Y-71311890D01*
X153161961Y-71315063D01*
X153161962Y-71315064D01*
X153282897Y-71447971D01*
X153343382Y-71514443D01*
X153553475Y-71690107D01*
X153557116Y-71692391D01*
X153781824Y-71833351D01*
X153781828Y-71833353D01*
X153785464Y-71835634D01*
X153896875Y-71885938D01*
X154031145Y-71946564D01*
X154031149Y-71946566D01*
X154035057Y-71948330D01*
X154039177Y-71949550D01*
X154039176Y-71949550D01*
X154293523Y-72024891D01*
X154293527Y-72024892D01*
X154297636Y-72026109D01*
X154301870Y-72026757D01*
X154301875Y-72026758D01*
X154564098Y-72066883D01*
X154564100Y-72066883D01*
X154568340Y-72067532D01*
X154707712Y-72069722D01*
X154837871Y-72071767D01*
X154837877Y-72071767D01*
X154842162Y-72071834D01*
X155114035Y-72038934D01*
X155378927Y-71969441D01*
X155382887Y-71967801D01*
X155382892Y-71967799D01*
X155510371Y-71914995D01*
X155631936Y-71864641D01*
X155780692Y-71777715D01*
X155864679Y-71728637D01*
X155864680Y-71728636D01*
X155868382Y-71726473D01*
X156083889Y-71557494D01*
X156117276Y-71523042D01*
X156271486Y-71363909D01*
X156274469Y-71360831D01*
X156277002Y-71357383D01*
X156277006Y-71357378D01*
X156434057Y-71143578D01*
X156436595Y-71140123D01*
X156463954Y-71089734D01*
X156565218Y-70903230D01*
X156565219Y-70903228D01*
X156567268Y-70899454D01*
X156664069Y-70643277D01*
X156703665Y-70470390D01*
X156724249Y-70380517D01*
X156724250Y-70380513D01*
X156725207Y-70376333D01*
X156725728Y-70370495D01*
X158290051Y-70370495D01*
X158290348Y-70375648D01*
X158290348Y-70375651D01*
X158295811Y-70470390D01*
X158302910Y-70593515D01*
X158304047Y-70598561D01*
X158304048Y-70598567D01*
X158315030Y-70647295D01*
X158352022Y-70811439D01*
X158436066Y-71018416D01*
X158552787Y-71208888D01*
X158699050Y-71377738D01*
X158870926Y-71520432D01*
X159063800Y-71633138D01*
X159272492Y-71712830D01*
X159277560Y-71713861D01*
X159277563Y-71713862D01*
X159350185Y-71728637D01*
X159491397Y-71757367D01*
X159496572Y-71757557D01*
X159496574Y-71757557D01*
X159709473Y-71765364D01*
X159709477Y-71765364D01*
X159714637Y-71765553D01*
X159719757Y-71764897D01*
X159719759Y-71764897D01*
X159931088Y-71737825D01*
X159931089Y-71737825D01*
X159936216Y-71737168D01*
X159980694Y-71723824D01*
X160145229Y-71674461D01*
X160145234Y-71674459D01*
X160150184Y-71672974D01*
X160350794Y-71574696D01*
X160532660Y-71444973D01*
X160690896Y-71287289D01*
X160750394Y-71204489D01*
X160818235Y-71110077D01*
X160821253Y-71105877D01*
X160829232Y-71089734D01*
X160917936Y-70910253D01*
X160917937Y-70910251D01*
X160920230Y-70905611D01*
X160985170Y-70691869D01*
X161014329Y-70470390D01*
X161015956Y-70403800D01*
X160997652Y-70181161D01*
X160943231Y-69964502D01*
X160854154Y-69759640D01*
X160766665Y-69624403D01*
X160735622Y-69576417D01*
X160735620Y-69576414D01*
X160732814Y-69572077D01*
X160729340Y-69568259D01*
X160729333Y-69568250D01*
X160585235Y-69409888D01*
X160554183Y-69346042D01*
X160562579Y-69275544D01*
X160607756Y-69220776D01*
X160634200Y-69207107D01*
X160740852Y-69167125D01*
X160756449Y-69158586D01*
X160858524Y-69082085D01*
X160871085Y-69069524D01*
X160947586Y-68967449D01*
X160956124Y-68951854D01*
X161001278Y-68831406D01*
X161004905Y-68816151D01*
X161010431Y-68765286D01*
X161010800Y-68758472D01*
X161010800Y-68135915D01*
X161006325Y-68120676D01*
X161004935Y-68119471D01*
X160997252Y-68117800D01*
X158312916Y-68117800D01*
X158297677Y-68122275D01*
X158296472Y-68123665D01*
X158294801Y-68131348D01*
X158294801Y-68758469D01*
X158295171Y-68765290D01*
X158300695Y-68816152D01*
X158304321Y-68831404D01*
X158349476Y-68951854D01*
X158358014Y-68967449D01*
X158434515Y-69069524D01*
X158447076Y-69082085D01*
X158549151Y-69158586D01*
X158564746Y-69167124D01*
X158673627Y-69207942D01*
X158730391Y-69250584D01*
X158755091Y-69317145D01*
X158739883Y-69386494D01*
X158720491Y-69412975D01*
X158633582Y-69503920D01*
X158593429Y-69545938D01*
X158467543Y-69730480D01*
X158373488Y-69933105D01*
X158313789Y-70148370D01*
X158290051Y-70370495D01*
X156725728Y-70370495D01*
X156729029Y-70333515D01*
X156749331Y-70106027D01*
X156749331Y-70106025D01*
X156749551Y-70103561D01*
X156749993Y-70061400D01*
X156749824Y-70058919D01*
X156731659Y-69792455D01*
X156731658Y-69792449D01*
X156731367Y-69788178D01*
X156729288Y-69778136D01*
X156703600Y-69654095D01*
X156675832Y-69520012D01*
X156584417Y-69261865D01*
X156467103Y-69034573D01*
X156460778Y-69022319D01*
X156460778Y-69022318D01*
X156458813Y-69018512D01*
X156448840Y-69004321D01*
X156374769Y-68898929D01*
X156301345Y-68794457D01*
X156114925Y-68593845D01*
X156111610Y-68591131D01*
X156111606Y-68591128D01*
X155906323Y-68423106D01*
X155903005Y-68420390D01*
X155669504Y-68277301D01*
X155665568Y-68275573D01*
X155422673Y-68168949D01*
X155422669Y-68168948D01*
X155418745Y-68167225D01*
X155155366Y-68092200D01*
X155151124Y-68091596D01*
X155151118Y-68091595D01*
X154924166Y-68059295D01*
X154884243Y-68053613D01*
X154740389Y-68052860D01*
X154614677Y-68052202D01*
X154614671Y-68052202D01*
X154610391Y-68052180D01*
X154606147Y-68052739D01*
X154606143Y-68052739D01*
X154498216Y-68066948D01*
X154338878Y-68087925D01*
X154334738Y-68089058D01*
X154334736Y-68089058D01*
X154265218Y-68108076D01*
X154074728Y-68160188D01*
X154070780Y-68161872D01*
X153826782Y-68265946D01*
X153826778Y-68265948D01*
X153822830Y-68267632D01*
X153802925Y-68279545D01*
X153591525Y-68406064D01*
X153591521Y-68406067D01*
X153587843Y-68408268D01*
X153374118Y-68579494D01*
X153357517Y-68596988D01*
X153200043Y-68762931D01*
X153185608Y-68778142D01*
X153025802Y-69000536D01*
X152897657Y-69242561D01*
X152896185Y-69246584D01*
X152896183Y-69246588D01*
X152829508Y-69428785D01*
X152803543Y-69499737D01*
X152745204Y-69767307D01*
X152723717Y-70040318D01*
X145847300Y-70040318D01*
X145847300Y-69789285D01*
X147648800Y-69789285D01*
X147653275Y-69804524D01*
X147654665Y-69805729D01*
X147662348Y-69807400D01*
X149384685Y-69807400D01*
X149399924Y-69802925D01*
X149401129Y-69801535D01*
X149402800Y-69793852D01*
X149402800Y-69789285D01*
X149910800Y-69789285D01*
X149915275Y-69804524D01*
X149916665Y-69805729D01*
X149924348Y-69807400D01*
X151646684Y-69807400D01*
X151661923Y-69802925D01*
X151663128Y-69801535D01*
X151664799Y-69793852D01*
X151664799Y-68516731D01*
X151664429Y-68509910D01*
X151658905Y-68459048D01*
X151655279Y-68443796D01*
X151610124Y-68323346D01*
X151601586Y-68307751D01*
X151525085Y-68205676D01*
X151512524Y-68193115D01*
X151410449Y-68116614D01*
X151394854Y-68108076D01*
X151274406Y-68062922D01*
X151259151Y-68059295D01*
X151208286Y-68053769D01*
X151201472Y-68053400D01*
X149928915Y-68053400D01*
X149913676Y-68057875D01*
X149912471Y-68059265D01*
X149910800Y-68066948D01*
X149910800Y-69789285D01*
X149402800Y-69789285D01*
X149402800Y-68071516D01*
X149398325Y-68056277D01*
X149396935Y-68055072D01*
X149389252Y-68053401D01*
X148112131Y-68053401D01*
X148105310Y-68053771D01*
X148054448Y-68059295D01*
X148039196Y-68062921D01*
X147918746Y-68108076D01*
X147903151Y-68116614D01*
X147801076Y-68193115D01*
X147788515Y-68205676D01*
X147712014Y-68307751D01*
X147703476Y-68323346D01*
X147658322Y-68443794D01*
X147654695Y-68459049D01*
X147649169Y-68509914D01*
X147648800Y-68516728D01*
X147648800Y-69789285D01*
X145847300Y-69789285D01*
X145847300Y-69436636D01*
X145826233Y-69459426D01*
X145822649Y-69463147D01*
X145664413Y-69620831D01*
X145660678Y-69624403D01*
X145614636Y-69666666D01*
X145610757Y-69670082D01*
X145594985Y-69683410D01*
X145590971Y-69686664D01*
X145541634Y-69725002D01*
X145537490Y-69728088D01*
X145355624Y-69857811D01*
X145351355Y-69860726D01*
X145299016Y-69894909D01*
X145294631Y-69897646D01*
X145276895Y-69908218D01*
X145272405Y-69910771D01*
X145217484Y-69940528D01*
X145212892Y-69942895D01*
X145012282Y-70041173D01*
X145007599Y-70043350D01*
X144950439Y-70068503D01*
X144945671Y-70070486D01*
X144926447Y-70078021D01*
X144921594Y-70079809D01*
X144862490Y-70100219D01*
X144857570Y-70101806D01*
X144643602Y-70166000D01*
X144638622Y-70167383D01*
X144578073Y-70182873D01*
X144573041Y-70184051D01*
X144552843Y-70188344D01*
X144547769Y-70189314D01*
X144486171Y-70199788D01*
X144481059Y-70200550D01*
X144321300Y-70221016D01*
X144321300Y-70256900D01*
X138227300Y-70256900D01*
X138227300Y-70233900D01*
X138090666Y-70233900D01*
X138087258Y-70233854D01*
X138046049Y-70232739D01*
X138042643Y-70232601D01*
X138029035Y-70231864D01*
X138025633Y-70231633D01*
X137984548Y-70228291D01*
X137981156Y-70227969D01*
X137918974Y-70221214D01*
X137911164Y-70220117D01*
X137817191Y-70203907D01*
X137809463Y-70202324D01*
X137778841Y-70195043D01*
X137771226Y-70192978D01*
X137680010Y-70165155D01*
X137672541Y-70162619D01*
X137536152Y-70111489D01*
X137527880Y-70108047D01*
X137429423Y-70062917D01*
X137421415Y-70058897D01*
X137390080Y-70041741D01*
X137382380Y-70037162D01*
X137291331Y-69978540D01*
X137283976Y-69973425D01*
X137167420Y-69886071D01*
X137160446Y-69880446D01*
X137078620Y-69809503D01*
X137072064Y-69803397D01*
X137046803Y-69778136D01*
X137040697Y-69771580D01*
X136969754Y-69689754D01*
X136964129Y-69682780D01*
X136876775Y-69566224D01*
X136871660Y-69558869D01*
X136813038Y-69467820D01*
X136808459Y-69460120D01*
X136791303Y-69428785D01*
X136787283Y-69420777D01*
X136742153Y-69322320D01*
X136738711Y-69314048D01*
X136701300Y-69214254D01*
X135687300Y-69214254D01*
X135687300Y-68759534D01*
X137630300Y-68759534D01*
X137637055Y-68821716D01*
X137688185Y-68958105D01*
X137775539Y-69074661D01*
X137892095Y-69162015D01*
X138028484Y-69213145D01*
X138090666Y-69219900D01*
X139886934Y-69219900D01*
X139949116Y-69213145D01*
X140085505Y-69162015D01*
X140202061Y-69074661D01*
X140289415Y-68958105D01*
X140311599Y-68898929D01*
X140333398Y-68840782D01*
X140376040Y-68784018D01*
X140442602Y-68759318D01*
X140511950Y-68774526D01*
X140546617Y-68802514D01*
X140575050Y-68835338D01*
X140746926Y-68978032D01*
X140939800Y-69090738D01*
X141148492Y-69170430D01*
X141153560Y-69171461D01*
X141153563Y-69171462D01*
X141260817Y-69193283D01*
X141367397Y-69214967D01*
X141372572Y-69215157D01*
X141372574Y-69215157D01*
X141585473Y-69222964D01*
X141585477Y-69222964D01*
X141590637Y-69223153D01*
X141595757Y-69222497D01*
X141595759Y-69222497D01*
X141807088Y-69195425D01*
X141807089Y-69195425D01*
X141812216Y-69194768D01*
X141817166Y-69193283D01*
X142021229Y-69132061D01*
X142021234Y-69132059D01*
X142026184Y-69130574D01*
X142226794Y-69032296D01*
X142408660Y-68902573D01*
X142566896Y-68744889D01*
X142697253Y-68563477D01*
X142698576Y-68564428D01*
X142745445Y-68521257D01*
X142815380Y-68509025D01*
X142880826Y-68536544D01*
X142908675Y-68568394D01*
X142922606Y-68591128D01*
X142968787Y-68666488D01*
X143115050Y-68835338D01*
X143286926Y-68978032D01*
X143479800Y-69090738D01*
X143688492Y-69170430D01*
X143693560Y-69171461D01*
X143693563Y-69171462D01*
X143800817Y-69193283D01*
X143907397Y-69214967D01*
X143912572Y-69215157D01*
X143912574Y-69215157D01*
X144125473Y-69222964D01*
X144125477Y-69222964D01*
X144130637Y-69223153D01*
X144135757Y-69222497D01*
X144135759Y-69222497D01*
X144347088Y-69195425D01*
X144347089Y-69195425D01*
X144352216Y-69194768D01*
X144357166Y-69193283D01*
X144561229Y-69132061D01*
X144561234Y-69132059D01*
X144566184Y-69130574D01*
X144766794Y-69032296D01*
X144948660Y-68902573D01*
X145106896Y-68744889D01*
X145237253Y-68563477D01*
X145258120Y-68521257D01*
X145333936Y-68367853D01*
X145333937Y-68367851D01*
X145336230Y-68363211D01*
X145401170Y-68149469D01*
X145430329Y-67927990D01*
X145431956Y-67861400D01*
X145420076Y-67716900D01*
X146861300Y-67716900D01*
X146888347Y-67716900D01*
X146890101Y-67714176D01*
X146895216Y-67706821D01*
X146982484Y-67590379D01*
X146988109Y-67583405D01*
X147059054Y-67501577D01*
X147065160Y-67495021D01*
X147090421Y-67469760D01*
X147096977Y-67463654D01*
X147178805Y-67392709D01*
X147185779Y-67387084D01*
X147302221Y-67299816D01*
X147309577Y-67294701D01*
X147372300Y-67254317D01*
X151941300Y-67254317D01*
X152004023Y-67294701D01*
X152011379Y-67299816D01*
X152127821Y-67387084D01*
X152134795Y-67392709D01*
X152216623Y-67463654D01*
X152223179Y-67469760D01*
X152248440Y-67495021D01*
X152254546Y-67501577D01*
X152325491Y-67583405D01*
X152331116Y-67590379D01*
X152418384Y-67706821D01*
X152423499Y-67714176D01*
X152425253Y-67716900D01*
X152829041Y-67716900D01*
X152953846Y-67616912D01*
X152957239Y-67614287D01*
X152987507Y-67591685D01*
X158294800Y-67591685D01*
X158299275Y-67606924D01*
X158300665Y-67608129D01*
X158308348Y-67609800D01*
X159380685Y-67609800D01*
X159395924Y-67605325D01*
X159397129Y-67603935D01*
X159398800Y-67596252D01*
X159398800Y-67591685D01*
X159906800Y-67591685D01*
X159911275Y-67606924D01*
X159912665Y-67608129D01*
X159920348Y-67609800D01*
X160992684Y-67609800D01*
X161007923Y-67605325D01*
X161009128Y-67603935D01*
X161010799Y-67596252D01*
X161010799Y-66969131D01*
X161010429Y-66962310D01*
X161004905Y-66911448D01*
X161001279Y-66896196D01*
X160956124Y-66775746D01*
X160947586Y-66760151D01*
X160871085Y-66658076D01*
X160858524Y-66645515D01*
X160756449Y-66569014D01*
X160740854Y-66560476D01*
X160620406Y-66515322D01*
X160605151Y-66511695D01*
X160554286Y-66506169D01*
X160547472Y-66505800D01*
X159924915Y-66505800D01*
X159909676Y-66510275D01*
X159908471Y-66511665D01*
X159906800Y-66519348D01*
X159906800Y-67591685D01*
X159398800Y-67591685D01*
X159398800Y-66523916D01*
X159394325Y-66508677D01*
X159392935Y-66507472D01*
X159385252Y-66505801D01*
X158758131Y-66505801D01*
X158751310Y-66506171D01*
X158700448Y-66511695D01*
X158685196Y-66515321D01*
X158564746Y-66560476D01*
X158549151Y-66569014D01*
X158447076Y-66645515D01*
X158434515Y-66658076D01*
X158358014Y-66760151D01*
X158349476Y-66775746D01*
X158304322Y-66896194D01*
X158300695Y-66911449D01*
X158295169Y-66962314D01*
X158294800Y-66969128D01*
X158294800Y-67591685D01*
X152987507Y-67591685D01*
X152998802Y-67583251D01*
X153002282Y-67580744D01*
X153016357Y-67570962D01*
X153019919Y-67568575D01*
X153063474Y-67540453D01*
X153067114Y-67538190D01*
X153302101Y-67397554D01*
X153305817Y-67395415D01*
X153351192Y-67370315D01*
X153354979Y-67368303D01*
X153370250Y-67360522D01*
X153374102Y-67358642D01*
X153421082Y-67336684D01*
X153424999Y-67334933D01*
X153467300Y-67316890D01*
X153467300Y-66952900D01*
X151941300Y-66952900D01*
X151941300Y-67254317D01*
X147372300Y-67254317D01*
X147400624Y-67236081D01*
X147408323Y-67231502D01*
X147439658Y-67214346D01*
X147447665Y-67210326D01*
X147546121Y-67165196D01*
X147554394Y-67161754D01*
X147690649Y-67110674D01*
X147698121Y-67108137D01*
X147789355Y-67080311D01*
X147796969Y-67078247D01*
X147827594Y-67070966D01*
X147835320Y-67069383D01*
X147929290Y-67053174D01*
X147937103Y-67052077D01*
X147999222Y-67045330D01*
X148002615Y-67045008D01*
X148043677Y-67041669D01*
X148047073Y-67041438D01*
X148060678Y-67040701D01*
X148064084Y-67040563D01*
X148105302Y-67039447D01*
X148108712Y-67039401D01*
X148387300Y-67039401D01*
X148387300Y-66952900D01*
X146861300Y-66952900D01*
X146861300Y-67716900D01*
X145420076Y-67716900D01*
X145413652Y-67638761D01*
X145359231Y-67422102D01*
X145270154Y-67217240D01*
X145181571Y-67080311D01*
X145151622Y-67034017D01*
X145151620Y-67034014D01*
X145148814Y-67029677D01*
X144998470Y-66864451D01*
X144994419Y-66861252D01*
X144994415Y-66861248D01*
X144827214Y-66729200D01*
X144827210Y-66729198D01*
X144823159Y-66725998D01*
X144627589Y-66618038D01*
X144622720Y-66616314D01*
X144622716Y-66616312D01*
X144421887Y-66545195D01*
X144421883Y-66545194D01*
X144417012Y-66543469D01*
X144411919Y-66542562D01*
X144411916Y-66542561D01*
X144202173Y-66505200D01*
X144202167Y-66505199D01*
X144197084Y-66504294D01*
X144123252Y-66503392D01*
X143978881Y-66501628D01*
X143978879Y-66501628D01*
X143973711Y-66501565D01*
X143752891Y-66535355D01*
X143540556Y-66604757D01*
X143342407Y-66707907D01*
X143338274Y-66711010D01*
X143338271Y-66711012D01*
X143180440Y-66829515D01*
X143163765Y-66842035D01*
X143107336Y-66901084D01*
X143044216Y-66967136D01*
X143009429Y-67003538D01*
X142902001Y-67161021D01*
X142847093Y-67206021D01*
X142776568Y-67214192D01*
X142712821Y-67182938D01*
X142692124Y-67158454D01*
X142611622Y-67034017D01*
X142611620Y-67034014D01*
X142608814Y-67029677D01*
X142458470Y-66864451D01*
X142454419Y-66861252D01*
X142454415Y-66861248D01*
X142287214Y-66729200D01*
X142287210Y-66729198D01*
X142283159Y-66725998D01*
X142087589Y-66618038D01*
X142082720Y-66616314D01*
X142082716Y-66616312D01*
X141881887Y-66545195D01*
X141881883Y-66545194D01*
X141877012Y-66543469D01*
X141871919Y-66542562D01*
X141871916Y-66542561D01*
X141662173Y-66505200D01*
X141662167Y-66505199D01*
X141657084Y-66504294D01*
X141583252Y-66503392D01*
X141438881Y-66501628D01*
X141438879Y-66501628D01*
X141433711Y-66501565D01*
X141212891Y-66535355D01*
X141000556Y-66604757D01*
X140802407Y-66707907D01*
X140798274Y-66711010D01*
X140798271Y-66711012D01*
X140640440Y-66829515D01*
X140623765Y-66842035D01*
X140548708Y-66920578D01*
X140543083Y-66926464D01*
X140481559Y-66961894D01*
X140410646Y-66958437D01*
X140352860Y-66917191D01*
X140334007Y-66883643D01*
X140292567Y-66773103D01*
X140289415Y-66764695D01*
X140202061Y-66648139D01*
X140085505Y-66560785D01*
X139949116Y-66509655D01*
X139886934Y-66502900D01*
X138090666Y-66502900D01*
X138028484Y-66509655D01*
X137892095Y-66560785D01*
X137775539Y-66648139D01*
X137688185Y-66764695D01*
X137637055Y-66901084D01*
X137630300Y-66963266D01*
X137630300Y-68759534D01*
X135687300Y-68759534D01*
X135687300Y-68730900D01*
X134161300Y-68730900D01*
X134161300Y-70256900D01*
X133147300Y-70256900D01*
X133147300Y-68730900D01*
X131621300Y-68730900D01*
X131621300Y-70256900D01*
X130607300Y-70256900D01*
X130607300Y-68730900D01*
X129081300Y-68730900D01*
X129081300Y-70256900D01*
X128067300Y-70256900D01*
X128067300Y-68730900D01*
X126541300Y-68730900D01*
X126541300Y-70256900D01*
X125527300Y-70256900D01*
X125527300Y-68730900D01*
X124001300Y-68730900D01*
X124001300Y-70256900D01*
X122987300Y-70256900D01*
X122987300Y-68730900D01*
X122228744Y-68730900D01*
X122223300Y-70162583D01*
X122223300Y-70256900D01*
X121209300Y-70256900D01*
X121209300Y-67716900D01*
X124001300Y-67716900D01*
X125527300Y-67716900D01*
X126541300Y-67716900D01*
X128067300Y-67716900D01*
X129081300Y-67716900D01*
X130607300Y-67716900D01*
X131621300Y-67716900D01*
X133147300Y-67716900D01*
X134161300Y-67716900D01*
X135687300Y-67716900D01*
X135687300Y-66952900D01*
X134161300Y-66952900D01*
X134161300Y-67716900D01*
X133147300Y-67716900D01*
X133147300Y-66952900D01*
X131621300Y-66952900D01*
X131621300Y-67716900D01*
X130607300Y-67716900D01*
X130607300Y-66952900D01*
X129081300Y-66952900D01*
X129081300Y-67716900D01*
X128067300Y-67716900D01*
X128067300Y-66952900D01*
X126541300Y-66952900D01*
X126541300Y-67716900D01*
X125527300Y-67716900D01*
X125527300Y-66952900D01*
X124001300Y-66952900D01*
X124001300Y-67716900D01*
X121209300Y-67716900D01*
X121209300Y-67515650D01*
X121211046Y-67494745D01*
X121213570Y-67479744D01*
X121213570Y-67479741D01*
X121214376Y-67474952D01*
X121214529Y-67462400D01*
X121213839Y-67457579D01*
X121212957Y-67451419D01*
X121212006Y-67424572D01*
X121224164Y-67254575D01*
X121226722Y-67236780D01*
X121243203Y-67161018D01*
X121269098Y-67041981D01*
X121274162Y-67024735D01*
X121295646Y-66967136D01*
X121326128Y-66920578D01*
X122242724Y-66034534D01*
X122286266Y-66007070D01*
X122295138Y-66003761D01*
X122312381Y-65998698D01*
X122507179Y-65956322D01*
X122524974Y-65953764D01*
X122691401Y-65941861D01*
X122709361Y-65942607D01*
X122717646Y-65942708D01*
X122726524Y-65944091D01*
X122758086Y-65939964D01*
X122774421Y-65938900D01*
X161291433Y-65938900D01*
X161310818Y-65940400D01*
G37*
%TD.AperFunction*%
%TD*%
M02*
