%TF.GenerationSoftware,KiCad,Pcbnew,(6.0.7-1)-1*%
%TF.CreationDate,2022-08-29T03:00:19-07:00*%
%TF.ProjectId,BB_Power_Supply,42425f50-6f77-4657-925f-537570706c79,1*%
%TF.SameCoordinates,Original*%
%TF.FileFunction,Copper,L1,Top*%
%TF.FilePolarity,Positive*%
%FSLAX46Y46*%
G04 Gerber Fmt 4.6, Leading zero omitted, Abs format (unit mm)*
G04 Created by KiCad (PCBNEW (6.0.7-1)-1) date 2022-08-29 03:00:19*
%MOMM*%
%LPD*%
G01*
G04 APERTURE LIST*
G04 Aperture macros list*
%AMRoundRect*
0 Rectangle with rounded corners*
0 $1 Rounding radius*
0 $2 $3 $4 $5 $6 $7 $8 $9 X,Y pos of 4 corners*
0 Add a 4 corners polygon primitive as box body*
4,1,4,$2,$3,$4,$5,$6,$7,$8,$9,$2,$3,0*
0 Add four circle primitives for the rounded corners*
1,1,$1+$1,$2,$3*
1,1,$1+$1,$4,$5*
1,1,$1+$1,$6,$7*
1,1,$1+$1,$8,$9*
0 Add four rect primitives between the rounded corners*
20,1,$1+$1,$2,$3,$4,$5,0*
20,1,$1+$1,$4,$5,$6,$7,0*
20,1,$1+$1,$6,$7,$8,$9,0*
20,1,$1+$1,$8,$9,$2,$3,0*%
G04 Aperture macros list end*
%TA.AperFunction,ComponentPad*%
%ADD10R,3.500000X3.500000*%
%TD*%
%TA.AperFunction,ComponentPad*%
%ADD11RoundRect,0.750000X-0.750000X-1.000000X0.750000X-1.000000X0.750000X1.000000X-0.750000X1.000000X0*%
%TD*%
%TA.AperFunction,ComponentPad*%
%ADD12RoundRect,0.875000X-0.875000X-0.875000X0.875000X-0.875000X0.875000X0.875000X-0.875000X0.875000X0*%
%TD*%
%TA.AperFunction,ComponentPad*%
%ADD13C,1.600000*%
%TD*%
%TA.AperFunction,ComponentPad*%
%ADD14R,1.900000X1.900000*%
%TD*%
%TA.AperFunction,ComponentPad*%
%ADD15C,1.900000*%
%TD*%
%TA.AperFunction,ComponentPad*%
%ADD16C,1.400000*%
%TD*%
%TA.AperFunction,ComponentPad*%
%ADD17O,1.400000X1.400000*%
%TD*%
%TA.AperFunction,ComponentPad*%
%ADD18R,1.905000X2.000000*%
%TD*%
%TA.AperFunction,ComponentPad*%
%ADD19O,1.905000X2.000000*%
%TD*%
%TA.AperFunction,ComponentPad*%
%ADD20R,1.700000X1.700000*%
%TD*%
%TA.AperFunction,ComponentPad*%
%ADD21O,1.700000X1.700000*%
%TD*%
%TA.AperFunction,ComponentPad*%
%ADD22C,1.800000*%
%TD*%
%TA.AperFunction,ComponentPad*%
%ADD23R,1.800000X1.800000*%
%TD*%
%TA.AperFunction,ComponentPad*%
%ADD24C,3.000000*%
%TD*%
%TA.AperFunction,ComponentPad*%
%ADD25R,3.000000X3.000000*%
%TD*%
%TA.AperFunction,Conductor*%
%ADD26C,0.350000*%
%TD*%
%TA.AperFunction,Conductor*%
%ADD27C,0.250000*%
%TD*%
G04 APERTURE END LIST*
D10*
%TO.P,J1,1*%
%TO.N,/POWER_IN*%
X136098800Y-94444900D03*
D11*
%TO.P,J1,2*%
%TO.N,GND*%
X130098800Y-94444900D03*
D12*
%TO.P,J1,3*%
X133098800Y-99144900D03*
%TD*%
D13*
%TO.P,C1,1*%
%TO.N,/3.3V*%
X128086800Y-74066400D03*
%TO.P,C1,2*%
%TO.N,GND*%
X130586800Y-74066400D03*
%TD*%
D14*
%TO.P,S1,1*%
%TO.N,/12V*%
X153720800Y-86512400D03*
D15*
%TO.P,S1,2*%
%TO.N,/POWER_IN*%
X151220800Y-86512400D03*
%TO.P,S1,3*%
%TO.N,unconnected-(S1-Pad3)*%
X148720800Y-86512400D03*
%TD*%
D16*
%TO.P,R3,1*%
%TO.N,GND*%
X155498800Y-105308400D03*
D17*
%TO.P,R3,2*%
%TO.N,Net-(R2-Pad1)*%
X147878800Y-105308400D03*
%TD*%
D18*
%TO.P,U2,1,VI*%
%TO.N,/12V*%
X134670800Y-82702400D03*
D19*
%TO.P,U2,2,GND*%
%TO.N,GND*%
X132130800Y-82702400D03*
%TO.P,U2,3,VO*%
%TO.N,/5V*%
X129590800Y-82702400D03*
%TD*%
D16*
%TO.P,R1,1*%
%TO.N,Net-(D1-Pad2)*%
X155244800Y-80416400D03*
D17*
%TO.P,R1,2*%
%TO.N,/12V*%
X147624800Y-80416400D03*
%TD*%
D20*
%TO.P,J5,1,Pin_1*%
%TO.N,/3.3V*%
X138988800Y-67861400D03*
D21*
%TO.P,J5,2,Pin_2*%
%TO.N,/POWER_OUT_TOP*%
X141528800Y-67861400D03*
%TO.P,J5,3,Pin_3*%
%TO.N,/5V*%
X144068800Y-67861400D03*
%TD*%
D13*
%TO.P,C2,1*%
%TO.N,/12V*%
X137749600Y-78079600D03*
%TO.P,C2,2*%
%TO.N,GND*%
X135249600Y-78079600D03*
%TD*%
D19*
%TO.P,U1,3,VI*%
%TO.N,/12V*%
X129336800Y-104546400D03*
%TO.P,U1,2,VO*%
%TO.N,/3.3V*%
X131876800Y-104546400D03*
D18*
%TO.P,U1,1,ADJ*%
%TO.N,Net-(R2-Pad1)*%
X134416800Y-104546400D03*
%TD*%
D22*
%TO.P,D1,2,A*%
%TO.N,Net-(D1-Pad2)*%
X151434800Y-93121400D03*
D23*
%TO.P,D1,1,K*%
%TO.N,GND*%
X151434800Y-95661400D03*
%TD*%
D20*
%TO.P,J2,1,Pin_1*%
%TO.N,/3.3V*%
X138988800Y-116238000D03*
D21*
%TO.P,J2,2,Pin_2*%
%TO.N,/POWER_OUT_BOTTOM*%
X141528800Y-116238000D03*
%TO.P,J2,3,Pin_3*%
%TO.N,/5V*%
X144068800Y-116238000D03*
%TD*%
D16*
%TO.P,R2,1*%
%TO.N,Net-(R2-Pad1)*%
X147878800Y-100736400D03*
D17*
%TO.P,R2,2*%
%TO.N,/3.3V*%
X155498800Y-100736400D03*
%TD*%
D21*
%TO.P,J3,2,Pin_2*%
%TO.N,/POWER_OUT_BOTTOM*%
X159652800Y-116228000D03*
D20*
%TO.P,J3,1,Pin_1*%
%TO.N,GND*%
X159652800Y-113688000D03*
%TD*%
%TO.P,J6,1,Pin_1*%
%TO.N,GND*%
X159652800Y-67863800D03*
D21*
%TO.P,J6,2,Pin_2*%
%TO.N,/POWER_OUT_TOP*%
X159652800Y-70403800D03*
%TD*%
D24*
%TO.P,J7,2,Pin_2*%
%TO.N,/POWER_OUT_TOP*%
X154736800Y-70061400D03*
D25*
%TO.P,J7,1,Pin_1*%
%TO.N,GND*%
X149656800Y-70061400D03*
%TD*%
D24*
%TO.P,J4,2,Pin_2*%
%TO.N,/POWER_OUT_BOTTOM*%
X149656800Y-114038000D03*
D25*
%TO.P,J4,1,Pin_1*%
%TO.N,GND*%
X154736800Y-114038000D03*
%TD*%
D13*
%TO.P,C3,1*%
%TO.N,/5V*%
X130566800Y-78130400D03*
%TO.P,C3,2*%
%TO.N,GND*%
X128066800Y-78130400D03*
%TD*%
D26*
%TO.N,/POWER_OUT_TOP*%
X151261800Y-66586400D02*
X154736800Y-70061400D01*
%TO.N,/POWER_OUT_BOTTOM*%
X143248400Y-117957600D02*
X155448000Y-117957600D01*
X149656800Y-114038000D02*
X153576400Y-117957600D01*
X155448000Y-117957600D02*
X157923200Y-117957600D01*
X153576400Y-117957600D02*
X155448000Y-117957600D01*
X141528800Y-116238000D02*
X143248400Y-117957600D01*
X157923200Y-117957600D02*
X159652800Y-116228000D01*
%TO.N,/POWER_OUT_TOP*%
X154736800Y-70061400D02*
X159310400Y-70061400D01*
X159310400Y-70061400D02*
X159652800Y-70403800D01*
%TO.N,/POWER_IN*%
X136098800Y-94444900D02*
X143288300Y-94444900D01*
X143288300Y-94444900D02*
X151220800Y-86512400D01*
%TO.N,/3.3V*%
X130451800Y-105971400D02*
X127307400Y-105971400D01*
X126390400Y-105054400D02*
X126390400Y-75762800D01*
X127307400Y-105971400D02*
X126390400Y-105054400D01*
X126390400Y-75762800D02*
X128086800Y-74066400D01*
%TO.N,/5V*%
X153273991Y-76854600D02*
X156623800Y-80204409D01*
X135075600Y-76854600D02*
X153273991Y-76854600D01*
X156623800Y-80204409D02*
X156623800Y-102507000D01*
X156623800Y-102507000D02*
X144068800Y-115062000D01*
X144068800Y-115062000D02*
X144068800Y-116238000D01*
%TO.N,/3.3V*%
X155498800Y-100736400D02*
X141726800Y-114508400D01*
X141726800Y-114508400D02*
X138988800Y-114508400D01*
D27*
%TO.N,Net-(R2-Pad1)*%
X147878800Y-100736400D02*
X147878800Y-105308400D01*
X147878800Y-105308400D02*
X135178800Y-105308400D01*
X135178800Y-105308400D02*
X134416800Y-104546400D01*
D26*
%TO.N,/3.3V*%
X130451800Y-105971400D02*
X138988800Y-114508400D01*
X138988800Y-114508400D02*
X138988800Y-116238000D01*
X131876800Y-104546400D02*
X130451800Y-105971400D01*
%TO.N,/12V*%
X129336800Y-104546400D02*
X129336800Y-98618601D01*
X132892800Y-84480400D02*
X134670800Y-82702400D01*
X129336800Y-98618601D02*
X132892800Y-95062601D01*
X132892800Y-95062601D02*
X132892800Y-84480400D01*
X137749600Y-78079600D02*
X145288000Y-78079600D01*
X145288000Y-78079600D02*
X147624800Y-80416400D01*
X147624800Y-80416400D02*
X153720800Y-86512400D01*
D27*
%TO.N,Net-(D1-Pad2)*%
X155244800Y-80416400D02*
X155244800Y-89311400D01*
X155244800Y-89311400D02*
X151434800Y-93121400D01*
D26*
%TO.N,/5V*%
X129590800Y-82702400D02*
X129590800Y-79106400D01*
X129590800Y-79106400D02*
X130566800Y-78130400D01*
%TO.N,/12V*%
X134670800Y-82702400D02*
X134670800Y-81158400D01*
X134670800Y-81158400D02*
X137749600Y-78079600D01*
%TO.N,/5V*%
X130566800Y-78130400D02*
X131842600Y-76854600D01*
X131842600Y-76854600D02*
X135075600Y-76854600D01*
X135075600Y-76854600D02*
X144068800Y-67861400D01*
%TO.N,/3.3V*%
X128086800Y-74066400D02*
X134291800Y-67861400D01*
X134291800Y-67861400D02*
X138988800Y-67861400D01*
%TO.N,/POWER_OUT_TOP*%
X151261800Y-66586400D02*
X142803800Y-66586400D01*
X142803800Y-66586400D02*
X141528800Y-67861400D01*
%TD*%
M02*
