M48
; DRILL file {KiCad (6.0.7-1)-1} date Monday, August 29, 2022 at 03:00:25 am
; FORMAT={-:-/ absolute / inch / decimal}
; #@! TF.CreationDate,2022-08-29T03:00:25-07:00
; #@! TF.GenerationSoftware,Kicad,Pcbnew,(6.0.7-1)-1
; #@! TF.FileFunction,Plated,1,2,PTH
FMAT,2
INCH
; #@! TA.AperFunction,Plated,PTH,ComponentDrill
T1C0.0276
; #@! TA.AperFunction,Plated,PTH,ComponentDrill
T2C0.0315
; #@! TA.AperFunction,Plated,PTH,ComponentDrill
T3C0.0354
; #@! TA.AperFunction,Plated,PTH,ComponentDrill
T4C0.0394
; #@! TA.AperFunction,Plated,PTH,ComponentDrill
T5C0.0433
; #@! TA.AperFunction,Plated,PTH,ComponentDrill
T6C0.0598
%
G90
G05
T1
X5.812Y-3.166
X5.822Y-3.966
X5.822Y-4.146
X6.112Y-3.166
X6.122Y-3.966
X6.122Y-4.146
T2
X5.042Y-3.076
X5.0428Y-2.916
X5.1404Y-3.076
X5.1412Y-2.916
X5.3248Y-3.074
X5.4232Y-3.074
T3
X5.8551Y-3.406
X5.9536Y-3.406
X5.962Y-3.6662
X5.962Y-3.7662
X6.052Y-3.406
T4
X5.472Y-2.6717
X5.472Y-4.5763
X5.572Y-2.6717
X5.572Y-4.5763
X5.672Y-2.6717
X5.672Y-4.5763
X6.2855Y-2.6718
X6.2855Y-2.7718
X6.2855Y-4.4759
X6.2855Y-4.5759
T5
X5.092Y-4.116
X5.102Y-3.256
X5.192Y-4.116
X5.202Y-3.256
X5.292Y-4.116
X5.302Y-3.256
T6
X5.892Y-2.7583
X5.892Y-4.4897
X6.092Y-2.7583
X6.092Y-4.4897
T4
G00X5.122Y-3.6789
M15
G01X5.122Y-3.7577
M16
G05
G00X5.2007Y-3.9033
M15
G01X5.2795Y-3.9033
M16
G05
G00X5.3582Y-3.6789
M15
G01X5.3582Y-3.7577
M16
G05
T0
M30
