%TF.GenerationSoftware,KiCad,Pcbnew,(6.0.7-1)-1*%
%TF.CreationDate,2022-08-29T03:00:19-07:00*%
%TF.ProjectId,BB_Power_Supply,42425f50-6f77-4657-925f-537570706c79,1*%
%TF.SameCoordinates,Original*%
%TF.FileFunction,Soldermask,Top*%
%TF.FilePolarity,Negative*%
%FSLAX46Y46*%
G04 Gerber Fmt 4.6, Leading zero omitted, Abs format (unit mm)*
G04 Created by KiCad (PCBNEW (6.0.7-1)-1) date 2022-08-29 03:00:19*
%MOMM*%
%LPD*%
G01*
G04 APERTURE LIST*
G04 Aperture macros list*
%AMRoundRect*
0 Rectangle with rounded corners*
0 $1 Rounding radius*
0 $2 $3 $4 $5 $6 $7 $8 $9 X,Y pos of 4 corners*
0 Add a 4 corners polygon primitive as box body*
4,1,4,$2,$3,$4,$5,$6,$7,$8,$9,$2,$3,0*
0 Add four circle primitives for the rounded corners*
1,1,$1+$1,$2,$3*
1,1,$1+$1,$4,$5*
1,1,$1+$1,$6,$7*
1,1,$1+$1,$8,$9*
0 Add four rect primitives between the rounded corners*
20,1,$1+$1,$2,$3,$4,$5,0*
20,1,$1+$1,$4,$5,$6,$7,0*
20,1,$1+$1,$6,$7,$8,$9,0*
20,1,$1+$1,$8,$9,$2,$3,0*%
G04 Aperture macros list end*
%ADD10R,3.500000X3.500000*%
%ADD11RoundRect,0.750000X-0.750000X-1.000000X0.750000X-1.000000X0.750000X1.000000X-0.750000X1.000000X0*%
%ADD12RoundRect,0.875000X-0.875000X-0.875000X0.875000X-0.875000X0.875000X0.875000X-0.875000X0.875000X0*%
%ADD13C,1.600000*%
%ADD14R,1.900000X1.900000*%
%ADD15C,1.900000*%
%ADD16C,1.400000*%
%ADD17O,1.400000X1.400000*%
%ADD18R,1.905000X2.000000*%
%ADD19O,1.905000X2.000000*%
%ADD20R,1.700000X1.700000*%
%ADD21O,1.700000X1.700000*%
%ADD22C,1.800000*%
%ADD23R,1.800000X1.800000*%
%ADD24C,3.000000*%
%ADD25R,3.000000X3.000000*%
G04 APERTURE END LIST*
D10*
%TO.C,J1*%
X136098800Y-94444900D03*
D11*
X130098800Y-94444900D03*
D12*
X133098800Y-99144900D03*
%TD*%
D13*
%TO.C,C1*%
X128086800Y-74066400D03*
X130586800Y-74066400D03*
%TD*%
D14*
%TO.C,S1*%
X153720800Y-86512400D03*
D15*
X151220800Y-86512400D03*
X148720800Y-86512400D03*
%TD*%
D16*
%TO.C,R3*%
X155498800Y-105308400D03*
D17*
X147878800Y-105308400D03*
%TD*%
D18*
%TO.C,U2*%
X134670800Y-82702400D03*
D19*
X132130800Y-82702400D03*
X129590800Y-82702400D03*
%TD*%
D16*
%TO.C,R1*%
X155244800Y-80416400D03*
D17*
X147624800Y-80416400D03*
%TD*%
D20*
%TO.C,J5*%
X138988800Y-67861400D03*
D21*
X141528800Y-67861400D03*
X144068800Y-67861400D03*
%TD*%
D13*
%TO.C,C2*%
X137749600Y-78079600D03*
X135249600Y-78079600D03*
%TD*%
D19*
%TO.C,U1*%
X129336800Y-104546400D03*
X131876800Y-104546400D03*
D18*
X134416800Y-104546400D03*
%TD*%
D22*
%TO.C,D1*%
X151434800Y-93121400D03*
D23*
X151434800Y-95661400D03*
%TD*%
D20*
%TO.C,J2*%
X138988800Y-116238000D03*
D21*
X141528800Y-116238000D03*
X144068800Y-116238000D03*
%TD*%
D16*
%TO.C,R2*%
X147878800Y-100736400D03*
D17*
X155498800Y-100736400D03*
%TD*%
D21*
%TO.C,J3*%
X159652800Y-116228000D03*
D20*
X159652800Y-113688000D03*
%TD*%
%TO.C,J6*%
X159652800Y-67863800D03*
D21*
X159652800Y-70403800D03*
%TD*%
D24*
%TO.C,J7*%
X154736800Y-70061400D03*
D25*
X149656800Y-70061400D03*
%TD*%
D24*
%TO.C,J4*%
X149656800Y-114038000D03*
D25*
X154736800Y-114038000D03*
%TD*%
D13*
%TO.C,C3*%
X130566800Y-78130400D03*
X128066800Y-78130400D03*
%TD*%
M02*
