%TF.GenerationSoftware,KiCad,Pcbnew,(6.0.7-1)-1*%
%TF.CreationDate,2022-08-29T03:00:19-07:00*%
%TF.ProjectId,BB_Power_Supply,42425f50-6f77-4657-925f-537570706c79,1*%
%TF.SameCoordinates,Original*%
%TF.FileFunction,Legend,Bot*%
%TF.FilePolarity,Positive*%
%FSLAX46Y46*%
G04 Gerber Fmt 4.6, Leading zero omitted, Abs format (unit mm)*
G04 Created by KiCad (PCBNEW (6.0.7-1)-1) date 2022-08-29 03:00:19*
%MOMM*%
%LPD*%
G01*
G04 APERTURE LIST*
%ADD10C,0.010000*%
G04 APERTURE END LIST*
%TO.C,REF\u002A\u002A*%
G36*
X124760068Y-114213758D02*
G01*
X124751489Y-114365194D01*
X124732633Y-114501883D01*
X124702637Y-114627876D01*
X124660636Y-114747225D01*
X124605769Y-114863981D01*
X124538967Y-114974779D01*
X124448163Y-115088339D01*
X124344508Y-115183811D01*
X124228687Y-115260673D01*
X124101386Y-115318397D01*
X123963289Y-115356458D01*
X123925593Y-115362266D01*
X123846552Y-115367996D01*
X123758429Y-115368183D01*
X123669036Y-115363139D01*
X123586184Y-115353178D01*
X123517687Y-115338612D01*
X123486835Y-115328964D01*
X123409530Y-115298723D01*
X123332479Y-115261217D01*
X123263000Y-115220214D01*
X123208415Y-115179479D01*
X123185716Y-115160105D01*
X123163001Y-115142262D01*
X123151579Y-115135378D01*
X123150337Y-115137024D01*
X123147528Y-115154805D01*
X123145576Y-115187970D01*
X123144845Y-115231333D01*
X123144845Y-115327289D01*
X122286696Y-115327289D01*
X122320961Y-115266574D01*
X122326155Y-115257468D01*
X122334515Y-115242849D01*
X122342088Y-115228773D01*
X122348912Y-115214140D01*
X122355027Y-115197849D01*
X122360473Y-115178798D01*
X122365287Y-115155886D01*
X122369508Y-115128013D01*
X122373177Y-115094078D01*
X122376331Y-115052979D01*
X122379011Y-115003615D01*
X122381254Y-114944886D01*
X122383099Y-114875690D01*
X122384587Y-114794926D01*
X122385755Y-114701494D01*
X122386478Y-114614321D01*
X123190000Y-114614321D01*
X123260556Y-114660689D01*
X123301217Y-114684391D01*
X123355346Y-114710239D01*
X123404489Y-114728429D01*
X123467965Y-114744151D01*
X123564131Y-114755141D01*
X123648700Y-114746965D01*
X123722019Y-114719405D01*
X123784437Y-114672242D01*
X123836302Y-114605258D01*
X123877960Y-114518233D01*
X123909762Y-114410950D01*
X123912345Y-114398609D01*
X123920800Y-114337372D01*
X123926463Y-114260292D01*
X123929376Y-114172602D01*
X123929583Y-114079534D01*
X123927130Y-113986320D01*
X123922061Y-113898194D01*
X123914419Y-113820388D01*
X123904248Y-113758133D01*
X123902967Y-113752266D01*
X123873926Y-113641721D01*
X123839410Y-113551175D01*
X123798256Y-113478553D01*
X123749299Y-113421781D01*
X123691374Y-113378784D01*
X123659420Y-113363215D01*
X123586584Y-113344322D01*
X123505243Y-113341065D01*
X123420119Y-113352989D01*
X123335933Y-113379640D01*
X123257408Y-113420562D01*
X123190000Y-113464130D01*
X123190000Y-114614321D01*
X122386478Y-114614321D01*
X122386644Y-114594292D01*
X122387291Y-114472220D01*
X122387736Y-114334176D01*
X122388018Y-114179059D01*
X122388175Y-114005768D01*
X122388248Y-113813203D01*
X122388274Y-113600262D01*
X122388293Y-113365845D01*
X122388489Y-111680978D01*
X123293817Y-111680978D01*
X123269385Y-111717667D01*
X123263118Y-111727247D01*
X123237008Y-111773581D01*
X123219269Y-111820702D01*
X123207708Y-111875851D01*
X123200131Y-111946267D01*
X123199639Y-111953250D01*
X123197862Y-111991241D01*
X123196244Y-112045176D01*
X123194799Y-112112303D01*
X123193540Y-112189871D01*
X123192480Y-112275128D01*
X123191629Y-112365324D01*
X123191003Y-112457707D01*
X123190612Y-112549525D01*
X123190470Y-112638027D01*
X123190590Y-112720462D01*
X123190983Y-112794079D01*
X123191662Y-112856126D01*
X123192641Y-112903851D01*
X123193932Y-112934504D01*
X123195547Y-112945333D01*
X123203757Y-112940933D01*
X123225447Y-112925962D01*
X123254814Y-112904048D01*
X123303679Y-112869836D01*
X123391925Y-112823314D01*
X123490716Y-112789646D01*
X123603310Y-112767831D01*
X123732964Y-112756865D01*
X123825470Y-112755819D01*
X123946811Y-112765614D01*
X124056899Y-112789774D01*
X124160189Y-112829385D01*
X124261138Y-112885532D01*
X124306303Y-112916483D01*
X124411711Y-113007715D01*
X124503338Y-113116706D01*
X124581132Y-113243326D01*
X124645041Y-113387445D01*
X124695014Y-113548932D01*
X124730998Y-113727659D01*
X124752943Y-113923495D01*
X124758700Y-114079534D01*
X124760794Y-114136311D01*
X124760068Y-114213758D01*
G37*
D10*
X124760068Y-114213758D02*
X124751489Y-114365194D01*
X124732633Y-114501883D01*
X124702637Y-114627876D01*
X124660636Y-114747225D01*
X124605769Y-114863981D01*
X124538967Y-114974779D01*
X124448163Y-115088339D01*
X124344508Y-115183811D01*
X124228687Y-115260673D01*
X124101386Y-115318397D01*
X123963289Y-115356458D01*
X123925593Y-115362266D01*
X123846552Y-115367996D01*
X123758429Y-115368183D01*
X123669036Y-115363139D01*
X123586184Y-115353178D01*
X123517687Y-115338612D01*
X123486835Y-115328964D01*
X123409530Y-115298723D01*
X123332479Y-115261217D01*
X123263000Y-115220214D01*
X123208415Y-115179479D01*
X123185716Y-115160105D01*
X123163001Y-115142262D01*
X123151579Y-115135378D01*
X123150337Y-115137024D01*
X123147528Y-115154805D01*
X123145576Y-115187970D01*
X123144845Y-115231333D01*
X123144845Y-115327289D01*
X122286696Y-115327289D01*
X122320961Y-115266574D01*
X122326155Y-115257468D01*
X122334515Y-115242849D01*
X122342088Y-115228773D01*
X122348912Y-115214140D01*
X122355027Y-115197849D01*
X122360473Y-115178798D01*
X122365287Y-115155886D01*
X122369508Y-115128013D01*
X122373177Y-115094078D01*
X122376331Y-115052979D01*
X122379011Y-115003615D01*
X122381254Y-114944886D01*
X122383099Y-114875690D01*
X122384587Y-114794926D01*
X122385755Y-114701494D01*
X122386478Y-114614321D01*
X123190000Y-114614321D01*
X123260556Y-114660689D01*
X123301217Y-114684391D01*
X123355346Y-114710239D01*
X123404489Y-114728429D01*
X123467965Y-114744151D01*
X123564131Y-114755141D01*
X123648700Y-114746965D01*
X123722019Y-114719405D01*
X123784437Y-114672242D01*
X123836302Y-114605258D01*
X123877960Y-114518233D01*
X123909762Y-114410950D01*
X123912345Y-114398609D01*
X123920800Y-114337372D01*
X123926463Y-114260292D01*
X123929376Y-114172602D01*
X123929583Y-114079534D01*
X123927130Y-113986320D01*
X123922061Y-113898194D01*
X123914419Y-113820388D01*
X123904248Y-113758133D01*
X123902967Y-113752266D01*
X123873926Y-113641721D01*
X123839410Y-113551175D01*
X123798256Y-113478553D01*
X123749299Y-113421781D01*
X123691374Y-113378784D01*
X123659420Y-113363215D01*
X123586584Y-113344322D01*
X123505243Y-113341065D01*
X123420119Y-113352989D01*
X123335933Y-113379640D01*
X123257408Y-113420562D01*
X123190000Y-113464130D01*
X123190000Y-114614321D01*
X122386478Y-114614321D01*
X122386644Y-114594292D01*
X122387291Y-114472220D01*
X122387736Y-114334176D01*
X122388018Y-114179059D01*
X122388175Y-114005768D01*
X122388248Y-113813203D01*
X122388274Y-113600262D01*
X122388293Y-113365845D01*
X122388489Y-111680978D01*
X123293817Y-111680978D01*
X123269385Y-111717667D01*
X123263118Y-111727247D01*
X123237008Y-111773581D01*
X123219269Y-111820702D01*
X123207708Y-111875851D01*
X123200131Y-111946267D01*
X123199639Y-111953250D01*
X123197862Y-111991241D01*
X123196244Y-112045176D01*
X123194799Y-112112303D01*
X123193540Y-112189871D01*
X123192480Y-112275128D01*
X123191629Y-112365324D01*
X123191003Y-112457707D01*
X123190612Y-112549525D01*
X123190470Y-112638027D01*
X123190590Y-112720462D01*
X123190983Y-112794079D01*
X123191662Y-112856126D01*
X123192641Y-112903851D01*
X123193932Y-112934504D01*
X123195547Y-112945333D01*
X123203757Y-112940933D01*
X123225447Y-112925962D01*
X123254814Y-112904048D01*
X123303679Y-112869836D01*
X123391925Y-112823314D01*
X123490716Y-112789646D01*
X123603310Y-112767831D01*
X123732964Y-112756865D01*
X123825470Y-112755819D01*
X123946811Y-112765614D01*
X124056899Y-112789774D01*
X124160189Y-112829385D01*
X124261138Y-112885532D01*
X124306303Y-112916483D01*
X124411711Y-113007715D01*
X124503338Y-113116706D01*
X124581132Y-113243326D01*
X124645041Y-113387445D01*
X124695014Y-113548932D01*
X124730998Y-113727659D01*
X124752943Y-113923495D01*
X124758700Y-114079534D01*
X124760794Y-114136311D01*
X124760068Y-114213758D01*
G36*
X123730567Y-116162668D02*
G01*
X123824690Y-116162758D01*
X123899205Y-116163098D01*
X123956611Y-116163839D01*
X123999411Y-116165135D01*
X124030104Y-116167137D01*
X124051191Y-116169996D01*
X124065173Y-116173866D01*
X124074550Y-116178898D01*
X124081822Y-116185245D01*
X124100628Y-116217962D01*
X124102075Y-116255539D01*
X124085717Y-116288778D01*
X124084357Y-116290231D01*
X124073154Y-116298592D01*
X124056052Y-116304147D01*
X124028882Y-116307440D01*
X123987478Y-116309018D01*
X123927673Y-116309422D01*
X123788311Y-116309422D01*
X123788311Y-116573189D01*
X123788236Y-116649017D01*
X123787828Y-116715683D01*
X123786846Y-116765467D01*
X123785050Y-116801384D01*
X123782199Y-116826450D01*
X123778053Y-116843681D01*
X123772371Y-116856092D01*
X123764914Y-116866700D01*
X123762624Y-116869506D01*
X123731446Y-116892148D01*
X123697066Y-116893712D01*
X123664134Y-116873867D01*
X123657155Y-116865791D01*
X123651683Y-116855193D01*
X123647663Y-116839349D01*
X123644872Y-116815373D01*
X123643088Y-116780374D01*
X123642089Y-116731464D01*
X123641652Y-116665754D01*
X123641556Y-116580356D01*
X123641556Y-116309422D01*
X123495620Y-116309422D01*
X123484520Y-116309421D01*
X123428002Y-116309196D01*
X123389158Y-116308057D01*
X123363765Y-116305257D01*
X123347604Y-116300050D01*
X123336452Y-116291689D01*
X123326089Y-116279426D01*
X123310241Y-116248738D01*
X123313343Y-116214958D01*
X123338987Y-116182422D01*
X123343929Y-116178705D01*
X123354138Y-116173869D01*
X123369564Y-116170106D01*
X123392686Y-116167283D01*
X123425983Y-116165270D01*
X123471937Y-116163933D01*
X123533028Y-116163142D01*
X123611735Y-116162763D01*
X123710540Y-116162667D01*
X123730567Y-116162668D01*
G37*
X123730567Y-116162668D02*
X123824690Y-116162758D01*
X123899205Y-116163098D01*
X123956611Y-116163839D01*
X123999411Y-116165135D01*
X124030104Y-116167137D01*
X124051191Y-116169996D01*
X124065173Y-116173866D01*
X124074550Y-116178898D01*
X124081822Y-116185245D01*
X124100628Y-116217962D01*
X124102075Y-116255539D01*
X124085717Y-116288778D01*
X124084357Y-116290231D01*
X124073154Y-116298592D01*
X124056052Y-116304147D01*
X124028882Y-116307440D01*
X123987478Y-116309018D01*
X123927673Y-116309422D01*
X123788311Y-116309422D01*
X123788311Y-116573189D01*
X123788236Y-116649017D01*
X123787828Y-116715683D01*
X123786846Y-116765467D01*
X123785050Y-116801384D01*
X123782199Y-116826450D01*
X123778053Y-116843681D01*
X123772371Y-116856092D01*
X123764914Y-116866700D01*
X123762624Y-116869506D01*
X123731446Y-116892148D01*
X123697066Y-116893712D01*
X123664134Y-116873867D01*
X123657155Y-116865791D01*
X123651683Y-116855193D01*
X123647663Y-116839349D01*
X123644872Y-116815373D01*
X123643088Y-116780374D01*
X123642089Y-116731464D01*
X123641652Y-116665754D01*
X123641556Y-116580356D01*
X123641556Y-116309422D01*
X123495620Y-116309422D01*
X123484520Y-116309421D01*
X123428002Y-116309196D01*
X123389158Y-116308057D01*
X123363765Y-116305257D01*
X123347604Y-116300050D01*
X123336452Y-116291689D01*
X123326089Y-116279426D01*
X123310241Y-116248738D01*
X123313343Y-116214958D01*
X123338987Y-116182422D01*
X123343929Y-116178705D01*
X123354138Y-116173869D01*
X123369564Y-116170106D01*
X123392686Y-116167283D01*
X123425983Y-116165270D01*
X123471937Y-116163933D01*
X123533028Y-116163142D01*
X123611735Y-116162763D01*
X123710540Y-116162667D01*
X123730567Y-116162668D01*
G36*
X134851670Y-116428641D02*
G01*
X134851422Y-116529556D01*
X134851383Y-116605217D01*
X134851128Y-116683126D01*
X134850484Y-116743136D01*
X134849280Y-116787864D01*
X134847343Y-116819926D01*
X134844503Y-116841940D01*
X134840588Y-116856524D01*
X134835426Y-116866294D01*
X134828845Y-116873867D01*
X134821877Y-116880101D01*
X134808879Y-116887401D01*
X134789731Y-116892154D01*
X134760328Y-116894892D01*
X134716562Y-116896145D01*
X134654328Y-116896445D01*
X134605382Y-116896069D01*
X134498522Y-116891641D01*
X134409294Y-116881553D01*
X134334496Y-116864965D01*
X134270925Y-116841035D01*
X134215379Y-116808921D01*
X134164654Y-116767782D01*
X134158666Y-116761930D01*
X134121799Y-116713421D01*
X134090699Y-116652613D01*
X134069217Y-116588369D01*
X134063936Y-116549626D01*
X134211153Y-116549626D01*
X134229435Y-116600561D01*
X134259105Y-116646478D01*
X134305802Y-116688887D01*
X134367192Y-116718690D01*
X134446338Y-116737826D01*
X134447828Y-116738064D01*
X134496799Y-116743856D01*
X134555493Y-116747996D01*
X134611534Y-116749604D01*
X134704667Y-116749689D01*
X134704667Y-116309422D01*
X134628467Y-116309408D01*
X134625439Y-116309417D01*
X134574319Y-116311382D01*
X134514216Y-116316107D01*
X134457508Y-116322635D01*
X134407550Y-116331931D01*
X134332798Y-116358200D01*
X134275289Y-116397499D01*
X134233788Y-116450533D01*
X134212571Y-116501800D01*
X134211153Y-116549626D01*
X134063936Y-116549626D01*
X134061200Y-116529556D01*
X134062479Y-116508339D01*
X134074791Y-116450923D01*
X134097320Y-116391013D01*
X134126550Y-116336963D01*
X134158967Y-116297132D01*
X134178508Y-116280110D01*
X134233220Y-116240922D01*
X134293523Y-116210793D01*
X134362719Y-116188832D01*
X134444111Y-116174150D01*
X134541000Y-116165859D01*
X134656689Y-116163067D01*
X134696171Y-116162666D01*
X134741882Y-116162253D01*
X134777683Y-116164057D01*
X134804774Y-116170339D01*
X134824356Y-116183359D01*
X134837630Y-116205378D01*
X134845798Y-116238655D01*
X134850060Y-116285451D01*
X134850657Y-116309422D01*
X134851617Y-116348027D01*
X134851670Y-116428641D01*
G37*
X134851670Y-116428641D02*
X134851422Y-116529556D01*
X134851383Y-116605217D01*
X134851128Y-116683126D01*
X134850484Y-116743136D01*
X134849280Y-116787864D01*
X134847343Y-116819926D01*
X134844503Y-116841940D01*
X134840588Y-116856524D01*
X134835426Y-116866294D01*
X134828845Y-116873867D01*
X134821877Y-116880101D01*
X134808879Y-116887401D01*
X134789731Y-116892154D01*
X134760328Y-116894892D01*
X134716562Y-116896145D01*
X134654328Y-116896445D01*
X134605382Y-116896069D01*
X134498522Y-116891641D01*
X134409294Y-116881553D01*
X134334496Y-116864965D01*
X134270925Y-116841035D01*
X134215379Y-116808921D01*
X134164654Y-116767782D01*
X134158666Y-116761930D01*
X134121799Y-116713421D01*
X134090699Y-116652613D01*
X134069217Y-116588369D01*
X134063936Y-116549626D01*
X134211153Y-116549626D01*
X134229435Y-116600561D01*
X134259105Y-116646478D01*
X134305802Y-116688887D01*
X134367192Y-116718690D01*
X134446338Y-116737826D01*
X134447828Y-116738064D01*
X134496799Y-116743856D01*
X134555493Y-116747996D01*
X134611534Y-116749604D01*
X134704667Y-116749689D01*
X134704667Y-116309422D01*
X134628467Y-116309408D01*
X134625439Y-116309417D01*
X134574319Y-116311382D01*
X134514216Y-116316107D01*
X134457508Y-116322635D01*
X134407550Y-116331931D01*
X134332798Y-116358200D01*
X134275289Y-116397499D01*
X134233788Y-116450533D01*
X134212571Y-116501800D01*
X134211153Y-116549626D01*
X134063936Y-116549626D01*
X134061200Y-116529556D01*
X134062479Y-116508339D01*
X134074791Y-116450923D01*
X134097320Y-116391013D01*
X134126550Y-116336963D01*
X134158967Y-116297132D01*
X134178508Y-116280110D01*
X134233220Y-116240922D01*
X134293523Y-116210793D01*
X134362719Y-116188832D01*
X134444111Y-116174150D01*
X134541000Y-116165859D01*
X134656689Y-116163067D01*
X134696171Y-116162666D01*
X134741882Y-116162253D01*
X134777683Y-116164057D01*
X134804774Y-116170339D01*
X134824356Y-116183359D01*
X134837630Y-116205378D01*
X134845798Y-116238655D01*
X134850060Y-116285451D01*
X134850657Y-116309422D01*
X134851617Y-116348027D01*
X134851670Y-116428641D01*
G36*
X124864502Y-116172078D02*
G01*
X124882463Y-116190589D01*
X124903063Y-116221671D01*
X124927895Y-116267356D01*
X124958550Y-116329678D01*
X124996620Y-116410671D01*
X125011254Y-116442054D01*
X125041003Y-116505238D01*
X125067097Y-116559844D01*
X125088092Y-116602890D01*
X125102539Y-116631393D01*
X125108991Y-116642370D01*
X125110350Y-116641789D01*
X125120342Y-116627842D01*
X125137633Y-116598304D01*
X125160230Y-116556687D01*
X125186138Y-116506503D01*
X125202111Y-116475014D01*
X125231061Y-116419661D01*
X125253549Y-116380644D01*
X125271765Y-116355166D01*
X125287896Y-116340431D01*
X125304130Y-116333642D01*
X125322657Y-116332000D01*
X125333160Y-116332475D01*
X125349276Y-116336682D01*
X125364590Y-116347546D01*
X125381188Y-116367819D01*
X125401157Y-116400254D01*
X125426583Y-116447604D01*
X125459552Y-116512622D01*
X125469285Y-116531877D01*
X125493743Y-116578546D01*
X125513978Y-116614709D01*
X125528111Y-116637097D01*
X125534260Y-116642445D01*
X125535627Y-116639173D01*
X125545002Y-116618264D01*
X125561862Y-116581325D01*
X125584779Y-116531474D01*
X125612320Y-116471826D01*
X125643055Y-116405498D01*
X125669770Y-116348277D01*
X125699393Y-116286288D01*
X125722464Y-116240549D01*
X125740443Y-116208508D01*
X125754790Y-116187614D01*
X125766966Y-116175318D01*
X125778432Y-116169066D01*
X125787842Y-116166174D01*
X125812947Y-116166025D01*
X125840090Y-116181368D01*
X125841390Y-116182353D01*
X125863474Y-116204988D01*
X125874523Y-116227213D01*
X125874569Y-116227853D01*
X125870028Y-116245515D01*
X125857164Y-116280081D01*
X125837405Y-116328426D01*
X125812181Y-116387425D01*
X125782919Y-116453955D01*
X125751050Y-116524891D01*
X125718001Y-116597107D01*
X125685201Y-116667480D01*
X125654080Y-116732885D01*
X125626065Y-116790197D01*
X125602586Y-116836292D01*
X125585072Y-116868046D01*
X125574951Y-116882333D01*
X125540543Y-116895702D01*
X125498846Y-116889341D01*
X125493481Y-116884644D01*
X125477652Y-116862493D01*
X125455450Y-116825732D01*
X125429033Y-116778015D01*
X125400560Y-116722993D01*
X125320786Y-116563750D01*
X125247599Y-116710342D01*
X125237903Y-116729632D01*
X125210925Y-116781980D01*
X125186896Y-116826770D01*
X125168132Y-116859754D01*
X125156946Y-116876689D01*
X125155800Y-116877932D01*
X125127679Y-116893219D01*
X125092617Y-116894902D01*
X125061576Y-116882333D01*
X125059150Y-116879484D01*
X125046890Y-116858859D01*
X125027152Y-116821308D01*
X125001248Y-116769480D01*
X124970485Y-116706023D01*
X124936175Y-116633585D01*
X124899625Y-116554816D01*
X124879385Y-116510693D01*
X124842612Y-116429965D01*
X124814155Y-116366287D01*
X124793131Y-116317352D01*
X124778654Y-116280857D01*
X124769839Y-116254495D01*
X124765804Y-116235961D01*
X124765662Y-116222952D01*
X124768530Y-116213161D01*
X124783187Y-116192278D01*
X124809790Y-116171977D01*
X124810545Y-116171635D01*
X124830135Y-116164634D01*
X124847590Y-116164104D01*
X124864502Y-116172078D01*
G37*
X124864502Y-116172078D02*
X124882463Y-116190589D01*
X124903063Y-116221671D01*
X124927895Y-116267356D01*
X124958550Y-116329678D01*
X124996620Y-116410671D01*
X125011254Y-116442054D01*
X125041003Y-116505238D01*
X125067097Y-116559844D01*
X125088092Y-116602890D01*
X125102539Y-116631393D01*
X125108991Y-116642370D01*
X125110350Y-116641789D01*
X125120342Y-116627842D01*
X125137633Y-116598304D01*
X125160230Y-116556687D01*
X125186138Y-116506503D01*
X125202111Y-116475014D01*
X125231061Y-116419661D01*
X125253549Y-116380644D01*
X125271765Y-116355166D01*
X125287896Y-116340431D01*
X125304130Y-116333642D01*
X125322657Y-116332000D01*
X125333160Y-116332475D01*
X125349276Y-116336682D01*
X125364590Y-116347546D01*
X125381188Y-116367819D01*
X125401157Y-116400254D01*
X125426583Y-116447604D01*
X125459552Y-116512622D01*
X125469285Y-116531877D01*
X125493743Y-116578546D01*
X125513978Y-116614709D01*
X125528111Y-116637097D01*
X125534260Y-116642445D01*
X125535627Y-116639173D01*
X125545002Y-116618264D01*
X125561862Y-116581325D01*
X125584779Y-116531474D01*
X125612320Y-116471826D01*
X125643055Y-116405498D01*
X125669770Y-116348277D01*
X125699393Y-116286288D01*
X125722464Y-116240549D01*
X125740443Y-116208508D01*
X125754790Y-116187614D01*
X125766966Y-116175318D01*
X125778432Y-116169066D01*
X125787842Y-116166174D01*
X125812947Y-116166025D01*
X125840090Y-116181368D01*
X125841390Y-116182353D01*
X125863474Y-116204988D01*
X125874523Y-116227213D01*
X125874569Y-116227853D01*
X125870028Y-116245515D01*
X125857164Y-116280081D01*
X125837405Y-116328426D01*
X125812181Y-116387425D01*
X125782919Y-116453955D01*
X125751050Y-116524891D01*
X125718001Y-116597107D01*
X125685201Y-116667480D01*
X125654080Y-116732885D01*
X125626065Y-116790197D01*
X125602586Y-116836292D01*
X125585072Y-116868046D01*
X125574951Y-116882333D01*
X125540543Y-116895702D01*
X125498846Y-116889341D01*
X125493481Y-116884644D01*
X125477652Y-116862493D01*
X125455450Y-116825732D01*
X125429033Y-116778015D01*
X125400560Y-116722993D01*
X125320786Y-116563750D01*
X125247599Y-116710342D01*
X125237903Y-116729632D01*
X125210925Y-116781980D01*
X125186896Y-116826770D01*
X125168132Y-116859754D01*
X125156946Y-116876689D01*
X125155800Y-116877932D01*
X125127679Y-116893219D01*
X125092617Y-116894902D01*
X125061576Y-116882333D01*
X125059150Y-116879484D01*
X125046890Y-116858859D01*
X125027152Y-116821308D01*
X125001248Y-116769480D01*
X124970485Y-116706023D01*
X124936175Y-116633585D01*
X124899625Y-116554816D01*
X124879385Y-116510693D01*
X124842612Y-116429965D01*
X124814155Y-116366287D01*
X124793131Y-116317352D01*
X124778654Y-116280857D01*
X124769839Y-116254495D01*
X124765804Y-116235961D01*
X124765662Y-116222952D01*
X124768530Y-116213161D01*
X124783187Y-116192278D01*
X124809790Y-116171977D01*
X124810545Y-116171635D01*
X124830135Y-116164634D01*
X124847590Y-116164104D01*
X124864502Y-116172078D01*
G36*
X134850859Y-112136611D02*
G01*
X134851162Y-112283816D01*
X134851348Y-112447949D01*
X134851442Y-112629952D01*
X134851471Y-112830765D01*
X134851461Y-113051332D01*
X134851436Y-113292592D01*
X134851422Y-113555489D01*
X134851422Y-113597640D01*
X134851446Y-113858268D01*
X134851485Y-114097396D01*
X134851508Y-114315960D01*
X134851487Y-114514895D01*
X134851393Y-114695135D01*
X134851195Y-114857615D01*
X134850863Y-115003270D01*
X134850369Y-115133034D01*
X134849683Y-115247843D01*
X134848776Y-115348630D01*
X134847617Y-115436330D01*
X134846178Y-115511879D01*
X134844429Y-115576211D01*
X134842340Y-115630261D01*
X134839883Y-115674963D01*
X134837027Y-115711252D01*
X134833743Y-115740063D01*
X134830002Y-115762331D01*
X134825774Y-115778990D01*
X134821029Y-115790975D01*
X134815739Y-115799221D01*
X134809873Y-115804662D01*
X134803402Y-115808234D01*
X134796297Y-115810870D01*
X134788528Y-115813506D01*
X134780066Y-115817077D01*
X134775708Y-115818745D01*
X134767195Y-115820711D01*
X134754494Y-115822511D01*
X134736685Y-115824155D01*
X134712849Y-115825647D01*
X134682066Y-115826997D01*
X134643417Y-115828211D01*
X134595982Y-115829297D01*
X134538843Y-115830261D01*
X134471079Y-115831111D01*
X134391771Y-115831853D01*
X134299999Y-115832497D01*
X134194844Y-115833047D01*
X134075387Y-115833513D01*
X133940708Y-115833900D01*
X133789888Y-115834216D01*
X133622006Y-115834469D01*
X133436145Y-115834666D01*
X133231383Y-115834813D01*
X133006802Y-115834918D01*
X132761482Y-115834989D01*
X132494504Y-115835032D01*
X132456121Y-115835037D01*
X132190722Y-115835080D01*
X131946850Y-115835125D01*
X131723583Y-115835148D01*
X131519996Y-115835124D01*
X131335167Y-115835030D01*
X131168173Y-115834843D01*
X131018090Y-115834539D01*
X130883996Y-115834094D01*
X130764966Y-115833485D01*
X130660079Y-115832689D01*
X130568410Y-115831680D01*
X130489037Y-115830437D01*
X130421037Y-115828935D01*
X130363486Y-115827151D01*
X130315462Y-115825061D01*
X130276040Y-115822642D01*
X130244299Y-115819870D01*
X130219314Y-115816721D01*
X130200164Y-115813172D01*
X130185923Y-115809198D01*
X130175671Y-115804778D01*
X130168482Y-115799886D01*
X130163435Y-115794500D01*
X130159605Y-115788596D01*
X130156071Y-115782149D01*
X130151908Y-115775137D01*
X130150825Y-115773287D01*
X130148613Y-115767780D01*
X130146586Y-115759468D01*
X130144738Y-115747409D01*
X130143061Y-115730663D01*
X130141545Y-115708287D01*
X130140183Y-115679340D01*
X130138967Y-115642880D01*
X130137889Y-115597967D01*
X130136940Y-115543657D01*
X130136112Y-115479010D01*
X130135397Y-115403084D01*
X130134787Y-115314938D01*
X130134742Y-115306093D01*
X130426178Y-115306093D01*
X130430060Y-115307365D01*
X130453320Y-115309391D01*
X130495674Y-115311226D01*
X130554932Y-115312827D01*
X130628907Y-115314149D01*
X130715410Y-115315148D01*
X130812252Y-115315780D01*
X130917245Y-115316000D01*
X131615451Y-115316000D01*
X132769890Y-115316000D01*
X132769256Y-115239800D01*
X132770374Y-115197760D01*
X132776104Y-115161934D01*
X132788690Y-115124372D01*
X132810368Y-115076177D01*
X132813589Y-115069497D01*
X132838988Y-115019959D01*
X132865796Y-114971969D01*
X132888717Y-114935066D01*
X132893285Y-114928434D01*
X132915316Y-114897193D01*
X132947493Y-114852254D01*
X132988257Y-114795747D01*
X133036045Y-114729804D01*
X133089298Y-114656557D01*
X133146455Y-114578136D01*
X133205955Y-114496672D01*
X133266237Y-114414298D01*
X133325740Y-114333144D01*
X133382905Y-114255342D01*
X133436170Y-114183023D01*
X133483974Y-114118318D01*
X133524757Y-114063359D01*
X133556958Y-114020276D01*
X133579016Y-113991202D01*
X133589371Y-113978267D01*
X133593844Y-113973951D01*
X133598036Y-113971912D01*
X133601443Y-113974526D01*
X133604125Y-113983586D01*
X133606141Y-114000885D01*
X133607548Y-114028214D01*
X133608405Y-114067365D01*
X133608770Y-114120133D01*
X133608703Y-114188307D01*
X133608260Y-114273682D01*
X133607502Y-114378049D01*
X133606485Y-114503200D01*
X133606108Y-114547900D01*
X133604969Y-114668995D01*
X133603772Y-114770288D01*
X133602436Y-114853862D01*
X133600877Y-114921804D01*
X133599015Y-114976199D01*
X133596766Y-115019132D01*
X133594048Y-115052689D01*
X133590779Y-115078955D01*
X133586878Y-115100016D01*
X133582261Y-115117957D01*
X133573992Y-115144370D01*
X133550383Y-115206372D01*
X133524485Y-115259173D01*
X133499335Y-115296245D01*
X133498139Y-115297675D01*
X133495968Y-115302024D01*
X133498128Y-115305626D01*
X133506444Y-115308551D01*
X133522740Y-115310869D01*
X133548841Y-115312651D01*
X133586571Y-115313967D01*
X133637756Y-115314886D01*
X133704220Y-115315478D01*
X133787787Y-115315815D01*
X133890283Y-115315965D01*
X134013532Y-115316000D01*
X134545096Y-115316000D01*
X134506323Y-115258383D01*
X134500232Y-115249493D01*
X134489776Y-115234669D01*
X134480379Y-115221022D01*
X134471983Y-115207365D01*
X134464533Y-115192511D01*
X134457973Y-115175270D01*
X134452246Y-115154455D01*
X134447295Y-115128880D01*
X134443066Y-115097355D01*
X134439501Y-115058693D01*
X134436544Y-115011707D01*
X134434140Y-114955208D01*
X134432231Y-114888009D01*
X134430762Y-114808922D01*
X134429676Y-114716760D01*
X134428918Y-114610334D01*
X134428430Y-114488457D01*
X134428158Y-114349941D01*
X134428043Y-114193599D01*
X134428031Y-114018242D01*
X134428065Y-113822682D01*
X134428089Y-113605733D01*
X134428080Y-113483113D01*
X134428043Y-113278047D01*
X134428027Y-113093716D01*
X134428088Y-112928934D01*
X134428284Y-112782516D01*
X134428670Y-112653274D01*
X134429305Y-112540022D01*
X134430244Y-112441575D01*
X134431545Y-112356744D01*
X134433264Y-112284344D01*
X134435459Y-112223189D01*
X134438185Y-112172092D01*
X134441501Y-112129867D01*
X134445462Y-112095327D01*
X134450125Y-112067286D01*
X134455547Y-112044558D01*
X134461786Y-112025956D01*
X134468897Y-112010293D01*
X134476938Y-111996384D01*
X134485966Y-111983041D01*
X134496036Y-111969079D01*
X134507207Y-111953311D01*
X134546997Y-111895467D01*
X133487114Y-111895467D01*
X133525111Y-111958566D01*
X133539793Y-111983605D01*
X133554331Y-112011186D01*
X133566427Y-112039300D01*
X133576332Y-112070151D01*
X133584294Y-112105944D01*
X133590561Y-112148883D01*
X133595382Y-112201174D01*
X133599006Y-112265019D01*
X133601681Y-112342625D01*
X133603657Y-112436194D01*
X133605182Y-112547933D01*
X133606504Y-112680045D01*
X133607413Y-112800034D01*
X133607820Y-112916663D01*
X133607567Y-113012131D01*
X133606657Y-113086156D01*
X133605093Y-113138455D01*
X133602879Y-113168749D01*
X133600020Y-113176756D01*
X133596961Y-113173458D01*
X133578806Y-113152008D01*
X133549075Y-113115489D01*
X133509439Y-113066042D01*
X133461571Y-113005807D01*
X133407143Y-112936927D01*
X133347827Y-112861543D01*
X133285295Y-112781796D01*
X133221221Y-112699828D01*
X133157275Y-112617780D01*
X133095131Y-112537794D01*
X133036461Y-112462011D01*
X132982937Y-112392573D01*
X132936230Y-112331621D01*
X132898014Y-112281296D01*
X132869961Y-112243740D01*
X132853743Y-112221095D01*
X132808435Y-112148812D01*
X132768461Y-112069063D01*
X132746930Y-112000788D01*
X132743627Y-111943444D01*
X132748916Y-111895467D01*
X131617156Y-111895717D01*
X131656667Y-111926322D01*
X131666048Y-111933689D01*
X131728983Y-111988038D01*
X131797797Y-112055859D01*
X131874396Y-112139116D01*
X131960688Y-112239778D01*
X131977852Y-112260447D01*
X132018633Y-112310009D01*
X132068388Y-112370926D01*
X132125755Y-112441498D01*
X132189369Y-112520024D01*
X132257869Y-112604804D01*
X132329890Y-112694137D01*
X132404070Y-112786322D01*
X132419317Y-112805302D01*
X132479046Y-112879660D01*
X132553453Y-112972448D01*
X132625931Y-113062988D01*
X132695114Y-113149578D01*
X132759641Y-113230518D01*
X132818147Y-113304106D01*
X132869270Y-113368644D01*
X132911647Y-113422429D01*
X132943915Y-113463762D01*
X132964710Y-113490942D01*
X132972669Y-113502268D01*
X132970911Y-113506371D01*
X132958030Y-113526934D01*
X132933685Y-113563161D01*
X132899047Y-113613424D01*
X132855286Y-113676092D01*
X132803575Y-113749536D01*
X132745084Y-113832127D01*
X132680984Y-113922236D01*
X132612446Y-114018231D01*
X132540643Y-114118485D01*
X132466744Y-114221368D01*
X132391921Y-114325250D01*
X132317345Y-114428501D01*
X132244187Y-114529492D01*
X132173619Y-114626594D01*
X132106811Y-114718177D01*
X132044935Y-114802611D01*
X131989161Y-114878267D01*
X131940662Y-114943516D01*
X131900607Y-114996728D01*
X131870169Y-115036273D01*
X131849744Y-115061626D01*
X131803699Y-115115895D01*
X131753412Y-115172375D01*
X131706615Y-115222269D01*
X131615451Y-115316000D01*
X130917245Y-115316000D01*
X130986156Y-115315949D01*
X131084407Y-115315691D01*
X131173830Y-115315237D01*
X131252133Y-115314610D01*
X131317023Y-115313835D01*
X131366211Y-115312935D01*
X131397404Y-115311934D01*
X131408311Y-115310857D01*
X131407122Y-115307637D01*
X131396976Y-115290052D01*
X131379840Y-115263758D01*
X131371340Y-115251291D01*
X131362129Y-115237222D01*
X131354033Y-115222951D01*
X131346985Y-115207079D01*
X131340917Y-115188209D01*
X131335761Y-115164941D01*
X131331451Y-115135878D01*
X131327919Y-115099621D01*
X131325097Y-115054770D01*
X131322918Y-114999928D01*
X131321314Y-114933697D01*
X131320219Y-114854677D01*
X131319565Y-114761471D01*
X131319284Y-114652679D01*
X131319309Y-114526903D01*
X131319572Y-114382745D01*
X131320006Y-114218807D01*
X131320545Y-114033689D01*
X131321079Y-113854832D01*
X131321605Y-113695974D01*
X131322150Y-113556916D01*
X131322745Y-113436265D01*
X131323419Y-113332628D01*
X131324203Y-113244611D01*
X131325126Y-113170823D01*
X131326219Y-113109869D01*
X131327512Y-113060357D01*
X131329035Y-113020893D01*
X131330819Y-112990084D01*
X131332892Y-112966538D01*
X131335286Y-112948860D01*
X131338030Y-112935659D01*
X131341156Y-112925540D01*
X131344692Y-112917111D01*
X131348591Y-112908975D01*
X131368238Y-112872144D01*
X131387025Y-112841991D01*
X131388072Y-112840508D01*
X131402402Y-112818259D01*
X131408311Y-112805302D01*
X131407304Y-112804849D01*
X131390105Y-112803403D01*
X131353456Y-112802080D01*
X131299762Y-112800916D01*
X131231430Y-112799947D01*
X131150864Y-112799211D01*
X131060470Y-112798742D01*
X130962653Y-112798578D01*
X130516995Y-112798578D01*
X130513920Y-113975445D01*
X130510845Y-115152311D01*
X130484207Y-115211222D01*
X130472285Y-115235783D01*
X130455046Y-115266034D01*
X130441874Y-115283160D01*
X130433876Y-115291191D01*
X130426178Y-115306093D01*
X130134742Y-115306093D01*
X130134274Y-115213629D01*
X130133850Y-115098217D01*
X130133506Y-114967760D01*
X130133234Y-114821316D01*
X130133027Y-114657944D01*
X130132876Y-114476701D01*
X130132772Y-114276648D01*
X130132708Y-114056841D01*
X130132676Y-113816339D01*
X130132667Y-113554202D01*
X130132667Y-111362631D01*
X130171049Y-111324249D01*
X130198155Y-111300511D01*
X130225053Y-111288711D01*
X130261360Y-111285867D01*
X130313289Y-111285867D01*
X130313289Y-111373806D01*
X130315227Y-111423702D01*
X130333999Y-111534123D01*
X130371017Y-111635587D01*
X130424169Y-111726752D01*
X130491346Y-111806273D01*
X130570438Y-111872805D01*
X130659334Y-111925006D01*
X130755925Y-111961530D01*
X130858100Y-111981034D01*
X130963750Y-111982173D01*
X131070764Y-111963605D01*
X131177032Y-111923984D01*
X131274019Y-111866116D01*
X131359093Y-111791284D01*
X131427815Y-111703215D01*
X131478718Y-111604216D01*
X131510335Y-111496593D01*
X131521200Y-111382654D01*
X131521200Y-111285867D01*
X133141553Y-111285867D01*
X133352697Y-111285880D01*
X133556820Y-111285930D01*
X133740486Y-111286030D01*
X133904791Y-111286192D01*
X134050829Y-111286429D01*
X134179694Y-111286753D01*
X134292483Y-111287175D01*
X134390288Y-111287709D01*
X134474204Y-111288367D01*
X134545327Y-111289161D01*
X134604750Y-111290104D01*
X134653568Y-111291208D01*
X134692877Y-111292484D01*
X134723769Y-111293947D01*
X134747341Y-111295607D01*
X134764686Y-111297478D01*
X134776899Y-111299572D01*
X134785075Y-111301900D01*
X134790308Y-111304476D01*
X134796304Y-111308045D01*
X134803079Y-111311578D01*
X134809278Y-111315088D01*
X134814926Y-111319518D01*
X134820047Y-111325808D01*
X134824669Y-111334901D01*
X134828815Y-111347739D01*
X134832513Y-111365262D01*
X134835787Y-111388413D01*
X134838663Y-111418134D01*
X134841167Y-111455365D01*
X134843324Y-111501049D01*
X134845160Y-111556127D01*
X134846700Y-111621541D01*
X134847970Y-111698233D01*
X134848995Y-111787144D01*
X134849801Y-111889217D01*
X134849834Y-111895467D01*
X134850414Y-112005392D01*
X134850859Y-112136611D01*
G37*
X134850859Y-112136611D02*
X134851162Y-112283816D01*
X134851348Y-112447949D01*
X134851442Y-112629952D01*
X134851471Y-112830765D01*
X134851461Y-113051332D01*
X134851436Y-113292592D01*
X134851422Y-113555489D01*
X134851422Y-113597640D01*
X134851446Y-113858268D01*
X134851485Y-114097396D01*
X134851508Y-114315960D01*
X134851487Y-114514895D01*
X134851393Y-114695135D01*
X134851195Y-114857615D01*
X134850863Y-115003270D01*
X134850369Y-115133034D01*
X134849683Y-115247843D01*
X134848776Y-115348630D01*
X134847617Y-115436330D01*
X134846178Y-115511879D01*
X134844429Y-115576211D01*
X134842340Y-115630261D01*
X134839883Y-115674963D01*
X134837027Y-115711252D01*
X134833743Y-115740063D01*
X134830002Y-115762331D01*
X134825774Y-115778990D01*
X134821029Y-115790975D01*
X134815739Y-115799221D01*
X134809873Y-115804662D01*
X134803402Y-115808234D01*
X134796297Y-115810870D01*
X134788528Y-115813506D01*
X134780066Y-115817077D01*
X134775708Y-115818745D01*
X134767195Y-115820711D01*
X134754494Y-115822511D01*
X134736685Y-115824155D01*
X134712849Y-115825647D01*
X134682066Y-115826997D01*
X134643417Y-115828211D01*
X134595982Y-115829297D01*
X134538843Y-115830261D01*
X134471079Y-115831111D01*
X134391771Y-115831853D01*
X134299999Y-115832497D01*
X134194844Y-115833047D01*
X134075387Y-115833513D01*
X133940708Y-115833900D01*
X133789888Y-115834216D01*
X133622006Y-115834469D01*
X133436145Y-115834666D01*
X133231383Y-115834813D01*
X133006802Y-115834918D01*
X132761482Y-115834989D01*
X132494504Y-115835032D01*
X132456121Y-115835037D01*
X132190722Y-115835080D01*
X131946850Y-115835125D01*
X131723583Y-115835148D01*
X131519996Y-115835124D01*
X131335167Y-115835030D01*
X131168173Y-115834843D01*
X131018090Y-115834539D01*
X130883996Y-115834094D01*
X130764966Y-115833485D01*
X130660079Y-115832689D01*
X130568410Y-115831680D01*
X130489037Y-115830437D01*
X130421037Y-115828935D01*
X130363486Y-115827151D01*
X130315462Y-115825061D01*
X130276040Y-115822642D01*
X130244299Y-115819870D01*
X130219314Y-115816721D01*
X130200164Y-115813172D01*
X130185923Y-115809198D01*
X130175671Y-115804778D01*
X130168482Y-115799886D01*
X130163435Y-115794500D01*
X130159605Y-115788596D01*
X130156071Y-115782149D01*
X130151908Y-115775137D01*
X130150825Y-115773287D01*
X130148613Y-115767780D01*
X130146586Y-115759468D01*
X130144738Y-115747409D01*
X130143061Y-115730663D01*
X130141545Y-115708287D01*
X130140183Y-115679340D01*
X130138967Y-115642880D01*
X130137889Y-115597967D01*
X130136940Y-115543657D01*
X130136112Y-115479010D01*
X130135397Y-115403084D01*
X130134787Y-115314938D01*
X130134742Y-115306093D01*
X130426178Y-115306093D01*
X130430060Y-115307365D01*
X130453320Y-115309391D01*
X130495674Y-115311226D01*
X130554932Y-115312827D01*
X130628907Y-115314149D01*
X130715410Y-115315148D01*
X130812252Y-115315780D01*
X130917245Y-115316000D01*
X131615451Y-115316000D01*
X132769890Y-115316000D01*
X132769256Y-115239800D01*
X132770374Y-115197760D01*
X132776104Y-115161934D01*
X132788690Y-115124372D01*
X132810368Y-115076177D01*
X132813589Y-115069497D01*
X132838988Y-115019959D01*
X132865796Y-114971969D01*
X132888717Y-114935066D01*
X132893285Y-114928434D01*
X132915316Y-114897193D01*
X132947493Y-114852254D01*
X132988257Y-114795747D01*
X133036045Y-114729804D01*
X133089298Y-114656557D01*
X133146455Y-114578136D01*
X133205955Y-114496672D01*
X133266237Y-114414298D01*
X133325740Y-114333144D01*
X133382905Y-114255342D01*
X133436170Y-114183023D01*
X133483974Y-114118318D01*
X133524757Y-114063359D01*
X133556958Y-114020276D01*
X133579016Y-113991202D01*
X133589371Y-113978267D01*
X133593844Y-113973951D01*
X133598036Y-113971912D01*
X133601443Y-113974526D01*
X133604125Y-113983586D01*
X133606141Y-114000885D01*
X133607548Y-114028214D01*
X133608405Y-114067365D01*
X133608770Y-114120133D01*
X133608703Y-114188307D01*
X133608260Y-114273682D01*
X133607502Y-114378049D01*
X133606485Y-114503200D01*
X133606108Y-114547900D01*
X133604969Y-114668995D01*
X133603772Y-114770288D01*
X133602436Y-114853862D01*
X133600877Y-114921804D01*
X133599015Y-114976199D01*
X133596766Y-115019132D01*
X133594048Y-115052689D01*
X133590779Y-115078955D01*
X133586878Y-115100016D01*
X133582261Y-115117957D01*
X133573992Y-115144370D01*
X133550383Y-115206372D01*
X133524485Y-115259173D01*
X133499335Y-115296245D01*
X133498139Y-115297675D01*
X133495968Y-115302024D01*
X133498128Y-115305626D01*
X133506444Y-115308551D01*
X133522740Y-115310869D01*
X133548841Y-115312651D01*
X133586571Y-115313967D01*
X133637756Y-115314886D01*
X133704220Y-115315478D01*
X133787787Y-115315815D01*
X133890283Y-115315965D01*
X134013532Y-115316000D01*
X134545096Y-115316000D01*
X134506323Y-115258383D01*
X134500232Y-115249493D01*
X134489776Y-115234669D01*
X134480379Y-115221022D01*
X134471983Y-115207365D01*
X134464533Y-115192511D01*
X134457973Y-115175270D01*
X134452246Y-115154455D01*
X134447295Y-115128880D01*
X134443066Y-115097355D01*
X134439501Y-115058693D01*
X134436544Y-115011707D01*
X134434140Y-114955208D01*
X134432231Y-114888009D01*
X134430762Y-114808922D01*
X134429676Y-114716760D01*
X134428918Y-114610334D01*
X134428430Y-114488457D01*
X134428158Y-114349941D01*
X134428043Y-114193599D01*
X134428031Y-114018242D01*
X134428065Y-113822682D01*
X134428089Y-113605733D01*
X134428080Y-113483113D01*
X134428043Y-113278047D01*
X134428027Y-113093716D01*
X134428088Y-112928934D01*
X134428284Y-112782516D01*
X134428670Y-112653274D01*
X134429305Y-112540022D01*
X134430244Y-112441575D01*
X134431545Y-112356744D01*
X134433264Y-112284344D01*
X134435459Y-112223189D01*
X134438185Y-112172092D01*
X134441501Y-112129867D01*
X134445462Y-112095327D01*
X134450125Y-112067286D01*
X134455547Y-112044558D01*
X134461786Y-112025956D01*
X134468897Y-112010293D01*
X134476938Y-111996384D01*
X134485966Y-111983041D01*
X134496036Y-111969079D01*
X134507207Y-111953311D01*
X134546997Y-111895467D01*
X133487114Y-111895467D01*
X133525111Y-111958566D01*
X133539793Y-111983605D01*
X133554331Y-112011186D01*
X133566427Y-112039300D01*
X133576332Y-112070151D01*
X133584294Y-112105944D01*
X133590561Y-112148883D01*
X133595382Y-112201174D01*
X133599006Y-112265019D01*
X133601681Y-112342625D01*
X133603657Y-112436194D01*
X133605182Y-112547933D01*
X133606504Y-112680045D01*
X133607413Y-112800034D01*
X133607820Y-112916663D01*
X133607567Y-113012131D01*
X133606657Y-113086156D01*
X133605093Y-113138455D01*
X133602879Y-113168749D01*
X133600020Y-113176756D01*
X133596961Y-113173458D01*
X133578806Y-113152008D01*
X133549075Y-113115489D01*
X133509439Y-113066042D01*
X133461571Y-113005807D01*
X133407143Y-112936927D01*
X133347827Y-112861543D01*
X133285295Y-112781796D01*
X133221221Y-112699828D01*
X133157275Y-112617780D01*
X133095131Y-112537794D01*
X133036461Y-112462011D01*
X132982937Y-112392573D01*
X132936230Y-112331621D01*
X132898014Y-112281296D01*
X132869961Y-112243740D01*
X132853743Y-112221095D01*
X132808435Y-112148812D01*
X132768461Y-112069063D01*
X132746930Y-112000788D01*
X132743627Y-111943444D01*
X132748916Y-111895467D01*
X131617156Y-111895717D01*
X131656667Y-111926322D01*
X131666048Y-111933689D01*
X131728983Y-111988038D01*
X131797797Y-112055859D01*
X131874396Y-112139116D01*
X131960688Y-112239778D01*
X131977852Y-112260447D01*
X132018633Y-112310009D01*
X132068388Y-112370926D01*
X132125755Y-112441498D01*
X132189369Y-112520024D01*
X132257869Y-112604804D01*
X132329890Y-112694137D01*
X132404070Y-112786322D01*
X132419317Y-112805302D01*
X132479046Y-112879660D01*
X132553453Y-112972448D01*
X132625931Y-113062988D01*
X132695114Y-113149578D01*
X132759641Y-113230518D01*
X132818147Y-113304106D01*
X132869270Y-113368644D01*
X132911647Y-113422429D01*
X132943915Y-113463762D01*
X132964710Y-113490942D01*
X132972669Y-113502268D01*
X132970911Y-113506371D01*
X132958030Y-113526934D01*
X132933685Y-113563161D01*
X132899047Y-113613424D01*
X132855286Y-113676092D01*
X132803575Y-113749536D01*
X132745084Y-113832127D01*
X132680984Y-113922236D01*
X132612446Y-114018231D01*
X132540643Y-114118485D01*
X132466744Y-114221368D01*
X132391921Y-114325250D01*
X132317345Y-114428501D01*
X132244187Y-114529492D01*
X132173619Y-114626594D01*
X132106811Y-114718177D01*
X132044935Y-114802611D01*
X131989161Y-114878267D01*
X131940662Y-114943516D01*
X131900607Y-114996728D01*
X131870169Y-115036273D01*
X131849744Y-115061626D01*
X131803699Y-115115895D01*
X131753412Y-115172375D01*
X131706615Y-115222269D01*
X131615451Y-115316000D01*
X130917245Y-115316000D01*
X130986156Y-115315949D01*
X131084407Y-115315691D01*
X131173830Y-115315237D01*
X131252133Y-115314610D01*
X131317023Y-115313835D01*
X131366211Y-115312935D01*
X131397404Y-115311934D01*
X131408311Y-115310857D01*
X131407122Y-115307637D01*
X131396976Y-115290052D01*
X131379840Y-115263758D01*
X131371340Y-115251291D01*
X131362129Y-115237222D01*
X131354033Y-115222951D01*
X131346985Y-115207079D01*
X131340917Y-115188209D01*
X131335761Y-115164941D01*
X131331451Y-115135878D01*
X131327919Y-115099621D01*
X131325097Y-115054770D01*
X131322918Y-114999928D01*
X131321314Y-114933697D01*
X131320219Y-114854677D01*
X131319565Y-114761471D01*
X131319284Y-114652679D01*
X131319309Y-114526903D01*
X131319572Y-114382745D01*
X131320006Y-114218807D01*
X131320545Y-114033689D01*
X131321079Y-113854832D01*
X131321605Y-113695974D01*
X131322150Y-113556916D01*
X131322745Y-113436265D01*
X131323419Y-113332628D01*
X131324203Y-113244611D01*
X131325126Y-113170823D01*
X131326219Y-113109869D01*
X131327512Y-113060357D01*
X131329035Y-113020893D01*
X131330819Y-112990084D01*
X131332892Y-112966538D01*
X131335286Y-112948860D01*
X131338030Y-112935659D01*
X131341156Y-112925540D01*
X131344692Y-112917111D01*
X131348591Y-112908975D01*
X131368238Y-112872144D01*
X131387025Y-112841991D01*
X131388072Y-112840508D01*
X131402402Y-112818259D01*
X131408311Y-112805302D01*
X131407304Y-112804849D01*
X131390105Y-112803403D01*
X131353456Y-112802080D01*
X131299762Y-112800916D01*
X131231430Y-112799947D01*
X131150864Y-112799211D01*
X131060470Y-112798742D01*
X130962653Y-112798578D01*
X130516995Y-112798578D01*
X130513920Y-113975445D01*
X130510845Y-115152311D01*
X130484207Y-115211222D01*
X130472285Y-115235783D01*
X130455046Y-115266034D01*
X130441874Y-115283160D01*
X130433876Y-115291191D01*
X130426178Y-115306093D01*
X130134742Y-115306093D01*
X130134274Y-115213629D01*
X130133850Y-115098217D01*
X130133506Y-114967760D01*
X130133234Y-114821316D01*
X130133027Y-114657944D01*
X130132876Y-114476701D01*
X130132772Y-114276648D01*
X130132708Y-114056841D01*
X130132676Y-113816339D01*
X130132667Y-113554202D01*
X130132667Y-111362631D01*
X130171049Y-111324249D01*
X130198155Y-111300511D01*
X130225053Y-111288711D01*
X130261360Y-111285867D01*
X130313289Y-111285867D01*
X130313289Y-111373806D01*
X130315227Y-111423702D01*
X130333999Y-111534123D01*
X130371017Y-111635587D01*
X130424169Y-111726752D01*
X130491346Y-111806273D01*
X130570438Y-111872805D01*
X130659334Y-111925006D01*
X130755925Y-111961530D01*
X130858100Y-111981034D01*
X130963750Y-111982173D01*
X131070764Y-111963605D01*
X131177032Y-111923984D01*
X131274019Y-111866116D01*
X131359093Y-111791284D01*
X131427815Y-111703215D01*
X131478718Y-111604216D01*
X131510335Y-111496593D01*
X131521200Y-111382654D01*
X131521200Y-111285867D01*
X133141553Y-111285867D01*
X133352697Y-111285880D01*
X133556820Y-111285930D01*
X133740486Y-111286030D01*
X133904791Y-111286192D01*
X134050829Y-111286429D01*
X134179694Y-111286753D01*
X134292483Y-111287175D01*
X134390288Y-111287709D01*
X134474204Y-111288367D01*
X134545327Y-111289161D01*
X134604750Y-111290104D01*
X134653568Y-111291208D01*
X134692877Y-111292484D01*
X134723769Y-111293947D01*
X134747341Y-111295607D01*
X134764686Y-111297478D01*
X134776899Y-111299572D01*
X134785075Y-111301900D01*
X134790308Y-111304476D01*
X134796304Y-111308045D01*
X134803079Y-111311578D01*
X134809278Y-111315088D01*
X134814926Y-111319518D01*
X134820047Y-111325808D01*
X134824669Y-111334901D01*
X134828815Y-111347739D01*
X134832513Y-111365262D01*
X134835787Y-111388413D01*
X134838663Y-111418134D01*
X134841167Y-111455365D01*
X134843324Y-111501049D01*
X134845160Y-111556127D01*
X134846700Y-111621541D01*
X134847970Y-111698233D01*
X134848995Y-111787144D01*
X134849801Y-111889217D01*
X134849834Y-111895467D01*
X134850414Y-112005392D01*
X134850859Y-112136611D01*
G36*
X131029362Y-110926450D02*
G01*
X131112113Y-110953653D01*
X131187206Y-110999084D01*
X131259098Y-111064902D01*
X131297646Y-111109167D01*
X131337056Y-111167561D01*
X131362246Y-111228186D01*
X131375661Y-111297465D01*
X131379748Y-111381822D01*
X131379469Y-111427907D01*
X131377260Y-111469050D01*
X131371694Y-111501182D01*
X131361386Y-111531722D01*
X131344948Y-111568089D01*
X131331000Y-111595328D01*
X131272465Y-111681029D01*
X131200419Y-111750217D01*
X131116747Y-111801341D01*
X131023331Y-111832850D01*
X130990234Y-111839825D01*
X130949760Y-111846694D01*
X130916799Y-111848519D01*
X130882498Y-111845547D01*
X130838000Y-111838026D01*
X130786734Y-111825602D01*
X130696234Y-111787712D01*
X130617145Y-111733436D01*
X130551328Y-111665370D01*
X130500640Y-111586111D01*
X130466940Y-111498254D01*
X130452086Y-111404395D01*
X130457936Y-111307130D01*
X130484199Y-111210820D01*
X130529218Y-111122094D01*
X130590173Y-111047019D01*
X130664984Y-110987241D01*
X130751568Y-110944409D01*
X130847843Y-110920171D01*
X130951728Y-110916176D01*
X131029362Y-110926450D01*
G37*
X131029362Y-110926450D02*
X131112113Y-110953653D01*
X131187206Y-110999084D01*
X131259098Y-111064902D01*
X131297646Y-111109167D01*
X131337056Y-111167561D01*
X131362246Y-111228186D01*
X131375661Y-111297465D01*
X131379748Y-111381822D01*
X131379469Y-111427907D01*
X131377260Y-111469050D01*
X131371694Y-111501182D01*
X131361386Y-111531722D01*
X131344948Y-111568089D01*
X131331000Y-111595328D01*
X131272465Y-111681029D01*
X131200419Y-111750217D01*
X131116747Y-111801341D01*
X131023331Y-111832850D01*
X130990234Y-111839825D01*
X130949760Y-111846694D01*
X130916799Y-111848519D01*
X130882498Y-111845547D01*
X130838000Y-111838026D01*
X130786734Y-111825602D01*
X130696234Y-111787712D01*
X130617145Y-111733436D01*
X130551328Y-111665370D01*
X130500640Y-111586111D01*
X130466940Y-111498254D01*
X130452086Y-111404395D01*
X130457936Y-111307130D01*
X130484199Y-111210820D01*
X130529218Y-111122094D01*
X130590173Y-111047019D01*
X130664984Y-110987241D01*
X130751568Y-110944409D01*
X130847843Y-110920171D01*
X130951728Y-110916176D01*
X131029362Y-110926450D01*
G36*
X129906693Y-116161492D02*
G01*
X129918101Y-116167629D01*
X129928650Y-116178291D01*
X129939936Y-116192411D01*
X129944389Y-116198372D01*
X129950388Y-116208868D01*
X129954967Y-116222693D01*
X129958319Y-116242598D01*
X129960633Y-116271332D01*
X129962101Y-116311645D01*
X129962913Y-116366287D01*
X129963260Y-116438007D01*
X129963334Y-116529556D01*
X129963311Y-116588086D01*
X129963092Y-116667173D01*
X129962483Y-116728116D01*
X129961292Y-116773662D01*
X129959329Y-116806563D01*
X129956403Y-116829568D01*
X129952323Y-116845426D01*
X129946897Y-116856886D01*
X129939936Y-116866700D01*
X129909508Y-116891093D01*
X129874565Y-116893972D01*
X129837584Y-116874882D01*
X129833400Y-116871407D01*
X129825224Y-116862879D01*
X129819164Y-116851328D01*
X129814781Y-116833496D01*
X129811639Y-116806124D01*
X129809302Y-116765954D01*
X129807331Y-116709728D01*
X129805289Y-116634189D01*
X129799645Y-116415058D01*
X129534356Y-116655699D01*
X129460522Y-116722475D01*
X129395342Y-116780591D01*
X129343148Y-116825549D01*
X129302073Y-116858471D01*
X129270255Y-116880479D01*
X129245826Y-116892694D01*
X129226924Y-116896239D01*
X129211683Y-116892236D01*
X129198239Y-116881807D01*
X129184727Y-116866074D01*
X129178482Y-116857591D01*
X129172850Y-116847013D01*
X129168639Y-116832855D01*
X129165687Y-116812403D01*
X129163832Y-116782942D01*
X129162913Y-116741761D01*
X129162768Y-116686144D01*
X129163235Y-116613379D01*
X129164152Y-116520751D01*
X129167467Y-116205799D01*
X129194118Y-116184233D01*
X129220183Y-116168041D01*
X129253041Y-116165270D01*
X129287572Y-116184223D01*
X129291884Y-116187808D01*
X129300016Y-116196337D01*
X129306045Y-116207929D01*
X129310406Y-116225835D01*
X129313534Y-116253306D01*
X129315863Y-116293594D01*
X129317829Y-116349951D01*
X129319867Y-116425629D01*
X129325511Y-116645478D01*
X129506134Y-116481684D01*
X129592872Y-116403051D01*
X129668643Y-116334658D01*
X129730780Y-116279308D01*
X129780878Y-116235938D01*
X129820535Y-116203481D01*
X129851348Y-116180873D01*
X129874914Y-116167048D01*
X129892830Y-116160943D01*
X129906693Y-116161492D01*
G37*
X129906693Y-116161492D02*
X129918101Y-116167629D01*
X129928650Y-116178291D01*
X129939936Y-116192411D01*
X129944389Y-116198372D01*
X129950388Y-116208868D01*
X129954967Y-116222693D01*
X129958319Y-116242598D01*
X129960633Y-116271332D01*
X129962101Y-116311645D01*
X129962913Y-116366287D01*
X129963260Y-116438007D01*
X129963334Y-116529556D01*
X129963311Y-116588086D01*
X129963092Y-116667173D01*
X129962483Y-116728116D01*
X129961292Y-116773662D01*
X129959329Y-116806563D01*
X129956403Y-116829568D01*
X129952323Y-116845426D01*
X129946897Y-116856886D01*
X129939936Y-116866700D01*
X129909508Y-116891093D01*
X129874565Y-116893972D01*
X129837584Y-116874882D01*
X129833400Y-116871407D01*
X129825224Y-116862879D01*
X129819164Y-116851328D01*
X129814781Y-116833496D01*
X129811639Y-116806124D01*
X129809302Y-116765954D01*
X129807331Y-116709728D01*
X129805289Y-116634189D01*
X129799645Y-116415058D01*
X129534356Y-116655699D01*
X129460522Y-116722475D01*
X129395342Y-116780591D01*
X129343148Y-116825549D01*
X129302073Y-116858471D01*
X129270255Y-116880479D01*
X129245826Y-116892694D01*
X129226924Y-116896239D01*
X129211683Y-116892236D01*
X129198239Y-116881807D01*
X129184727Y-116866074D01*
X129178482Y-116857591D01*
X129172850Y-116847013D01*
X129168639Y-116832855D01*
X129165687Y-116812403D01*
X129163832Y-116782942D01*
X129162913Y-116741761D01*
X129162768Y-116686144D01*
X129163235Y-116613379D01*
X129164152Y-116520751D01*
X129167467Y-116205799D01*
X129194118Y-116184233D01*
X129220183Y-116168041D01*
X129253041Y-116165270D01*
X129287572Y-116184223D01*
X129291884Y-116187808D01*
X129300016Y-116196337D01*
X129306045Y-116207929D01*
X129310406Y-116225835D01*
X129313534Y-116253306D01*
X129315863Y-116293594D01*
X129317829Y-116349951D01*
X129319867Y-116425629D01*
X129325511Y-116645478D01*
X129506134Y-116481684D01*
X129592872Y-116403051D01*
X129668643Y-116334658D01*
X129730780Y-116279308D01*
X129780878Y-116235938D01*
X129820535Y-116203481D01*
X129851348Y-116180873D01*
X129874914Y-116167048D01*
X129892830Y-116160943D01*
X129906693Y-116161492D01*
G36*
X133431534Y-116162683D02*
G01*
X133508631Y-116162875D01*
X133567577Y-116163460D01*
X133611164Y-116164651D01*
X133642183Y-116166664D01*
X133663425Y-116169712D01*
X133677682Y-116174009D01*
X133687745Y-116179772D01*
X133696406Y-116187212D01*
X133698191Y-116188893D01*
X133705435Y-116196432D01*
X133711077Y-116205450D01*
X133715317Y-116218584D01*
X133718356Y-116238472D01*
X133720394Y-116267751D01*
X133721630Y-116309058D01*
X133722265Y-116365031D01*
X133722500Y-116438307D01*
X133722534Y-116531523D01*
X133722497Y-116604313D01*
X133722248Y-116682489D01*
X133721612Y-116742703D01*
X133720415Y-116787582D01*
X133718484Y-116819752D01*
X133715646Y-116841839D01*
X133711727Y-116856470D01*
X133706555Y-116866270D01*
X133699956Y-116873867D01*
X133696622Y-116877044D01*
X133688100Y-116883154D01*
X133676098Y-116887829D01*
X133657887Y-116891259D01*
X133630740Y-116893636D01*
X133591929Y-116895152D01*
X133538724Y-116895998D01*
X133468398Y-116896365D01*
X133378222Y-116896445D01*
X133336114Y-116896433D01*
X133254967Y-116896251D01*
X133192475Y-116895698D01*
X133145909Y-116894582D01*
X133112541Y-116892713D01*
X133089644Y-116889898D01*
X133074488Y-116885946D01*
X133064346Y-116880666D01*
X133056489Y-116873867D01*
X133041763Y-116852267D01*
X133033911Y-116823067D01*
X133039410Y-116799160D01*
X133056489Y-116772267D01*
X133061468Y-116767659D01*
X133071243Y-116761372D01*
X133085359Y-116756746D01*
X133106854Y-116753530D01*
X133138768Y-116751470D01*
X133184142Y-116750312D01*
X133246013Y-116749802D01*
X133327422Y-116749689D01*
X133575778Y-116749689D01*
X133575778Y-116591645D01*
X133414601Y-116591645D01*
X133378783Y-116591499D01*
X133313159Y-116589776D01*
X133265918Y-116585341D01*
X133234183Y-116577237D01*
X133215077Y-116564506D01*
X133205723Y-116546192D01*
X133203245Y-116521338D01*
X133204042Y-116501082D01*
X133209294Y-116479256D01*
X133222088Y-116463904D01*
X133245428Y-116453909D01*
X133282317Y-116448153D01*
X133335759Y-116445519D01*
X133408758Y-116444889D01*
X133576905Y-116444889D01*
X133573519Y-116379978D01*
X133570134Y-116315067D01*
X133322417Y-116312018D01*
X133259826Y-116311139D01*
X133191365Y-116309695D01*
X133140461Y-116307764D01*
X133104208Y-116305114D01*
X133079701Y-116301510D01*
X133064035Y-116296721D01*
X133054306Y-116290513D01*
X133048291Y-116284110D01*
X133035282Y-116252428D01*
X133038843Y-116216742D01*
X133058618Y-116185684D01*
X133061869Y-116182761D01*
X133070849Y-116176410D01*
X133082953Y-116171557D01*
X133100959Y-116168003D01*
X133127647Y-116165546D01*
X133165797Y-116163985D01*
X133218186Y-116163118D01*
X133287594Y-116162746D01*
X133376801Y-116162667D01*
X133431534Y-116162683D01*
G37*
X133431534Y-116162683D02*
X133508631Y-116162875D01*
X133567577Y-116163460D01*
X133611164Y-116164651D01*
X133642183Y-116166664D01*
X133663425Y-116169712D01*
X133677682Y-116174009D01*
X133687745Y-116179772D01*
X133696406Y-116187212D01*
X133698191Y-116188893D01*
X133705435Y-116196432D01*
X133711077Y-116205450D01*
X133715317Y-116218584D01*
X133718356Y-116238472D01*
X133720394Y-116267751D01*
X133721630Y-116309058D01*
X133722265Y-116365031D01*
X133722500Y-116438307D01*
X133722534Y-116531523D01*
X133722497Y-116604313D01*
X133722248Y-116682489D01*
X133721612Y-116742703D01*
X133720415Y-116787582D01*
X133718484Y-116819752D01*
X133715646Y-116841839D01*
X133711727Y-116856470D01*
X133706555Y-116866270D01*
X133699956Y-116873867D01*
X133696622Y-116877044D01*
X133688100Y-116883154D01*
X133676098Y-116887829D01*
X133657887Y-116891259D01*
X133630740Y-116893636D01*
X133591929Y-116895152D01*
X133538724Y-116895998D01*
X133468398Y-116896365D01*
X133378222Y-116896445D01*
X133336114Y-116896433D01*
X133254967Y-116896251D01*
X133192475Y-116895698D01*
X133145909Y-116894582D01*
X133112541Y-116892713D01*
X133089644Y-116889898D01*
X133074488Y-116885946D01*
X133064346Y-116880666D01*
X133056489Y-116873867D01*
X133041763Y-116852267D01*
X133033911Y-116823067D01*
X133039410Y-116799160D01*
X133056489Y-116772267D01*
X133061468Y-116767659D01*
X133071243Y-116761372D01*
X133085359Y-116756746D01*
X133106854Y-116753530D01*
X133138768Y-116751470D01*
X133184142Y-116750312D01*
X133246013Y-116749802D01*
X133327422Y-116749689D01*
X133575778Y-116749689D01*
X133575778Y-116591645D01*
X133414601Y-116591645D01*
X133378783Y-116591499D01*
X133313159Y-116589776D01*
X133265918Y-116585341D01*
X133234183Y-116577237D01*
X133215077Y-116564506D01*
X133205723Y-116546192D01*
X133203245Y-116521338D01*
X133204042Y-116501082D01*
X133209294Y-116479256D01*
X133222088Y-116463904D01*
X133245428Y-116453909D01*
X133282317Y-116448153D01*
X133335759Y-116445519D01*
X133408758Y-116444889D01*
X133576905Y-116444889D01*
X133573519Y-116379978D01*
X133570134Y-116315067D01*
X133322417Y-116312018D01*
X133259826Y-116311139D01*
X133191365Y-116309695D01*
X133140461Y-116307764D01*
X133104208Y-116305114D01*
X133079701Y-116301510D01*
X133064035Y-116296721D01*
X133054306Y-116290513D01*
X133048291Y-116284110D01*
X133035282Y-116252428D01*
X133038843Y-116216742D01*
X133058618Y-116185684D01*
X133061869Y-116182761D01*
X133070849Y-116176410D01*
X133082953Y-116171557D01*
X133100959Y-116168003D01*
X133127647Y-116165546D01*
X133165797Y-116163985D01*
X133218186Y-116163118D01*
X133287594Y-116162746D01*
X133376801Y-116162667D01*
X133431534Y-116162683D01*
G36*
X128754603Y-116192411D02*
G01*
X128759552Y-116199095D01*
X128765396Y-116209666D01*
X128769857Y-116223753D01*
X128773121Y-116244078D01*
X128775374Y-116273365D01*
X128776802Y-116314337D01*
X128777592Y-116369717D01*
X128777929Y-116442228D01*
X128778000Y-116534594D01*
X128777971Y-116600511D01*
X128777739Y-116678828D01*
X128777119Y-116739096D01*
X128775926Y-116783993D01*
X128773979Y-116816202D01*
X128771094Y-116838400D01*
X128767088Y-116853269D01*
X128761779Y-116863489D01*
X128754983Y-116871738D01*
X128750468Y-116876395D01*
X128742238Y-116882882D01*
X128730878Y-116887794D01*
X128713610Y-116891349D01*
X128687655Y-116893767D01*
X128650236Y-116895267D01*
X128598573Y-116896067D01*
X128529889Y-116896387D01*
X128441406Y-116896445D01*
X128421731Y-116896438D01*
X128334706Y-116896172D01*
X128267054Y-116895406D01*
X128216099Y-116893992D01*
X128179167Y-116891780D01*
X128153583Y-116888622D01*
X128136671Y-116884369D01*
X128125757Y-116878871D01*
X128115264Y-116868885D01*
X128102003Y-116837768D01*
X128103186Y-116801880D01*
X128119350Y-116770333D01*
X128121539Y-116768057D01*
X128130227Y-116761789D01*
X128143569Y-116757123D01*
X128164552Y-116753827D01*
X128196163Y-116751668D01*
X128241390Y-116750414D01*
X128303220Y-116749831D01*
X128384639Y-116749689D01*
X128631245Y-116749689D01*
X128631245Y-116591645D01*
X128468806Y-116591645D01*
X128433138Y-116591564D01*
X128377368Y-116590767D01*
X128338230Y-116588762D01*
X128311776Y-116585121D01*
X128294059Y-116579412D01*
X128281129Y-116571207D01*
X128277486Y-116568023D01*
X128259078Y-116537048D01*
X128258444Y-116500712D01*
X128275983Y-116467093D01*
X128276045Y-116467024D01*
X128285716Y-116458398D01*
X128299009Y-116452342D01*
X128319717Y-116448411D01*
X128351628Y-116446156D01*
X128398534Y-116445131D01*
X128464224Y-116444889D01*
X128632371Y-116444889D01*
X128628986Y-116379978D01*
X128625600Y-116315067D01*
X128383523Y-116312014D01*
X128358507Y-116311686D01*
X128276887Y-116310206D01*
X128214568Y-116307822D01*
X128168954Y-116303827D01*
X128137452Y-116297513D01*
X128117467Y-116288174D01*
X128106404Y-116275103D01*
X128101669Y-116257592D01*
X128100667Y-116234935D01*
X128100673Y-116232570D01*
X128101827Y-116212539D01*
X128106624Y-116196746D01*
X128117432Y-116184690D01*
X128136617Y-116175867D01*
X128166545Y-116169775D01*
X128209583Y-116165911D01*
X128268099Y-116163774D01*
X128344457Y-116162860D01*
X128441026Y-116162667D01*
X128731206Y-116162667D01*
X128754603Y-116192411D01*
G37*
X128754603Y-116192411D02*
X128759552Y-116199095D01*
X128765396Y-116209666D01*
X128769857Y-116223753D01*
X128773121Y-116244078D01*
X128775374Y-116273365D01*
X128776802Y-116314337D01*
X128777592Y-116369717D01*
X128777929Y-116442228D01*
X128778000Y-116534594D01*
X128777971Y-116600511D01*
X128777739Y-116678828D01*
X128777119Y-116739096D01*
X128775926Y-116783993D01*
X128773979Y-116816202D01*
X128771094Y-116838400D01*
X128767088Y-116853269D01*
X128761779Y-116863489D01*
X128754983Y-116871738D01*
X128750468Y-116876395D01*
X128742238Y-116882882D01*
X128730878Y-116887794D01*
X128713610Y-116891349D01*
X128687655Y-116893767D01*
X128650236Y-116895267D01*
X128598573Y-116896067D01*
X128529889Y-116896387D01*
X128441406Y-116896445D01*
X128421731Y-116896438D01*
X128334706Y-116896172D01*
X128267054Y-116895406D01*
X128216099Y-116893992D01*
X128179167Y-116891780D01*
X128153583Y-116888622D01*
X128136671Y-116884369D01*
X128125757Y-116878871D01*
X128115264Y-116868885D01*
X128102003Y-116837768D01*
X128103186Y-116801880D01*
X128119350Y-116770333D01*
X128121539Y-116768057D01*
X128130227Y-116761789D01*
X128143569Y-116757123D01*
X128164552Y-116753827D01*
X128196163Y-116751668D01*
X128241390Y-116750414D01*
X128303220Y-116749831D01*
X128384639Y-116749689D01*
X128631245Y-116749689D01*
X128631245Y-116591645D01*
X128468806Y-116591645D01*
X128433138Y-116591564D01*
X128377368Y-116590767D01*
X128338230Y-116588762D01*
X128311776Y-116585121D01*
X128294059Y-116579412D01*
X128281129Y-116571207D01*
X128277486Y-116568023D01*
X128259078Y-116537048D01*
X128258444Y-116500712D01*
X128275983Y-116467093D01*
X128276045Y-116467024D01*
X128285716Y-116458398D01*
X128299009Y-116452342D01*
X128319717Y-116448411D01*
X128351628Y-116446156D01*
X128398534Y-116445131D01*
X128464224Y-116444889D01*
X128632371Y-116444889D01*
X128628986Y-116379978D01*
X128625600Y-116315067D01*
X128383523Y-116312014D01*
X128358507Y-116311686D01*
X128276887Y-116310206D01*
X128214568Y-116307822D01*
X128168954Y-116303827D01*
X128137452Y-116297513D01*
X128117467Y-116288174D01*
X128106404Y-116275103D01*
X128101669Y-116257592D01*
X128100667Y-116234935D01*
X128100673Y-116232570D01*
X128101827Y-116212539D01*
X128106624Y-116196746D01*
X128117432Y-116184690D01*
X128136617Y-116175867D01*
X128166545Y-116169775D01*
X128209583Y-116165911D01*
X128268099Y-116163774D01*
X128344457Y-116162860D01*
X128441026Y-116162667D01*
X128731206Y-116162667D01*
X128754603Y-116192411D01*
G36*
X124430206Y-116168549D02*
G01*
X124455927Y-116184247D01*
X124482578Y-116205827D01*
X124482578Y-116853284D01*
X124455927Y-116874864D01*
X124424567Y-116892339D01*
X124388766Y-116893175D01*
X124357328Y-116872682D01*
X124353452Y-116868016D01*
X124347986Y-116858549D01*
X124343779Y-116844867D01*
X124340667Y-116824348D01*
X124338487Y-116794368D01*
X124337076Y-116752304D01*
X124336271Y-116695532D01*
X124335907Y-116621430D01*
X124335822Y-116527373D01*
X124335822Y-116205827D01*
X124362473Y-116184247D01*
X124386186Y-116169477D01*
X124409200Y-116162667D01*
X124430206Y-116168549D01*
G37*
X124430206Y-116168549D02*
X124455927Y-116184247D01*
X124482578Y-116205827D01*
X124482578Y-116853284D01*
X124455927Y-116874864D01*
X124424567Y-116892339D01*
X124388766Y-116893175D01*
X124357328Y-116872682D01*
X124353452Y-116868016D01*
X124347986Y-116858549D01*
X124343779Y-116844867D01*
X124340667Y-116824348D01*
X124338487Y-116794368D01*
X124337076Y-116752304D01*
X124336271Y-116695532D01*
X124335907Y-116621430D01*
X124335822Y-116527373D01*
X124335822Y-116205827D01*
X124362473Y-116184247D01*
X124386186Y-116169477D01*
X124409200Y-116162667D01*
X124430206Y-116168549D01*
G36*
X123054534Y-116185245D02*
G01*
X123060166Y-116191435D01*
X123065256Y-116199641D01*
X123069343Y-116211417D01*
X123072521Y-116228876D01*
X123074887Y-116254130D01*
X123076538Y-116289290D01*
X123077569Y-116336469D01*
X123078077Y-116397777D01*
X123078159Y-116475327D01*
X123077909Y-116571231D01*
X123077425Y-116687600D01*
X123077357Y-116701775D01*
X123076771Y-116763537D01*
X123075448Y-116807220D01*
X123072903Y-116836601D01*
X123068648Y-116855455D01*
X123062196Y-116867559D01*
X123053062Y-116876689D01*
X123019604Y-116894106D01*
X122984656Y-116891204D01*
X122953753Y-116866700D01*
X122944744Y-116853497D01*
X122937292Y-116834961D01*
X122932924Y-116808933D01*
X122930869Y-116770387D01*
X122930356Y-116714300D01*
X122930356Y-116591645D01*
X122433645Y-116591645D01*
X122433645Y-116726471D01*
X122433572Y-116762262D01*
X122432809Y-116808592D01*
X122430633Y-116839126D01*
X122426336Y-116858157D01*
X122419212Y-116869974D01*
X122408555Y-116878871D01*
X122376304Y-116893941D01*
X122341017Y-116891273D01*
X122310286Y-116866700D01*
X122305631Y-116860445D01*
X122299695Y-116849921D01*
X122295164Y-116835991D01*
X122291848Y-116815917D01*
X122289559Y-116786960D01*
X122288108Y-116746380D01*
X122287305Y-116691440D01*
X122286962Y-116619399D01*
X122286889Y-116527520D01*
X122286889Y-116218085D01*
X122314598Y-116190376D01*
X122345977Y-116168133D01*
X122379206Y-116165444D01*
X122411067Y-116185245D01*
X122419353Y-116195015D01*
X122426765Y-116210907D01*
X122431102Y-116234875D01*
X122433138Y-116271748D01*
X122433645Y-116326356D01*
X122433645Y-116444889D01*
X122930356Y-116444889D01*
X122930356Y-116329376D01*
X122930794Y-116277678D01*
X122932758Y-116243154D01*
X122937274Y-116220578D01*
X122945367Y-116204726D01*
X122958065Y-116190376D01*
X122989443Y-116168133D01*
X123022672Y-116165444D01*
X123054534Y-116185245D01*
G37*
X123054534Y-116185245D02*
X123060166Y-116191435D01*
X123065256Y-116199641D01*
X123069343Y-116211417D01*
X123072521Y-116228876D01*
X123074887Y-116254130D01*
X123076538Y-116289290D01*
X123077569Y-116336469D01*
X123078077Y-116397777D01*
X123078159Y-116475327D01*
X123077909Y-116571231D01*
X123077425Y-116687600D01*
X123077357Y-116701775D01*
X123076771Y-116763537D01*
X123075448Y-116807220D01*
X123072903Y-116836601D01*
X123068648Y-116855455D01*
X123062196Y-116867559D01*
X123053062Y-116876689D01*
X123019604Y-116894106D01*
X122984656Y-116891204D01*
X122953753Y-116866700D01*
X122944744Y-116853497D01*
X122937292Y-116834961D01*
X122932924Y-116808933D01*
X122930869Y-116770387D01*
X122930356Y-116714300D01*
X122930356Y-116591645D01*
X122433645Y-116591645D01*
X122433645Y-116726471D01*
X122433572Y-116762262D01*
X122432809Y-116808592D01*
X122430633Y-116839126D01*
X122426336Y-116858157D01*
X122419212Y-116869974D01*
X122408555Y-116878871D01*
X122376304Y-116893941D01*
X122341017Y-116891273D01*
X122310286Y-116866700D01*
X122305631Y-116860445D01*
X122299695Y-116849921D01*
X122295164Y-116835991D01*
X122291848Y-116815917D01*
X122289559Y-116786960D01*
X122288108Y-116746380D01*
X122287305Y-116691440D01*
X122286962Y-116619399D01*
X122286889Y-116527520D01*
X122286889Y-116218085D01*
X122314598Y-116190376D01*
X122345977Y-116168133D01*
X122379206Y-116165444D01*
X122411067Y-116185245D01*
X122419353Y-116195015D01*
X122426765Y-116210907D01*
X122431102Y-116234875D01*
X122433138Y-116271748D01*
X122433645Y-116326356D01*
X122433645Y-116444889D01*
X122930356Y-116444889D01*
X122930356Y-116329376D01*
X122930794Y-116277678D01*
X122932758Y-116243154D01*
X122937274Y-116220578D01*
X122945367Y-116204726D01*
X122958065Y-116190376D01*
X122989443Y-116168133D01*
X123022672Y-116165444D01*
X123054534Y-116185245D01*
G36*
X130703950Y-116167779D02*
G01*
X130809957Y-116184094D01*
X130903769Y-116212145D01*
X130982565Y-116251052D01*
X131043519Y-116299934D01*
X131069589Y-116332795D01*
X131099097Y-116381994D01*
X131124368Y-116435852D01*
X131142018Y-116487019D01*
X131148658Y-116528144D01*
X131147098Y-116547859D01*
X131134157Y-116599192D01*
X131110994Y-116655718D01*
X131081102Y-116709635D01*
X131047973Y-116753139D01*
X131037777Y-116763487D01*
X130970692Y-116815262D01*
X130890566Y-116855154D01*
X130804356Y-116879556D01*
X130749392Y-116887668D01*
X130655939Y-116894273D01*
X130566158Y-116892186D01*
X130483669Y-116881940D01*
X130412086Y-116864070D01*
X130355028Y-116839108D01*
X130316111Y-116807588D01*
X130314736Y-116805612D01*
X130307648Y-116780386D01*
X130303409Y-116733135D01*
X130302000Y-116663671D01*
X130302860Y-116601438D01*
X130307580Y-116554056D01*
X130319270Y-116521953D01*
X130341039Y-116502400D01*
X130375998Y-116492670D01*
X130427256Y-116490033D01*
X130497923Y-116491761D01*
X130546543Y-116494773D01*
X130596739Y-116502966D01*
X130629233Y-116517019D01*
X130646692Y-116538254D01*
X130651783Y-116567994D01*
X130651677Y-116572536D01*
X130642975Y-116607330D01*
X130618965Y-116630747D01*
X130577700Y-116643947D01*
X130517231Y-116648089D01*
X130448756Y-116648089D01*
X130448756Y-116686441D01*
X130448806Y-116695576D01*
X130451027Y-116712827D01*
X130460294Y-116723121D01*
X130481675Y-116730059D01*
X130520236Y-116737241D01*
X130525710Y-116738175D01*
X130622660Y-116748078D01*
X130712652Y-116745159D01*
X130793560Y-116730429D01*
X130863259Y-116704899D01*
X130919624Y-116669578D01*
X130960529Y-116625479D01*
X130983851Y-116573612D01*
X130987463Y-116514988D01*
X130981945Y-116486094D01*
X130955261Y-116430204D01*
X130909073Y-116384545D01*
X130844091Y-116349708D01*
X130761029Y-116326290D01*
X130736355Y-116321841D01*
X130647026Y-116311342D01*
X130567219Y-116312571D01*
X130489126Y-116325506D01*
X130453983Y-116332296D01*
X130408545Y-116333313D01*
X130377230Y-116320782D01*
X130357077Y-116293995D01*
X130350693Y-116265748D01*
X130360179Y-116234524D01*
X130369508Y-116221099D01*
X130403743Y-116197567D01*
X130456365Y-116179695D01*
X130524881Y-116168199D01*
X130606800Y-116163792D01*
X130703950Y-116167779D01*
G37*
X130703950Y-116167779D02*
X130809957Y-116184094D01*
X130903769Y-116212145D01*
X130982565Y-116251052D01*
X131043519Y-116299934D01*
X131069589Y-116332795D01*
X131099097Y-116381994D01*
X131124368Y-116435852D01*
X131142018Y-116487019D01*
X131148658Y-116528144D01*
X131147098Y-116547859D01*
X131134157Y-116599192D01*
X131110994Y-116655718D01*
X131081102Y-116709635D01*
X131047973Y-116753139D01*
X131037777Y-116763487D01*
X130970692Y-116815262D01*
X130890566Y-116855154D01*
X130804356Y-116879556D01*
X130749392Y-116887668D01*
X130655939Y-116894273D01*
X130566158Y-116892186D01*
X130483669Y-116881940D01*
X130412086Y-116864070D01*
X130355028Y-116839108D01*
X130316111Y-116807588D01*
X130314736Y-116805612D01*
X130307648Y-116780386D01*
X130303409Y-116733135D01*
X130302000Y-116663671D01*
X130302860Y-116601438D01*
X130307580Y-116554056D01*
X130319270Y-116521953D01*
X130341039Y-116502400D01*
X130375998Y-116492670D01*
X130427256Y-116490033D01*
X130497923Y-116491761D01*
X130546543Y-116494773D01*
X130596739Y-116502966D01*
X130629233Y-116517019D01*
X130646692Y-116538254D01*
X130651783Y-116567994D01*
X130651677Y-116572536D01*
X130642975Y-116607330D01*
X130618965Y-116630747D01*
X130577700Y-116643947D01*
X130517231Y-116648089D01*
X130448756Y-116648089D01*
X130448756Y-116686441D01*
X130448806Y-116695576D01*
X130451027Y-116712827D01*
X130460294Y-116723121D01*
X130481675Y-116730059D01*
X130520236Y-116737241D01*
X130525710Y-116738175D01*
X130622660Y-116748078D01*
X130712652Y-116745159D01*
X130793560Y-116730429D01*
X130863259Y-116704899D01*
X130919624Y-116669578D01*
X130960529Y-116625479D01*
X130983851Y-116573612D01*
X130987463Y-116514988D01*
X130981945Y-116486094D01*
X130955261Y-116430204D01*
X130909073Y-116384545D01*
X130844091Y-116349708D01*
X130761029Y-116326290D01*
X130736355Y-116321841D01*
X130647026Y-116311342D01*
X130567219Y-116312571D01*
X130489126Y-116325506D01*
X130453983Y-116332296D01*
X130408545Y-116333313D01*
X130377230Y-116320782D01*
X130357077Y-116293995D01*
X130350693Y-116265748D01*
X130360179Y-116234524D01*
X130369508Y-116221099D01*
X130403743Y-116197567D01*
X130456365Y-116179695D01*
X130524881Y-116168199D01*
X130606800Y-116163792D01*
X130703950Y-116167779D01*
G36*
X127757963Y-116806775D02*
G01*
X127755035Y-116829695D01*
X127750958Y-116845497D01*
X127745543Y-116856919D01*
X127738603Y-116866700D01*
X127715206Y-116896445D01*
X127549514Y-116895851D01*
X127514718Y-116895553D01*
X127416235Y-116892122D01*
X127335273Y-116884439D01*
X127268179Y-116871882D01*
X127211296Y-116853827D01*
X127160969Y-116829652D01*
X127157610Y-116827735D01*
X127099798Y-116791017D01*
X127057444Y-116754051D01*
X127024628Y-116710566D01*
X126995428Y-116654289D01*
X126991146Y-116644673D01*
X126968569Y-116581487D01*
X126962834Y-116535933D01*
X127112079Y-116535933D01*
X127117692Y-116560661D01*
X127123418Y-116576539D01*
X127156348Y-116636447D01*
X127203686Y-116682200D01*
X127267452Y-116715336D01*
X127349661Y-116737390D01*
X127352455Y-116737892D01*
X127398740Y-116743855D01*
X127455136Y-116748083D01*
X127510074Y-116749689D01*
X127603956Y-116749689D01*
X127603956Y-116309422D01*
X127516467Y-116309870D01*
X127449547Y-116312346D01*
X127357149Y-116323598D01*
X127277834Y-116343137D01*
X127215860Y-116370111D01*
X127184920Y-116390840D01*
X127156800Y-116420606D01*
X127133460Y-116463034D01*
X127126333Y-116479000D01*
X127114509Y-116511502D01*
X127112079Y-116535933D01*
X126962834Y-116535933D01*
X126961597Y-116526109D01*
X126970199Y-116471083D01*
X126994341Y-116408951D01*
X126995137Y-116407258D01*
X127035588Y-116337836D01*
X127086273Y-116281238D01*
X127148998Y-116236670D01*
X127225574Y-116203341D01*
X127317809Y-116180461D01*
X127427512Y-116167236D01*
X127556491Y-116162875D01*
X127560063Y-116162870D01*
X127620083Y-116163010D01*
X127662014Y-116164046D01*
X127690128Y-116166640D01*
X127708697Y-116171453D01*
X127721994Y-116179144D01*
X127734291Y-116190376D01*
X127762000Y-116218085D01*
X127762000Y-116527520D01*
X127761975Y-116589126D01*
X127761750Y-116667911D01*
X127761132Y-116728621D01*
X127760575Y-116749689D01*
X127759933Y-116773996D01*
X127757963Y-116806775D01*
G37*
X127757963Y-116806775D02*
X127755035Y-116829695D01*
X127750958Y-116845497D01*
X127745543Y-116856919D01*
X127738603Y-116866700D01*
X127715206Y-116896445D01*
X127549514Y-116895851D01*
X127514718Y-116895553D01*
X127416235Y-116892122D01*
X127335273Y-116884439D01*
X127268179Y-116871882D01*
X127211296Y-116853827D01*
X127160969Y-116829652D01*
X127157610Y-116827735D01*
X127099798Y-116791017D01*
X127057444Y-116754051D01*
X127024628Y-116710566D01*
X126995428Y-116654289D01*
X126991146Y-116644673D01*
X126968569Y-116581487D01*
X126962834Y-116535933D01*
X127112079Y-116535933D01*
X127117692Y-116560661D01*
X127123418Y-116576539D01*
X127156348Y-116636447D01*
X127203686Y-116682200D01*
X127267452Y-116715336D01*
X127349661Y-116737390D01*
X127352455Y-116737892D01*
X127398740Y-116743855D01*
X127455136Y-116748083D01*
X127510074Y-116749689D01*
X127603956Y-116749689D01*
X127603956Y-116309422D01*
X127516467Y-116309870D01*
X127449547Y-116312346D01*
X127357149Y-116323598D01*
X127277834Y-116343137D01*
X127215860Y-116370111D01*
X127184920Y-116390840D01*
X127156800Y-116420606D01*
X127133460Y-116463034D01*
X127126333Y-116479000D01*
X127114509Y-116511502D01*
X127112079Y-116535933D01*
X126962834Y-116535933D01*
X126961597Y-116526109D01*
X126970199Y-116471083D01*
X126994341Y-116408951D01*
X126995137Y-116407258D01*
X127035588Y-116337836D01*
X127086273Y-116281238D01*
X127148998Y-116236670D01*
X127225574Y-116203341D01*
X127317809Y-116180461D01*
X127427512Y-116167236D01*
X127556491Y-116162875D01*
X127560063Y-116162870D01*
X127620083Y-116163010D01*
X127662014Y-116164046D01*
X127690128Y-116166640D01*
X127708697Y-116171453D01*
X127721994Y-116179144D01*
X127734291Y-116190376D01*
X127762000Y-116218085D01*
X127762000Y-116527520D01*
X127761975Y-116589126D01*
X127761750Y-116667911D01*
X127761132Y-116728621D01*
X127760575Y-116749689D01*
X127759933Y-116773996D01*
X127757963Y-116806775D01*
G36*
X128563511Y-111855633D02*
G01*
X128659068Y-111873123D01*
X128823358Y-111918164D01*
X128977389Y-111981256D01*
X129123309Y-112063515D01*
X129263266Y-112166057D01*
X129399408Y-112289999D01*
X129443273Y-112335261D01*
X129555558Y-112467465D01*
X129648772Y-112605432D01*
X129725519Y-112753350D01*
X129788403Y-112915403D01*
X129792220Y-112926991D01*
X129842307Y-113112992D01*
X129875699Y-113309121D01*
X129892384Y-113511168D01*
X129892351Y-113714925D01*
X129875591Y-113916181D01*
X129842092Y-114110728D01*
X129791844Y-114294356D01*
X129747990Y-114411653D01*
X129670148Y-114574551D01*
X129576628Y-114728466D01*
X129469622Y-114870271D01*
X129351319Y-114996839D01*
X129223911Y-115105041D01*
X129146406Y-115157720D01*
X129019525Y-115227350D01*
X128882043Y-115286068D01*
X128740516Y-115331187D01*
X128601502Y-115360022D01*
X128587397Y-115361706D01*
X128543953Y-115365034D01*
X128486523Y-115367875D01*
X128420922Y-115369973D01*
X128352967Y-115371068D01*
X128226178Y-115368740D01*
X128078473Y-115355736D01*
X127940579Y-115330733D01*
X127806814Y-115292918D01*
X127783362Y-115284489D01*
X127735412Y-115265008D01*
X127678940Y-115240073D01*
X127617179Y-115211322D01*
X127553363Y-115180390D01*
X127490726Y-115148915D01*
X127432503Y-115118534D01*
X127381927Y-115090883D01*
X127342233Y-115067599D01*
X127316654Y-115050318D01*
X127308425Y-115040679D01*
X127309876Y-115037584D01*
X127321050Y-115017679D01*
X127341934Y-114982020D01*
X127371065Y-114933059D01*
X127406981Y-114873246D01*
X127448220Y-114805033D01*
X127493317Y-114730871D01*
X127674585Y-114433608D01*
X127721115Y-114478139D01*
X127812523Y-114556465D01*
X127926134Y-114631039D01*
X128043922Y-114685074D01*
X128164359Y-114717890D01*
X128285917Y-114728811D01*
X128327385Y-114727468D01*
X128444880Y-114709212D01*
X128554889Y-114670217D01*
X128656230Y-114611270D01*
X128747721Y-114533157D01*
X128828180Y-114436664D01*
X128896427Y-114322578D01*
X128912708Y-114288324D01*
X128958782Y-114164840D01*
X128993906Y-114026518D01*
X129017997Y-113877161D01*
X129030973Y-113720573D01*
X129032749Y-113560556D01*
X129023243Y-113400914D01*
X129002372Y-113245450D01*
X128970052Y-113097966D01*
X128926199Y-112962267D01*
X128888782Y-112875676D01*
X128823985Y-112762288D01*
X128748572Y-112668670D01*
X128662218Y-112594559D01*
X128564595Y-112539694D01*
X128455377Y-112503812D01*
X128334239Y-112486651D01*
X128264838Y-112485480D01*
X128141968Y-112499741D01*
X128026464Y-112534841D01*
X127919753Y-112590282D01*
X127823264Y-112665564D01*
X127807520Y-112680040D01*
X127776950Y-112706562D01*
X127754609Y-112723738D01*
X127744491Y-112728387D01*
X127742506Y-112726197D01*
X127728041Y-112707321D01*
X127704200Y-112673997D01*
X127672829Y-112628980D01*
X127635774Y-112575025D01*
X127594883Y-112514885D01*
X127552002Y-112451318D01*
X127508978Y-112387076D01*
X127467657Y-112324915D01*
X127429886Y-112267591D01*
X127397512Y-112217857D01*
X127372382Y-112178468D01*
X127356342Y-112152180D01*
X127351239Y-112141747D01*
X127355850Y-112137541D01*
X127375067Y-112132533D01*
X127384638Y-112129986D01*
X127412609Y-112118849D01*
X127454248Y-112100402D01*
X127505795Y-112076325D01*
X127563490Y-112048299D01*
X127574757Y-112042754D01*
X127752487Y-111963489D01*
X127922290Y-111903985D01*
X128086230Y-111863845D01*
X128246371Y-111842671D01*
X128404777Y-111840066D01*
X128563511Y-111855633D01*
G37*
X128563511Y-111855633D02*
X128659068Y-111873123D01*
X128823358Y-111918164D01*
X128977389Y-111981256D01*
X129123309Y-112063515D01*
X129263266Y-112166057D01*
X129399408Y-112289999D01*
X129443273Y-112335261D01*
X129555558Y-112467465D01*
X129648772Y-112605432D01*
X129725519Y-112753350D01*
X129788403Y-112915403D01*
X129792220Y-112926991D01*
X129842307Y-113112992D01*
X129875699Y-113309121D01*
X129892384Y-113511168D01*
X129892351Y-113714925D01*
X129875591Y-113916181D01*
X129842092Y-114110728D01*
X129791844Y-114294356D01*
X129747990Y-114411653D01*
X129670148Y-114574551D01*
X129576628Y-114728466D01*
X129469622Y-114870271D01*
X129351319Y-114996839D01*
X129223911Y-115105041D01*
X129146406Y-115157720D01*
X129019525Y-115227350D01*
X128882043Y-115286068D01*
X128740516Y-115331187D01*
X128601502Y-115360022D01*
X128587397Y-115361706D01*
X128543953Y-115365034D01*
X128486523Y-115367875D01*
X128420922Y-115369973D01*
X128352967Y-115371068D01*
X128226178Y-115368740D01*
X128078473Y-115355736D01*
X127940579Y-115330733D01*
X127806814Y-115292918D01*
X127783362Y-115284489D01*
X127735412Y-115265008D01*
X127678940Y-115240073D01*
X127617179Y-115211322D01*
X127553363Y-115180390D01*
X127490726Y-115148915D01*
X127432503Y-115118534D01*
X127381927Y-115090883D01*
X127342233Y-115067599D01*
X127316654Y-115050318D01*
X127308425Y-115040679D01*
X127309876Y-115037584D01*
X127321050Y-115017679D01*
X127341934Y-114982020D01*
X127371065Y-114933059D01*
X127406981Y-114873246D01*
X127448220Y-114805033D01*
X127493317Y-114730871D01*
X127674585Y-114433608D01*
X127721115Y-114478139D01*
X127812523Y-114556465D01*
X127926134Y-114631039D01*
X128043922Y-114685074D01*
X128164359Y-114717890D01*
X128285917Y-114728811D01*
X128327385Y-114727468D01*
X128444880Y-114709212D01*
X128554889Y-114670217D01*
X128656230Y-114611270D01*
X128747721Y-114533157D01*
X128828180Y-114436664D01*
X128896427Y-114322578D01*
X128912708Y-114288324D01*
X128958782Y-114164840D01*
X128993906Y-114026518D01*
X129017997Y-113877161D01*
X129030973Y-113720573D01*
X129032749Y-113560556D01*
X129023243Y-113400914D01*
X129002372Y-113245450D01*
X128970052Y-113097966D01*
X128926199Y-112962267D01*
X128888782Y-112875676D01*
X128823985Y-112762288D01*
X128748572Y-112668670D01*
X128662218Y-112594559D01*
X128564595Y-112539694D01*
X128455377Y-112503812D01*
X128334239Y-112486651D01*
X128264838Y-112485480D01*
X128141968Y-112499741D01*
X128026464Y-112534841D01*
X127919753Y-112590282D01*
X127823264Y-112665564D01*
X127807520Y-112680040D01*
X127776950Y-112706562D01*
X127754609Y-112723738D01*
X127744491Y-112728387D01*
X127742506Y-112726197D01*
X127728041Y-112707321D01*
X127704200Y-112673997D01*
X127672829Y-112628980D01*
X127635774Y-112575025D01*
X127594883Y-112514885D01*
X127552002Y-112451318D01*
X127508978Y-112387076D01*
X127467657Y-112324915D01*
X127429886Y-112267591D01*
X127397512Y-112217857D01*
X127372382Y-112178468D01*
X127356342Y-112152180D01*
X127351239Y-112141747D01*
X127355850Y-112137541D01*
X127375067Y-112132533D01*
X127384638Y-112129986D01*
X127412609Y-112118849D01*
X127454248Y-112100402D01*
X127505795Y-112076325D01*
X127563490Y-112048299D01*
X127574757Y-112042754D01*
X127752487Y-111963489D01*
X127922290Y-111903985D01*
X128086230Y-111863845D01*
X128246371Y-111842671D01*
X128404777Y-111840066D01*
X128563511Y-111855633D01*
G36*
X131560937Y-116167063D02*
G01*
X131595091Y-116190376D01*
X131622800Y-116218085D01*
X131622800Y-116531137D01*
X131622759Y-116615167D01*
X131622501Y-116689389D01*
X131621830Y-116746141D01*
X131620552Y-116788112D01*
X131618473Y-116817989D01*
X131615399Y-116838461D01*
X131611134Y-116852214D01*
X131605484Y-116861937D01*
X131598255Y-116870317D01*
X131566791Y-116891781D01*
X131531626Y-116893547D01*
X131498622Y-116873867D01*
X131493316Y-116867998D01*
X131487866Y-116858914D01*
X131483700Y-116845573D01*
X131480646Y-116825357D01*
X131478532Y-116795649D01*
X131477186Y-116753832D01*
X131476438Y-116697289D01*
X131476114Y-116623402D01*
X131476045Y-116529556D01*
X131476084Y-116453894D01*
X131476339Y-116375985D01*
X131476983Y-116315975D01*
X131478187Y-116271248D01*
X131480124Y-116239185D01*
X131482964Y-116217171D01*
X131486879Y-116202587D01*
X131492042Y-116192818D01*
X131498622Y-116185245D01*
X131527806Y-116166223D01*
X131560937Y-116167063D01*
G37*
X131560937Y-116167063D02*
X131595091Y-116190376D01*
X131622800Y-116218085D01*
X131622800Y-116531137D01*
X131622759Y-116615167D01*
X131622501Y-116689389D01*
X131621830Y-116746141D01*
X131620552Y-116788112D01*
X131618473Y-116817989D01*
X131615399Y-116838461D01*
X131611134Y-116852214D01*
X131605484Y-116861937D01*
X131598255Y-116870317D01*
X131566791Y-116891781D01*
X131531626Y-116893547D01*
X131498622Y-116873867D01*
X131493316Y-116867998D01*
X131487866Y-116858914D01*
X131483700Y-116845573D01*
X131480646Y-116825357D01*
X131478532Y-116795649D01*
X131477186Y-116753832D01*
X131476438Y-116697289D01*
X131476114Y-116623402D01*
X131476045Y-116529556D01*
X131476084Y-116453894D01*
X131476339Y-116375985D01*
X131476983Y-116315975D01*
X131478187Y-116271248D01*
X131480124Y-116239185D01*
X131482964Y-116217171D01*
X131486879Y-116202587D01*
X131492042Y-116192818D01*
X131498622Y-116185245D01*
X131527806Y-116166223D01*
X131560937Y-116167063D01*
G36*
X127302061Y-114570963D02*
G01*
X127298432Y-114645802D01*
X127290822Y-114708001D01*
X127278488Y-114764584D01*
X127234113Y-114890676D01*
X127171200Y-115005279D01*
X127091038Y-115106168D01*
X126994540Y-115192524D01*
X126882622Y-115263532D01*
X126756197Y-115318376D01*
X126616178Y-115356238D01*
X126579949Y-115361951D01*
X126500955Y-115367913D01*
X126412641Y-115368246D01*
X126322875Y-115363259D01*
X126239522Y-115353266D01*
X126170451Y-115338578D01*
X126083987Y-115308349D01*
X125974086Y-115253657D01*
X125876756Y-115186143D01*
X125814667Y-115135156D01*
X125811405Y-115231222D01*
X125808143Y-115327289D01*
X125385250Y-115327289D01*
X125374343Y-115327286D01*
X125279856Y-115326980D01*
X125193131Y-115326216D01*
X125116637Y-115325051D01*
X125052843Y-115323542D01*
X125004218Y-115321747D01*
X124973233Y-115319721D01*
X124962356Y-115317522D01*
X124962378Y-115317063D01*
X124969414Y-115301510D01*
X124985234Y-115278671D01*
X124989534Y-115273238D01*
X125000577Y-115259206D01*
X125010111Y-115245786D01*
X125018261Y-115231322D01*
X125025152Y-115214156D01*
X125030911Y-115192634D01*
X125035662Y-115165098D01*
X125039531Y-115129892D01*
X125042644Y-115085360D01*
X125045125Y-115029846D01*
X125047100Y-114961693D01*
X125048694Y-114879245D01*
X125050034Y-114780846D01*
X125051244Y-114664839D01*
X125051696Y-114614062D01*
X125854178Y-114614062D01*
X125898848Y-114670573D01*
X125911585Y-114685812D01*
X125958404Y-114728444D01*
X126019055Y-114764272D01*
X126029697Y-114769450D01*
X126068476Y-114786345D01*
X126103492Y-114796509D01*
X126143522Y-114801925D01*
X126197341Y-114804578D01*
X126215448Y-114804983D01*
X126290811Y-114802140D01*
X126351543Y-114790220D01*
X126403252Y-114767637D01*
X126451546Y-114732811D01*
X126456603Y-114728398D01*
X126505072Y-114672760D01*
X126533259Y-114608933D01*
X126542552Y-114533882D01*
X126535320Y-114462293D01*
X126510596Y-114399245D01*
X126466049Y-114341358D01*
X126411119Y-114294408D01*
X126338694Y-114254561D01*
X126252140Y-114226863D01*
X126149470Y-114210696D01*
X126028694Y-114205442D01*
X126019807Y-114205457D01*
X125964460Y-114206255D01*
X125917536Y-114208088D01*
X125883753Y-114210711D01*
X125867828Y-114213874D01*
X125863743Y-114220341D01*
X125859372Y-114242475D01*
X125856404Y-114281588D01*
X125854714Y-114339539D01*
X125854178Y-114418186D01*
X125854178Y-114614062D01*
X125051696Y-114614062D01*
X125052449Y-114529568D01*
X125053775Y-114373378D01*
X125055028Y-114230612D01*
X125056451Y-114085542D01*
X125057976Y-113959627D01*
X125059733Y-113851036D01*
X125061851Y-113757934D01*
X125064460Y-113678491D01*
X125067690Y-113610873D01*
X125071669Y-113553249D01*
X125076528Y-113503785D01*
X125082397Y-113460650D01*
X125089404Y-113422010D01*
X125097680Y-113386034D01*
X125107354Y-113350889D01*
X125118556Y-113314742D01*
X125131416Y-113275761D01*
X125146890Y-113232691D01*
X125189794Y-113140471D01*
X125243535Y-113060699D01*
X125312376Y-112986565D01*
X125389985Y-112923005D01*
X125494561Y-112861325D01*
X125614044Y-112813802D01*
X125749308Y-112780167D01*
X125901226Y-112760152D01*
X126070672Y-112753489D01*
X126128690Y-112753887D01*
X126194198Y-112755935D01*
X126255493Y-112760304D01*
X126316897Y-112767635D01*
X126382732Y-112778569D01*
X126457320Y-112793747D01*
X126544984Y-112813809D01*
X126650045Y-112839397D01*
X126678606Y-112846420D01*
X126753854Y-112864376D01*
X126824188Y-112880420D01*
X126885367Y-112893628D01*
X126933154Y-112903074D01*
X126963311Y-112907831D01*
X126991583Y-112911510D01*
X127017860Y-112916787D01*
X127027859Y-112921542D01*
X127024752Y-112930381D01*
X127013994Y-112957672D01*
X126996664Y-113000506D01*
X126973926Y-113056025D01*
X126946947Y-113121372D01*
X126916890Y-113193689D01*
X126910293Y-113209479D01*
X126871707Y-113300084D01*
X126840568Y-113369817D01*
X126816717Y-113419005D01*
X126799998Y-113447974D01*
X126790254Y-113457052D01*
X126782566Y-113455005D01*
X126756215Y-113445360D01*
X126717782Y-113429790D01*
X126672622Y-113410415D01*
X126578093Y-113372414D01*
X126441280Y-113331380D01*
X126300089Y-113306212D01*
X126262114Y-113302211D01*
X126158859Y-113300047D01*
X126071752Y-113313222D01*
X125999929Y-113342356D01*
X125942531Y-113388066D01*
X125898696Y-113450972D01*
X125867562Y-113531692D01*
X125848270Y-113630845D01*
X125840850Y-113689824D01*
X126002736Y-113683045D01*
X126129295Y-113681413D01*
X126280751Y-113687794D01*
X126429196Y-113702377D01*
X126565378Y-113724482D01*
X126630045Y-113739421D01*
X126762290Y-113782341D01*
X126884562Y-113838940D01*
X126994485Y-113907617D01*
X127089683Y-113986770D01*
X127167780Y-114074796D01*
X127226399Y-114170093D01*
X127250395Y-114222464D01*
X127276032Y-114293190D01*
X127292278Y-114364412D01*
X127300622Y-114443312D01*
X127302490Y-114533882D01*
X127302555Y-114537067D01*
X127302061Y-114570963D01*
G37*
X127302061Y-114570963D02*
X127298432Y-114645802D01*
X127290822Y-114708001D01*
X127278488Y-114764584D01*
X127234113Y-114890676D01*
X127171200Y-115005279D01*
X127091038Y-115106168D01*
X126994540Y-115192524D01*
X126882622Y-115263532D01*
X126756197Y-115318376D01*
X126616178Y-115356238D01*
X126579949Y-115361951D01*
X126500955Y-115367913D01*
X126412641Y-115368246D01*
X126322875Y-115363259D01*
X126239522Y-115353266D01*
X126170451Y-115338578D01*
X126083987Y-115308349D01*
X125974086Y-115253657D01*
X125876756Y-115186143D01*
X125814667Y-115135156D01*
X125811405Y-115231222D01*
X125808143Y-115327289D01*
X125385250Y-115327289D01*
X125374343Y-115327286D01*
X125279856Y-115326980D01*
X125193131Y-115326216D01*
X125116637Y-115325051D01*
X125052843Y-115323542D01*
X125004218Y-115321747D01*
X124973233Y-115319721D01*
X124962356Y-115317522D01*
X124962378Y-115317063D01*
X124969414Y-115301510D01*
X124985234Y-115278671D01*
X124989534Y-115273238D01*
X125000577Y-115259206D01*
X125010111Y-115245786D01*
X125018261Y-115231322D01*
X125025152Y-115214156D01*
X125030911Y-115192634D01*
X125035662Y-115165098D01*
X125039531Y-115129892D01*
X125042644Y-115085360D01*
X125045125Y-115029846D01*
X125047100Y-114961693D01*
X125048694Y-114879245D01*
X125050034Y-114780846D01*
X125051244Y-114664839D01*
X125051696Y-114614062D01*
X125854178Y-114614062D01*
X125898848Y-114670573D01*
X125911585Y-114685812D01*
X125958404Y-114728444D01*
X126019055Y-114764272D01*
X126029697Y-114769450D01*
X126068476Y-114786345D01*
X126103492Y-114796509D01*
X126143522Y-114801925D01*
X126197341Y-114804578D01*
X126215448Y-114804983D01*
X126290811Y-114802140D01*
X126351543Y-114790220D01*
X126403252Y-114767637D01*
X126451546Y-114732811D01*
X126456603Y-114728398D01*
X126505072Y-114672760D01*
X126533259Y-114608933D01*
X126542552Y-114533882D01*
X126535320Y-114462293D01*
X126510596Y-114399245D01*
X126466049Y-114341358D01*
X126411119Y-114294408D01*
X126338694Y-114254561D01*
X126252140Y-114226863D01*
X126149470Y-114210696D01*
X126028694Y-114205442D01*
X126019807Y-114205457D01*
X125964460Y-114206255D01*
X125917536Y-114208088D01*
X125883753Y-114210711D01*
X125867828Y-114213874D01*
X125863743Y-114220341D01*
X125859372Y-114242475D01*
X125856404Y-114281588D01*
X125854714Y-114339539D01*
X125854178Y-114418186D01*
X125854178Y-114614062D01*
X125051696Y-114614062D01*
X125052449Y-114529568D01*
X125053775Y-114373378D01*
X125055028Y-114230612D01*
X125056451Y-114085542D01*
X125057976Y-113959627D01*
X125059733Y-113851036D01*
X125061851Y-113757934D01*
X125064460Y-113678491D01*
X125067690Y-113610873D01*
X125071669Y-113553249D01*
X125076528Y-113503785D01*
X125082397Y-113460650D01*
X125089404Y-113422010D01*
X125097680Y-113386034D01*
X125107354Y-113350889D01*
X125118556Y-113314742D01*
X125131416Y-113275761D01*
X125146890Y-113232691D01*
X125189794Y-113140471D01*
X125243535Y-113060699D01*
X125312376Y-112986565D01*
X125389985Y-112923005D01*
X125494561Y-112861325D01*
X125614044Y-112813802D01*
X125749308Y-112780167D01*
X125901226Y-112760152D01*
X126070672Y-112753489D01*
X126128690Y-112753887D01*
X126194198Y-112755935D01*
X126255493Y-112760304D01*
X126316897Y-112767635D01*
X126382732Y-112778569D01*
X126457320Y-112793747D01*
X126544984Y-112813809D01*
X126650045Y-112839397D01*
X126678606Y-112846420D01*
X126753854Y-112864376D01*
X126824188Y-112880420D01*
X126885367Y-112893628D01*
X126933154Y-112903074D01*
X126963311Y-112907831D01*
X126991583Y-112911510D01*
X127017860Y-112916787D01*
X127027859Y-112921542D01*
X127024752Y-112930381D01*
X127013994Y-112957672D01*
X126996664Y-113000506D01*
X126973926Y-113056025D01*
X126946947Y-113121372D01*
X126916890Y-113193689D01*
X126910293Y-113209479D01*
X126871707Y-113300084D01*
X126840568Y-113369817D01*
X126816717Y-113419005D01*
X126799998Y-113447974D01*
X126790254Y-113457052D01*
X126782566Y-113455005D01*
X126756215Y-113445360D01*
X126717782Y-113429790D01*
X126672622Y-113410415D01*
X126578093Y-113372414D01*
X126441280Y-113331380D01*
X126300089Y-113306212D01*
X126262114Y-113302211D01*
X126158859Y-113300047D01*
X126071752Y-113313222D01*
X125999929Y-113342356D01*
X125942531Y-113388066D01*
X125898696Y-113450972D01*
X125867562Y-113531692D01*
X125848270Y-113630845D01*
X125840850Y-113689824D01*
X126002736Y-113683045D01*
X126129295Y-113681413D01*
X126280751Y-113687794D01*
X126429196Y-113702377D01*
X126565378Y-113724482D01*
X126630045Y-113739421D01*
X126762290Y-113782341D01*
X126884562Y-113838940D01*
X126994485Y-113907617D01*
X127089683Y-113986770D01*
X127167780Y-114074796D01*
X127226399Y-114170093D01*
X127250395Y-114222464D01*
X127276032Y-114293190D01*
X127292278Y-114364412D01*
X127300622Y-114443312D01*
X127302490Y-114533882D01*
X127302555Y-114537067D01*
X127302061Y-114570963D01*
G36*
X132415653Y-116163536D02*
G01*
X132481900Y-116168966D01*
X132537200Y-116178564D01*
X132588083Y-116193425D01*
X132659395Y-116226558D01*
X132710552Y-116269240D01*
X132741375Y-116321305D01*
X132751689Y-116382583D01*
X132750752Y-116413832D01*
X132744960Y-116438629D01*
X132730153Y-116460299D01*
X132702180Y-116487649D01*
X132694202Y-116494978D01*
X132670492Y-116515881D01*
X132648098Y-116532851D01*
X132624065Y-116546805D01*
X132595437Y-116558656D01*
X132559260Y-116569320D01*
X132512580Y-116579711D01*
X132452441Y-116590746D01*
X132375890Y-116603338D01*
X132279971Y-116618404D01*
X132261608Y-116621438D01*
X132199278Y-116635058D01*
X132154060Y-116650792D01*
X132127776Y-116667863D01*
X132122247Y-116685497D01*
X132124868Y-116689768D01*
X132142800Y-116704833D01*
X132170926Y-116721467D01*
X132183726Y-116727457D01*
X132205024Y-116734650D01*
X132231410Y-116739427D01*
X132267254Y-116742246D01*
X132316928Y-116743564D01*
X132384800Y-116743837D01*
X132402585Y-116743764D01*
X132470206Y-116742653D01*
X132535145Y-116740428D01*
X132590770Y-116737362D01*
X132630451Y-116733727D01*
X132665962Y-116729659D01*
X132695215Y-116728876D01*
X132714115Y-116733476D01*
X132729229Y-116744151D01*
X132732885Y-116747744D01*
X132749227Y-116779518D01*
X132747907Y-116815172D01*
X132728950Y-116845790D01*
X132708580Y-116857396D01*
X132672596Y-116870091D01*
X132630172Y-116880141D01*
X132626722Y-116880740D01*
X132584052Y-116885956D01*
X132526666Y-116890330D01*
X132461649Y-116893418D01*
X132396089Y-116894777D01*
X132379857Y-116894818D01*
X132281544Y-116892341D01*
X132201492Y-116884335D01*
X132136313Y-116869803D01*
X132082617Y-116847749D01*
X132037016Y-116817176D01*
X131996123Y-116777086D01*
X131976002Y-116750859D01*
X131964376Y-116721312D01*
X131961467Y-116681595D01*
X131961608Y-116669626D01*
X131965481Y-116636945D01*
X131977865Y-116610419D01*
X132003030Y-116579571D01*
X132024242Y-116557431D01*
X132050638Y-116534885D01*
X132080355Y-116516517D01*
X132116585Y-116501261D01*
X132162517Y-116488049D01*
X132221344Y-116475814D01*
X132296256Y-116463489D01*
X132390445Y-116450006D01*
X132435757Y-116442996D01*
X132503711Y-116428437D01*
X132552847Y-116411937D01*
X132582414Y-116394039D01*
X132591664Y-116375285D01*
X132579848Y-116356215D01*
X132546216Y-116337371D01*
X132543170Y-116336157D01*
X132496811Y-116324079D01*
X132434161Y-116315879D01*
X132360727Y-116311719D01*
X132282017Y-116311761D01*
X132203539Y-116316169D01*
X132130800Y-116325105D01*
X132126873Y-116325754D01*
X132078057Y-116333461D01*
X132045805Y-116337073D01*
X132024808Y-116336476D01*
X132009754Y-116331554D01*
X131995334Y-116322196D01*
X131994164Y-116321325D01*
X131969647Y-116290951D01*
X131964854Y-116255450D01*
X131980660Y-116220869D01*
X131985206Y-116216413D01*
X132014820Y-116201273D01*
X132061802Y-116188150D01*
X132122106Y-116177350D01*
X132191688Y-116169181D01*
X132266503Y-116163951D01*
X132342506Y-116161967D01*
X132415653Y-116163536D01*
G37*
X132415653Y-116163536D02*
X132481900Y-116168966D01*
X132537200Y-116178564D01*
X132588083Y-116193425D01*
X132659395Y-116226558D01*
X132710552Y-116269240D01*
X132741375Y-116321305D01*
X132751689Y-116382583D01*
X132750752Y-116413832D01*
X132744960Y-116438629D01*
X132730153Y-116460299D01*
X132702180Y-116487649D01*
X132694202Y-116494978D01*
X132670492Y-116515881D01*
X132648098Y-116532851D01*
X132624065Y-116546805D01*
X132595437Y-116558656D01*
X132559260Y-116569320D01*
X132512580Y-116579711D01*
X132452441Y-116590746D01*
X132375890Y-116603338D01*
X132279971Y-116618404D01*
X132261608Y-116621438D01*
X132199278Y-116635058D01*
X132154060Y-116650792D01*
X132127776Y-116667863D01*
X132122247Y-116685497D01*
X132124868Y-116689768D01*
X132142800Y-116704833D01*
X132170926Y-116721467D01*
X132183726Y-116727457D01*
X132205024Y-116734650D01*
X132231410Y-116739427D01*
X132267254Y-116742246D01*
X132316928Y-116743564D01*
X132384800Y-116743837D01*
X132402585Y-116743764D01*
X132470206Y-116742653D01*
X132535145Y-116740428D01*
X132590770Y-116737362D01*
X132630451Y-116733727D01*
X132665962Y-116729659D01*
X132695215Y-116728876D01*
X132714115Y-116733476D01*
X132729229Y-116744151D01*
X132732885Y-116747744D01*
X132749227Y-116779518D01*
X132747907Y-116815172D01*
X132728950Y-116845790D01*
X132708580Y-116857396D01*
X132672596Y-116870091D01*
X132630172Y-116880141D01*
X132626722Y-116880740D01*
X132584052Y-116885956D01*
X132526666Y-116890330D01*
X132461649Y-116893418D01*
X132396089Y-116894777D01*
X132379857Y-116894818D01*
X132281544Y-116892341D01*
X132201492Y-116884335D01*
X132136313Y-116869803D01*
X132082617Y-116847749D01*
X132037016Y-116817176D01*
X131996123Y-116777086D01*
X131976002Y-116750859D01*
X131964376Y-116721312D01*
X131961467Y-116681595D01*
X131961608Y-116669626D01*
X131965481Y-116636945D01*
X131977865Y-116610419D01*
X132003030Y-116579571D01*
X132024242Y-116557431D01*
X132050638Y-116534885D01*
X132080355Y-116516517D01*
X132116585Y-116501261D01*
X132162517Y-116488049D01*
X132221344Y-116475814D01*
X132296256Y-116463489D01*
X132390445Y-116450006D01*
X132435757Y-116442996D01*
X132503711Y-116428437D01*
X132552847Y-116411937D01*
X132582414Y-116394039D01*
X132591664Y-116375285D01*
X132579848Y-116356215D01*
X132546216Y-116337371D01*
X132543170Y-116336157D01*
X132496811Y-116324079D01*
X132434161Y-116315879D01*
X132360727Y-116311719D01*
X132282017Y-116311761D01*
X132203539Y-116316169D01*
X132130800Y-116325105D01*
X132126873Y-116325754D01*
X132078057Y-116333461D01*
X132045805Y-116337073D01*
X132024808Y-116336476D01*
X132009754Y-116331554D01*
X131995334Y-116322196D01*
X131994164Y-116321325D01*
X131969647Y-116290951D01*
X131964854Y-116255450D01*
X131980660Y-116220869D01*
X131985206Y-116216413D01*
X132014820Y-116201273D01*
X132061802Y-116188150D01*
X132122106Y-116177350D01*
X132191688Y-116169181D01*
X132266503Y-116163951D01*
X132342506Y-116161967D01*
X132415653Y-116163536D01*
%TD*%
M02*
